Hack-Italic-PS.ufo
<glyph name="numbersign" format="1">
  <advance width="1233"/>
  <unicode hex="0023"/>
  <outline>
    <contour>
      <point x="250" y="414" type="line" name="dv01"/>
      <point x="-6" y="414" type="line"/>
      <point x="33" y="567" type="line"/>
      <point x="289" y="567" type="line" name="dv02"/>
      <point x="373" y="901" type="line" name="dv03"/>
      <point x="115" y="901" type="line"/>
      <point x="154" y="1055" type="line"/>
      <point x="412" y="1055" type="line" name="dv04"/>
      <point x="516" y="1470" type="line" name="av01"/>
      <point x="676" y="1470" type="line"/>
      <point x="571" y="1055" type="line" name="sv01"/>
      <point x="817" y="1055" type="line"/>
      <point x="922" y="1470" type="line" name="av02"/>
      <point x="1081" y="1470" type="line"/>
      <point x="977" y="1055" type="line" name="sv02"/>
      <point x="1233" y="1055" type="line"/>
      <point x="1194" y="901" type="line" name="sv03"/>
      <point x="938" y="901" type="line"/>
      <point x="854" y="567" type="line" name="sv04"/>
      <point x="1112" y="567" type="line"/>
      <point x="1073" y="414" type="line" name="sv05"/>
      <point x="815" y="414" type="line"/>
      <point x="711" y="0" type="line" name="ab01"/>
      <point x="551" y="0" type="line"/>
      <point x="655" y="414" type="line" name="sv06"/>
      <point x="410" y="414" type="line"/>
      <point x="305" y="0" type="line" name="ab02"/>
      <point x="145" y="0" type="line"/>
    </contour>
    <contour>
      <point x="694" y="567" type="line" name="sv07"/>
      <point x="778" y="901" type="line" name="sv08"/>
      <point x="532" y="901" type="line"/>
      <point x="449" y="567" type="line"/>
    </contour>
  </outline>
</glyph>
<glyph name="dollar" format="1">
  <advance width="1233"/>
  <unicode hex="0024"/>
  <outline>
    <contour>
      <point x="354" y="-301" type="line" name="hr00"/>
      <point x="455" y="-301" type="line" name="av01"/>
      <point x="514" y="2" type="line"/>
      <point x="524" y="2" type="line" smooth="yes" name="ab02"/>
      <point x="668" y="2"/>
      <point x="786" y="42" name="sh03"/>
      <point x="877" y="122" type="curve" smooth="yes"/>
      <point x="969" y="202"/>
      <point x="1014" y="304"/>
      <point x="1014" y="421" type="curve" smooth="yes"/>
      <point x="1014" y="516" name="iv02"/>
      <point x="985" y="583"/>
      <point x="925" y="639" type="curve" smooth="yes"/>
      <point x="866" y="694"/>
      <point x="779" y="733" name="sh02"/>
      <point x="662" y="756" type="curve" name="at01"/>
      <point x="743" y="1182" type="line"/>
      <point x="804" y="1177"/>
      <point x="866" y="1164" name="sh01"/>
      <point x="909" y="1151" type="curve" smooth="yes"/>
      <point x="952" y="1138"/>
      <point x="1008" y="1114" name="sv01"/>
      <point x="1051" y="1087" type="curve"/>
      <point x="1083" y="1260" type="line" name="iv01"/>
      <point x="1039" y="1275"/>
      <point x="973" y="1292"/>
      <point x="933" y="1300" type="curve" smooth="yes" name="ab01"/>
      <point x="893" y="1308"/>
      <point x="830" y="1317"/>
      <point x="770" y="1321" type="curve" name="sh04"/>
      <point x="817" y="1556" type="line"/>
      <point x="717" y="1556" type="line"/>
      <point x="669" y="1321" type="line"/>
      <point x="537" y="1317"/>
      <point x="417" y="1277" name="ah02"/>
      <point x="328" y="1200" type="curve" smooth="yes"/>
      <point x="239" y="1123" name="sv02"/>
      <point x="195" y="1023" name="ah01"/>
      <point x="195" y="912" type="curve" smooth="yes" name="sh05"/>
      <point x="195" y="821"/>
      <point x="224" y="761"/>
      <point x="275" y="714" type="curve" smooth="yes"/>
      <point x="332" y="662"/>
      <point x="417" y="629"/>
      <point x="530" y="606" type="curve"/>
      <point x="440" y="141" type="line"/>
      <point x="372" y="144"/>
      <point x="306" y="156"/>
      <point x="242" y="179" type="curve" smooth="yes"/>
      <point x="179" y="201"/>
      <point x="120" y="232"/>
      <point x="66" y="272" type="curve"/>
      <point x="31" y="92" type="line"/>
      <point x="92" y="64"/>
      <point x="154" y="42"/>
      <point x="222" y="26" type="curve" smooth="yes"/>
      <point x="287" y="11"/>
      <point x="351" y="2"/>
      <point x="413" y="0" type="curve"/>
    </contour>
    <contour>
      <point x="563" y="774" type="line"/>
      <point x="487" y="790"/>
      <point x="442" y="810"/>
      <point x="415" y="834" type="curve" smooth="yes"/>
      <point x="387" y="859"/>
      <point x="373" y="894"/>
      <point x="373" y="941" type="curve" smooth="yes"/>
      <point x="373" y="1006"/>
      <point x="398" y="1062"/>
      <point x="449" y="1108" type="curve" smooth="yes"/>
      <point x="500" y="1154"/>
      <point x="564" y="1179"/>
      <point x="643" y="1184" type="curve"/>
    </contour>
    <contour>
      <point x="629" y="588" type="line"/>
      <point x="702" y="575"/>
      <point x="753" y="554"/>
      <point x="784" y="527" type="curve" smooth="yes"/>
      <point x="815" y="500"/>
      <point x="831" y="461"/>
      <point x="831" y="402" type="curve" smooth="yes"/>
      <point x="831" y="326"/>
      <point x="803" y="265"/>
      <point x="752" y="218" type="curve" smooth="yes"/>
      <point x="699" y="169"/>
      <point x="630" y="145"/>
      <point x="543" y="145" type="curve"/>
    </contour>
  </outline>
</glyph>
<glyph name="percent" format="1">
  <advance width="1233"/>
  <unicode hex="0025"/>
  <outline>
    <contour>
      <point x="351" y="793" type="curve" smooth="yes" name="dv05"/>
      <point x="260" y="793"/>
      <point x="181" y="828" name="dh01"/>
      <point x="125" y="884" type="curve" smooth="yes"/>
      <point x="65" y="944" name="dv02"/>
      <point x="33" y="1024"/>
      <point x="33" y="1112" type="curve" smooth="yes"/>
      <point x="33" y="1207"/>
      <point x="69" y="1285" name="dh04"/>
      <point x="125" y="1341" type="curve" smooth="yes"/>
      <point x="181" y="1397"/>
      <point x="260" y="1432" name="dv06"/>
      <point x="352" y="1432" type="curve" smooth="yes"/>
      <point x="395" y="1432" name="dh03"/>
      <point x="436" y="1424"/>
      <point x="475" y="1408" type="curve" smooth="yes" name="dv01"/>
      <point x="514" y="1392"/>
      <point x="548" y="1369" name="dh02"/>
      <point x="578" y="1339" type="curve" smooth="yes"/>
      <point x="609" y="1308"/>
      <point x="633" y="1272" name="sh01"/>
      <point x="648" y="1236" type="curve" smooth="yes" name="sh02"/>
      <point x="664" y="1197"/>
      <point x="672" y="1156" name="ih01"/>
      <point x="672" y="1113" type="curve" smooth="yes" name="ab01"/>
      <point x="672" y="1025"/>
      <point x="639" y="944" name="ih02"/>
      <point x="580" y="885" type="curve" smooth="yes"/>
      <point x="524" y="829" name="dv04"/>
      <point x="443" y="793"/>
    </contour>
    <contour>
      <point x="351" y="928" type="curve" smooth="yes"/>
      <point x="400" y="928" name="dh06"/>
      <point x="447" y="946"/>
      <point x="483" y="981" type="curve" smooth="yes"/>
      <point x="514" y="1012" name="sv01"/>
      <point x="537" y="1057"/>
      <point x="537" y="1113" type="curve" smooth="yes" name="dh05"/>
      <point x="537" y="1164"/>
      <point x="519" y="1207" name="dv03"/>
      <point x="483" y="1243" type="curve"/>
      <point x="446" y="1278" name="sh03"/>
      <point x="403" y="1296"/>
      <point x="353" y="1296" type="curve" smooth="yes"/>
      <point x="302" y="1296"/>
      <point x="258" y="1279" name="sh04"/>
      <point x="222" y="1244" type="curve" smooth="yes"/>
      <point x="189" y="1212"/>
      <point x="168" y="1165"/>
      <point x="168" y="1112" type="curve" smooth="yes"/>
      <point x="168" y="1059"/>
      <point x="186" y="1015"/>
      <point x="221" y="980" type="curve" smooth="yes"/>
      <point x="250" y="951"/>
      <point x="295" y="928"/>
    </contour>
    <contour>
      <point x="42" y="560" type="line"/>
      <point x="1192" y="996" type="line"/>
      <point x="1192" y="883" type="line"/>
      <point x="42" y="453" type="line"/>
    </contour>
    <contour>
      <point x="879" y="0" type="curve" smooth="yes"/>
      <point x="788" y="0"/>
      <point x="712" y="31"/>
      <point x="651" y="92" type="curve" smooth="yes"/>
      <point x="591" y="153"/>
      <point x="561" y="231"/>
      <point x="561" y="318" type="curve" smooth="yes"/>
      <point x="561" y="413"/>
      <point x="597" y="492"/>
      <point x="653" y="548" type="curve" smooth="yes"/>
      <point x="709" y="604"/>
      <point x="787" y="639"/>
      <point x="879" y="639" type="curve" smooth="yes"/>
      <point x="923" y="639"/>
      <point x="962" y="631"/>
      <point x="1001" y="615" type="curve" smooth="yes"/>
      <point x="1039" y="599"/>
      <point x="1073" y="576"/>
      <point x="1104" y="545" type="curve" smooth="yes" name="hr01"/>
      <point x="1137" y="512"/>
      <point x="1160" y="475"/>
      <point x="1175" y="440" type="curve" smooth="yes"/>
      <point x="1192" y="402"/>
      <point x="1200" y="362"/>
      <point x="1200" y="319" type="curve" smooth="yes"/>
      <point x="1200" y="235"/>
      <point x="1171" y="156"/>
      <point x="1107" y="92" type="curve"/>
      <point x="1044" y="31"/>
      <point x="967" y="0"/>
    </contour>
    <contour>
      <point x="879" y="135" type="curve" smooth="yes"/>
      <point x="930" y="135"/>
      <point x="974" y="153"/>
      <point x="1010" y="189" type="curve" smooth="yes"/>
      <point x="1045" y="224"/>
      <point x="1063" y="268"/>
      <point x="1063" y="319" type="curve" smooth="yes"/>
      <point x="1063" y="370"/>
      <point x="1045" y="414"/>
      <point x="1009" y="450" type="curve" smooth="yes"/>
      <point x="973" y="486"/>
      <point x="930" y="504"/>
      <point x="879" y="504" type="curve" smooth="yes"/>
      <point x="828" y="504"/>
      <point x="784" y="486"/>
      <point x="749" y="451" type="curve" smooth="yes"/>
      <point x="714" y="416"/>
      <point x="696" y="372"/>
      <point x="696" y="319" type="curve" smooth="yes"/>
      <point x="696" y="267"/>
      <point x="714" y="223"/>
      <point x="749" y="188" type="curve" smooth="yes"/>
      <point x="784" y="153"/>
      <point x="828" y="135"/>
    </contour>
  </outline>
</glyph>
<glyph name="ampersand" format="1">
  <advance width="1233"/>
  <unicode hex="0026"/>
  <outline>
    <contour>
      <point x="408" y="-29" type="curve" smooth="yes" name="dv01"/>
      <point x="283" y="-29"/>
      <point x="173" y="7" name="sh01"/>
      <point x="96" y="78" type="curve"/>
      <point x="20" y="146"/>
      <point x="-20" y="242"/>
      <point x="-20" y="362" type="curve" smooth="yes" name="ah02"/>
      <point x="-20" y="470"/>
      <point x="14" y="578" name="at01"/>
      <point x="79" y="673" type="curve" smooth="yes" name="at02"/>
      <point x="144" y="768"/>
      <point x="242" y="851" name="iv01"/>
      <point x="367" y="920" type="curve"/>
      <point x="344" y="963" name="sv01"/>
      <point x="335" y="989"/>
      <point x="324" y="1026" type="curve" name="sh02"/>
      <point x="315" y="1061"/>
      <point x="309" y="1092"/>
      <point x="309" y="1135" type="curve" smooth="yes" name="iv02"/>
      <point x="309" y="1247"/>
      <point x="349" y="1345"/>
      <point x="432" y="1416" type="curve" smooth="yes"/>
      <point x="512" y="1484"/>
      <point x="626" y="1520"/>
      <point x="761" y="1520" type="curve" smooth="yes" name="ab01"/>
      <point x="805" y="1520"/>
      <point x="848" y="1516"/>
      <point x="889" y="1508" type="curve" smooth="yes" name="ab02"/>
      <point x="929" y="1500"/>
      <point x="969" y="1488" name="dv02"/>
      <point x="1008" y="1473" type="curve"/>
      <point x="973" y="1290" type="line" name="hr01"/>
      <point x="945" y="1315"/>
      <point x="911" y="1334"/>
      <point x="870" y="1347" type="curve" smooth="yes" name="sh03"/>
      <point x="829" y="1360"/>
      <point x="782" y="1366"/>
      <point x="738" y="1366" type="curve" smooth="yes" name="ah01"/>
      <point x="658" y="1366"/>
      <point x="596" y="1347"/>
      <point x="551" y="1309" type="curve" smooth="yes"/>
      <point x="506" y="1270"/>
      <point x="483" y="1217"/>
      <point x="483" y="1157" type="curve" smooth="yes"/>
      <point x="483" y="1126"/>
      <point x="489" y="1092"/>
      <point x="505" y="1045" type="curve" smooth="yes"/>
      <point x="520" y="1002"/>
      <point x="536" y="962"/>
      <point x="567" y="907" type="curve" smooth="yes"/>
      <point x="874" y="350" type="line"/>
      <point x="915" y="394"/>
      <point x="948" y="450"/>
      <point x="973" y="519" type="curve" smooth="yes"/>
      <point x="998" y="588"/>
      <point x="1014" y="665"/>
      <point x="1022" y="760" type="curve"/>
      <point x="1190" y="760" type="line"/>
      <point x="1179" y="647"/>
      <point x="1155" y="550"/>
      <point x="1112" y="458" type="curve" smooth="yes"/>
      <point x="1071" y="368"/>
      <point x="1015" y="289"/>
      <point x="944" y="221" type="curve"/>
      <point x="1067" y="0" type="line"/>
      <point x="868" y="0" type="line"/>
      <point x="809" y="113" type="line"/>
      <point x="744" y="65"/>
      <point x="686" y="32"/>
      <point x="614" y="7" type="curve" smooth="yes"/>
      <point x="547" y="-17"/>
      <point x="478" y="-29"/>
    </contour>
    <contour>
      <point x="456" y="129" type="curve" smooth="yes"/>
      <point x="504" y="129"/>
      <point x="548" y="139"/>
      <point x="597" y="158" type="curve" smooth="yes"/>
      <point x="644" y="177"/>
      <point x="690" y="201"/>
      <point x="741" y="240" type="curve"/>
      <point x="432" y="795" type="line"/>
      <point x="342" y="746"/>
      <point x="274" y="689"/>
      <point x="228" y="624" type="curve" smooth="yes"/>
      <point x="181" y="557"/>
      <point x="158" y="483"/>
      <point x="158" y="411" type="curve" smooth="yes"/>
      <point x="158" y="324"/>
      <point x="191" y="257"/>
      <point x="243" y="209" type="curve" smooth="yes"/>
      <point x="298" y="158"/>
      <point x="372" y="129"/>
    </contour>
  </outline>
</glyph>
<glyph name="parenleft" format="1">
  <advance width="1233"/>
  <unicode hex="0028"/>
  <outline>
    <contour>
      <point x="426" y="-270" type="line" name="av01"/>
      <point x="373" y="-143"/>
      <point x="335" y="-29" name="dh01"/>
      <point x="310" y="76" type="curve" smooth="yes"/>
      <point x="285" y="181" name="at01"/>
      <point x="273" y="277"/>
      <point x="273" y="381" type="curve" smooth="yes"/>
      <point x="273" y="576" name="dh02"/>
      <point x="315" y="777"/>
      <point x="402" y="978" type="curve" smooth="yes" name="av02"/>
      <point x="486" y="1174"/>
      <point x="612" y="1366"/>
      <point x="783" y="1554" type="curve"/>
      <point x="942" y="1554" type="line"/>
      <point x="785" y="1351"/>
      <point x="668" y="1156"/>
      <point x="587" y="948" type="curve" smooth="yes"/>
      <point x="507" y="744"/>
      <point x="467" y="541"/>
      <point x="467" y="340" type="curve" smooth="yes"/>
      <point x="467" y="235"/>
      <point x="478" y="142"/>
      <point x="497" y="43" type="curve" smooth="yes"/>
      <point x="518" y="-65"/>
      <point x="546" y="-162"/>
      <point x="586" y="-270" type="curve"/>
    </contour>
  </outline>
</glyph>
<glyph name="comma" format="1">
  <advance width="1233"/>
  <unicode hex="002C"/>
  <outline>
    <contour>
      <point x="400" y="-283" type="line"/>
      <point x="563" y="-210" name="sh01"/>
      <point x="647" y="-99" name="dv01"/>
      <point x="652" y="51" type="curve"/>
      <point x="636" y="48" name="dh01"/>
      <point x="624" y="47"/>
      <point x="612" y="47" type="curve" smooth="yes" name="dv02"/>
      <point x="569" y="47"/>
      <point x="531" y="59" name="dh02"/>
      <point x="502" y="86" type="curve" smooth="yes"/>
      <point x="473" y="112" name="av01"/>
      <point x="458" y="149"/>
      <point x="458" y="197" type="curve" smooth="yes"/>
      <point x="458" y="244"/>
      <point x="473" y="281"/>
      <point x="504" y="308" type="curve" smooth="yes"/>
      <point x="531" y="332"/>
      <point x="568" y="349"/>
      <point x="619" y="349" type="curve" smooth="yes"/>
      <point x="676" y="349"/>
      <point x="721" y="326"/>
      <point x="752" y="281" type="curve" smooth="yes"/>
      <point x="783" y="236"/>
      <point x="798" y="174"/>
      <point x="798" y="93" type="curve" smooth="yes"/>
      <point x="798" y="-21"/>
      <point x="767" y="-119"/>
      <point x="706" y="-202" type="curve" smooth="yes" name="hr01"/>
      <point x="645" y="-284"/>
      <point x="558" y="-346"/>
      <point x="446" y="-387" type="curve"/>
    </contour>
  </outline>
</glyph>
<glyph name="one" format="1">
  <advance width="1233"/>
  <unicode hex="0031"/>
  <outline>
    <contour>
      <point x="156" y="170" type="line" name="sv01"/>
      <point x="469" y="170" type="line"/>
      <point x="690" y="1311" type="line" name="iv01"/>
      <point x="338" y="1235" type="line" name="iv02"/>
      <point x="373" y="1419" type="line"/>
      <point x="725" y="1493" type="line" name="at01"/>
      <point x="928" y="1493" type="line"/>
      <point x="670" y="170" type="line" name="sv02"/>
      <point x="979" y="170" type="line" name="sv03"/>
      <point x="946" y="0" type="line" name="ab01"/>
      <point x="123" y="0" type="line"/>
    </contour>
  </outline>
</glyph>
<glyph name="two" format="1">
  <advance width="1233"/>
  <unicode hex="0032"/>
  <outline>
    <contour>
      <point x="32" y="136" type="line" smooth="yes" name="hr00"/>
      <point x="37" y="163"/>
      <point x="48" y="178"/>
      <point x="65" y="193" type="curve" smooth="yes"/>
      <point x="350" y="444" type="line" name="dh01"/>
      <point x="389" y="479" type="line" smooth="yes"/>
      <point x="738" y="791" name="sv01"/>
      <point x="926" y="1002"/>
      <point x="926" y="1160" type="curve" smooth="yes" name="iv01"/>
      <point x="926" y="1216"/>
      <point x="903" y="1264"/>
      <point x="862" y="1299" type="curve" smooth="yes" name="at01"/>
      <point x="821" y="1334"/>
      <point x="761" y="1352" name="dh02"/>
      <point x="684" y="1352" type="curve" smooth="yes"/>
      <point x="620" y="1352"/>
      <point x="550" y="1339"/>
      <point x="486" y="1319" type="curve" smooth="yes"/>
      <point x="419" y="1298" name="sv02"/>
      <point x="338" y="1262"/>
      <point x="254" y="1217" type="curve" name="sh01"/>
      <point x="295" y="1421" type="line"/>
      <point x="375" y="1456"/>
      <point x="449" y="1480" name="sh02"/>
      <point x="512" y="1495" type="curve" smooth="yes"/>
      <point x="588" y="1514"/>
      <point x="652" y="1520"/>
      <point x="709" y="1520" type="curve" smooth="yes"/>
      <point x="838" y="1520"/>
      <point x="941" y="1485"/>
      <point x="1013" y="1424" type="curve" smooth="yes"/>
      <point x="1085" y="1363"/>
      <point x="1126" y="1275"/>
      <point x="1126" y="1163" type="curve" smooth="yes"/>
      <point x="1126" y="1107"/>
      <point x="1117" y="1053"/>
      <point x="1090" y="989" type="curve" smooth="yes"/>
      <point x="1063" y="924"/>
      <point x="1024" y="861"/>
      <point x="973" y="799" type="curve" smooth="yes"/>
      <point x="949" y="770"/>
      <point x="920" y="739"/>
      <point x="854" y="678" type="curve" smooth="yes"/>
      <point x="722" y="555"/>
      <point x="623" y="472"/>
      <point x="588" y="444" type="curve"/>
      <point x="258" y="170" type="line"/>
      <point x="952" y="170" type="line"/>
      <point x="920" y="0" type="line"/>
      <point x="6" y="0" type="line"/>
    </contour>
  </outline>
</glyph>
<glyph name="three" format="1">
  <advance width="1233"/>
  <unicode hex="0033"/>
  <outline>
    <contour>
      <point x="383" y="-29" type="curve" smooth="yes" name="dv01"/>
      <point x="307" y="-29"/>
      <point x="247" y="-22"/>
      <point x="179" y="-10" type="curve" smooth="yes"/>
      <point x="107" y="3"/>
      <point x="51" y="18" name="dv02"/>
      <point x="-18" y="45" type="curve"/>
      <point x="20" y="246" type="line" name="dh01"/>
      <point x="85" y="209"/>
      <point x="141" y="187" name="dv03"/>
      <point x="206" y="168" type="curve" smooth="yes"/>
      <point x="271" y="149"/>
      <point x="331" y="141" name="dv04"/>
      <point x="398" y="141" type="curve" smooth="yes"/>
      <point x="526" y="141" name="ih01"/>
      <point x="620" y="174"/>
      <point x="693" y="235" type="curve" smooth="yes" name="sv01"/>
      <point x="766" y="296"/>
      <point x="805" y="375"/>
      <point x="805" y="475" type="curve" smooth="yes"/>
      <point x="805" y="558"/>
      <point x="779" y="616" name="at01"/>
      <point x="734" y="655" type="curve" smooth="yes"/>
      <point x="687" y="695" name="sh01"/>
      <point x="617" y="715"/>
      <point x="524" y="715" type="curve" smooth="yes" name="iv01"/>
      <point x="371" y="715" type="line"/>
      <point x="403" y="881" type="line" name="dh02"/>
      <point x="557" y="881" type="line" smooth="yes"/>
      <point x="658" y="881"/>
      <point x="745" y="906"/>
      <point x="808" y="955" type="curve" smooth="yes" name="sh02"/>
      <point x="868" y="1002"/>
      <point x="901" y="1070"/>
      <point x="901" y="1157" type="curve" smooth="yes"/>
      <point x="901" y="1228"/>
      <point x="878" y="1274"/>
      <point x="839" y="1303" type="curve" smooth="yes"/>
      <point x="798" y="1334"/>
      <point x="735" y="1350"/>
      <point x="650" y="1350" type="curve" smooth="yes"/>
      <point x="593" y="1350"/>
      <point x="535" y="1343"/>
      <point x="470" y="1330" type="curve" smooth="yes"/>
      <point x="395" y="1315"/>
      <point x="337" y="1297"/>
      <point x="260" y="1270" type="curve"/>
      <point x="297" y="1456" type="line"/>
      <point x="372" y="1475"/>
      <point x="461" y="1497"/>
      <point x="517" y="1505" type="curve" smooth="yes"/>
      <point x="573" y="1514"/>
      <point x="641" y="1520"/>
      <point x="697" y="1520" type="curve" smooth="yes"/>
      <point x="821" y="1520"/>
      <point x="922" y="1492"/>
      <point x="994" y="1433" type="curve" smooth="yes" name="hr02"/>
      <point x="1063" y="1377"/>
      <point x="1102" y="1295"/>
      <point x="1102" y="1187" type="curve" smooth="yes"/>
      <point x="1102" y="1091"/>
      <point x="1073" y="1005"/>
      <point x="1013" y="936" type="curve" smooth="yes"/>
      <point x="957" y="871"/>
      <point x="875" y="822"/>
      <point x="762" y="799" type="curve"/>
      <point x="837" y="786"/>
      <point x="897" y="752"/>
      <point x="940" y="697" type="curve" smooth="yes"/>
      <point x="983" y="641"/>
      <point x="1004" y="576"/>
      <point x="1004" y="484" type="curve" smooth="yes"/>
      <point x="1004" y="335"/>
      <point x="949" y="209"/>
      <point x="837" y="113" type="curve" smooth="yes"/>
      <point x="728" y="20"/>
      <point x="583" y="-29"/>
    </contour>
  </outline>
</glyph>
<glyph name="four" format="1">
  <advance width="1233"/>
  <unicode hex="0034"/>
  <outline>
    <contour>
      <point x="659" y="356" type="line" name="dv01"/>
      <point x="25" y="356" type="line"/>
      <point x="61" y="547" type="line"/>
      <point x="846" y="1493" type="line" name="at01"/>
      <point x="1079" y="1493" type="line"/>
      <point x="889" y="520" type="line" name="sv01"/>
      <point x="1087" y="520" type="line"/>
      <point x="1057" y="356" type="line" name="sv02"/>
      <point x="858" y="356" type="line"/>
      <point x="788" y="0" type="line" name="ab01"/>
      <point x="590" y="0" type="line"/>
    </contour>
    <contour>
      <point x="690" y="520" type="line" name="dv02"/>
      <point x="842" y="1282" type="line"/>
      <point x="217" y="520" type="line"/>
    </contour>
  </outline>
</glyph>
<glyph name="six" format="1">
  <advance width="1233"/>
  <unicode hex="0036"/>
  <outline>
    <contour>
      <point x="515" y="-29" type="curve" smooth="yes" name="dv01"/>
      <point x="391" y="-29"/>
      <point x="279" y="7" name="sh01"/>
      <point x="202" y="87" type="curve" smooth="yes"/>
      <point x="130" y="162"/>
      <point x="92" y="274"/>
      <point x="92" y="433" type="curve" smooth="yes" name="sh02"/>
      <point x="92" y="525"/>
      <point x="104" y="645"/>
      <point x="131" y="765" type="curve" smooth="yes"/>
      <point x="156" y="881"/>
      <point x="195" y="999" name="sv01"/>
      <point x="238" y="1091" type="curve" smooth="yes"/>
      <point x="306" y="1239" name="ih01"/>
      <point x="392" y="1345"/>
      <point x="489" y="1413" type="curve" smooth="yes" name="dv04"/>
      <point x="590" y="1484"/>
      <point x="709" y="1520" name="sh03"/>
      <point x="846" y="1520" type="curve" smooth="yes"/>
      <point x="897" y="1520"/>
      <point x="949" y="1516"/>
      <point x="994" y="1505" type="curve" smooth="yes"/>
      <point x="1035" y="1496" name="dv02"/>
      <point x="1085" y="1479"/>
      <point x="1128" y="1460" type="curve" name="ah02"/>
      <point x="1092" y="1274" type="line"/>
      <point x="1053" y="1299" name="dv03"/>
      <point x="1011" y="1318"/>
      <point x="966" y="1331" type="curve" smooth="yes" name="sh04"/>
      <point x="921" y="1344"/>
      <point x="872" y="1350"/>
      <point x="825" y="1350" type="curve" smooth="yes" name="ah01"/>
      <point x="692" y="1350" name="sh05"/>
      <point x="589" y="1303"/>
      <point x="505" y="1207" type="curve" smooth="yes"/>
      <point x="422" y="1112"/>
      <point x="361" y="969"/>
      <point x="324" y="780" type="curve"/>
      <point x="372" y="852"/>
      <point x="423" y="900"/>
      <point x="486" y="935" type="curve" smooth="yes"/>
      <point x="549" y="970"/>
      <point x="615" y="987"/>
      <point x="696" y="987" type="curve" smooth="yes"/>
      <point x="813" y="987"/>
      <point x="906" y="952"/>
      <point x="967" y="888" type="curve"/>
      <point x="1034" y="820"/>
      <point x="1063" y="723"/>
      <point x="1063" y="603" type="curve" smooth="yes"/>
      <point x="1063" y="531"/>
      <point x="1052" y="453"/>
      <point x="1023" y="366" type="curve" smooth="yes"/>
      <point x="995" y="282"/>
      <point x="959" y="220"/>
      <point x="915" y="164" type="curve" smooth="yes"/>
      <point x="864" y="99"/>
      <point x="805" y="51"/>
      <point x="738" y="19" type="curve" smooth="yes"/>
      <point x="675" y="-12"/>
      <point x="603" y="-29"/>
    </contour>
    <contour>
      <point x="521" y="129" type="curve" smooth="yes"/>
      <point x="610" y="129"/>
      <point x="697" y="171"/>
      <point x="764" y="263" type="curve" smooth="yes"/>
      <point x="827" y="351"/>
      <point x="860" y="466"/>
      <point x="860" y="583" type="curve" smooth="yes"/>
      <point x="860" y="666"/>
      <point x="843" y="726"/>
      <point x="802" y="769" type="curve" smooth="yes"/>
      <point x="763" y="809"/>
      <point x="704" y="829"/>
      <point x="639" y="829" type="curve" smooth="yes"/>
      <point x="539" y="829"/>
      <point x="454" y="783"/>
      <point x="391" y="703" type="curve" smooth="yes"/>
      <point x="326" y="619"/>
      <point x="293" y="507"/>
      <point x="293" y="394" type="curve" smooth="yes"/>
      <point x="293" y="306"/>
      <point x="313" y="243"/>
      <point x="353" y="198" type="curve" smooth="yes"/>
      <point x="396" y="151"/>
      <point x="457" y="129"/>
    </contour>
  </outline>
</glyph>
<glyph name="eight" format="1">
  <advance width="1233"/>
  <unicode hex="0038"/>
  <outline>
    <contour>
      <point x="483" y="-29" type="curve" smooth="yes" name="dv01"/>
      <point x="350" y="-29"/>
      <point x="239" y="5" name="dh01"/>
      <point x="159" y="73" type="curve"/>
      <point x="87" y="136" name="ih02"/>
      <point x="41" y="229"/>
      <point x="41" y="354" type="curve" smooth="yes" name="ih03"/>
      <point x="41" y="470"/>
      <point x="81" y="566" name="at01"/>
      <point x="146" y="639" type="curve" smooth="yes"/>
      <point x="211" y="712" name="sh01"/>
      <point x="306" y="768"/>
      <point x="430" y="793" type="curve" name="ih04"/>
      <point x="354" y="820"/>
      <point x="304" y="857" name="dh04"/>
      <point x="269" y="904" type="curve" smooth="yes"/>
      <point x="230" y="955"/>
      <point x="215" y="1014" name="dv04"/>
      <point x="215" y="1081" type="curve" smooth="yes"/>
      <point x="215" y="1201" name="ih01"/>
      <point x="267" y="1312"/>
      <point x="362" y="1393" type="curve" smooth="yes" name="sv01"/>
      <point x="462" y="1478"/>
      <point x="591" y="1520" name="sh02"/>
      <point x="726" y="1520" type="curve" smooth="yes"/>
      <point x="842" y="1520"/>
      <point x="942" y="1490" name="dv02"/>
      <point x="1015" y="1430" type="curve" smooth="yes"/>
      <point x="1084" y="1374" name="dh03"/>
      <point x="1126" y="1294"/>
      <point x="1126" y="1191" type="curve" smooth="yes" name="dv03"/>
      <point x="1126" y="1098"/>
      <point x="1092" y="1008" name="dh02"/>
      <point x="1029" y="936" type="curve" smooth="yes" name="hr01"/>
      <point x="966" y="864"/>
      <point x="876" y="807"/>
      <point x="772" y="782" type="curve" name="sh03"/>
      <point x="855" y="762"/>
      <point x="919" y="724"/>
      <point x="962" y="669" type="curve" smooth="yes"/>
      <point x="1005" y="613"/>
      <point x="1026" y="542"/>
      <point x="1026" y="455" type="curve" smooth="yes"/>
      <point x="1026" y="318"/>
      <point x="974" y="195"/>
      <point x="875" y="107" type="curve" smooth="yes"/>
      <point x="779" y="20"/>
      <point x="644" y="-29"/>
    </contour>
    <contour>
      <point x="634" y="866" type="curve" smooth="yes"/>
      <point x="717" y="866"/>
      <point x="786" y="895"/>
      <point x="842" y="953" type="curve" smooth="yes"/>
      <point x="898" y="1012"/>
      <point x="926" y="1083"/>
      <point x="926" y="1162" type="curve" smooth="yes"/>
      <point x="926" y="1229"/>
      <point x="906" y="1274"/>
      <point x="866" y="1310" type="curve" smooth="yes" name="hr02"/>
      <point x="826" y="1346"/>
      <point x="773" y="1364"/>
      <point x="706" y="1364" type="curve" smooth="yes"/>
      <point x="618" y="1364"/>
      <point x="549" y="1335"/>
      <point x="498" y="1284" type="curve" smooth="yes"/>
      <point x="443" y="1230"/>
      <point x="416" y="1162"/>
      <point x="416" y="1081" type="curve" smooth="yes"/>
      <point x="416" y="1014"/>
      <point x="436" y="961"/>
      <point x="475" y="923" type="curve" smooth="yes" name="hr03"/>
      <point x="514" y="885"/>
      <point x="567" y="866"/>
    </contour>
    <contour>
      <point x="494" y="127" type="curve" smooth="yes"/>
      <point x="590" y="127"/>
      <point x="671" y="159"/>
      <point x="731" y="219" type="curve" smooth="yes"/>
      <point x="791" y="280"/>
      <point x="821" y="362"/>
      <point x="821" y="458" type="curve" smooth="yes"/>
      <point x="821" y="541"/>
      <point x="799" y="599"/>
      <point x="755" y="643" type="curve" smooth="yes"/>
      <point x="711" y="687"/>
      <point x="650" y="709"/>
      <point x="572" y="709" type="curve" smooth="yes"/>
      <point x="476" y="709"/>
      <point x="398" y="676"/>
      <point x="338" y="611" type="curve" smooth="yes"/>
      <point x="277" y="544"/>
      <point x="246" y="459"/>
      <point x="246" y="364" type="curve" smooth="yes" name="hr04"/>
      <point x="246" y="284"/>
      <point x="268" y="233"/>
      <point x="313" y="190" type="curve" smooth="yes"/>
      <point x="358" y="147"/>
      <point x="415" y="127"/>
    </contour>
  </outline>
</glyph>
<glyph name="colon" format="1">
  <advance width="1233"/>
  <unicode hex="003A"/>
  <outline>
    <contour>
      <point x="728" y="776" type="curve" smooth="yes" name="dv01"/>
      <point x="691" y="776"/>
      <point x="658" y="788" name="ih01"/>
      <point x="631" y="817" type="curve" smooth="yes"/>
      <point x="603" y="848" name="dv02"/>
      <point x="595" y="884"/>
      <point x="595" y="923" type="curve" smooth="yes" name="sh01"/>
      <point x="595" y="975"/>
      <point x="616" y="1023"/>
      <point x="657" y="1060" type="curve" smooth="yes" name="ab01"/>
      <point x="693" y="1093"/>
      <point x="739" y="1114" name="dh01"/>
      <point x="790" y="1114" type="curve" smooth="yes"/>
      <point x="837" y="1114" name="sv01"/>
      <point x="867" y="1097"/>
      <point x="890" y="1073" type="curve" smooth="yes" name="dh02"/>
      <point x="911" y="1050"/>
      <point x="925" y="1016"/>
      <point x="925" y="973" type="curve" smooth="yes"/>
      <point x="925" y="922" name="sh02"/>
      <point x="907" y="869"/>
      <point x="864" y="830" type="curve" smooth="yes"/>
      <point x="824" y="793"/>
      <point x="772" y="776"/>
    </contour>
    <contour>
      <point x="617" y="60" type="curve" smooth="yes"/>
      <point x="574" y="60"/>
      <point x="539" y="75"/>
      <point x="516" y="102" type="curve" smooth="yes"/>
      <point x="492" y="129"/>
      <point x="482" y="166"/>
      <point x="482" y="203" type="curve" smooth="yes" name="hr01"/>
      <point x="482" y="255"/>
      <point x="501" y="306"/>
      <point x="544" y="345" type="curve" smooth="yes"/>
      <point x="579" y="377"/>
      <point x="626" y="398"/>
      <point x="677" y="398" type="curve" smooth="yes"/>
      <point x="714" y="398"/>
      <point x="750" y="388"/>
      <point x="777" y="357" type="curve" smooth="yes"/>
      <point x="798" y="334"/>
      <point x="812" y="301"/>
      <point x="812" y="254" type="curve" smooth="yes"/>
      <point x="812" y="199"/>
      <point x="791" y="152"/>
      <point x="750" y="114" type="curve" smooth="yes"/>
      <point x="713" y="79"/>
      <point x="666" y="60"/>
    </contour>
  </outline>
</glyph>
<glyph name="semicolon" format="1">
  <advance width="1233"/>
  <unicode hex="003B"/>
  <outline>
    <contour>
      <point x="723" y="713" type="curve" smooth="yes" name="dv01"/>
      <point x="676" y="713"/>
      <point x="638" y="730"/>
      <point x="611" y="763" type="curve" smooth="yes"/>
      <point x="590" y="788"/>
      <point x="579" y="819" name="dv02"/>
      <point x="579" y="856" type="curve" smooth="yes"/>
      <point x="579" y="868"/>
      <point x="580" y="880"/>
      <point x="583" y="892" type="curve"/>
      <point x="592" y="948"/>
      <point x="617" y="990"/>
      <point x="652" y="1019" type="curve" name="ab01"/>
      <point x="687" y="1050" name="ab02"/>
      <point x="732" y="1068"/>
      <point x="779" y="1068" type="curve" smooth="yes"/>
      <point x="826" y="1068"/>
      <point x="866" y="1051"/>
      <point x="893" y="1020" type="curve" smooth="yes"/>
      <point x="915" y="995" name="sv01"/>
      <point x="926" y="963"/>
      <point x="926" y="926" type="curve" smooth="yes"/>
      <point x="926" y="915"/>
      <point x="925" y="904"/>
      <point x="923" y="892" type="curve" smooth="yes" name="av01"/>
      <point x="913" y="839"/>
      <point x="889" y="796"/>
      <point x="852" y="763" type="curve" smooth="yes"/>
      <point x="817" y="732"/>
      <point x="774" y="713"/>
    </contour>
    <contour>
      <point x="339" y="-351" type="line"/>
      <point x="522" y="-275"/>
      <point x="629" y="-158"/>
      <point x="659" y="0" type="curve"/>
      <point x="640" y="-4"/>
      <point x="630" y="-5"/>
      <point x="617" y="-5" type="curve" smooth="yes"/>
      <point x="573" y="-5"/>
      <point x="535" y="9"/>
      <point x="508" y="36" type="curve" smooth="yes"/>
      <point x="488" y="57"/>
      <point x="478" y="85"/>
      <point x="478" y="120" type="curve" smooth="yes"/>
      <point x="478" y="129" type="line" smooth="yes"/>
      <point x="478" y="136"/>
      <point x="479" y="144"/>
      <point x="480" y="153" type="curve" smooth="yes"/>
      <point x="488" y="200"/>
      <point x="508" y="238"/>
      <point x="547" y="269" type="curve" smooth="yes"/>
      <point x="586" y="300"/>
      <point x="629" y="312"/>
      <point x="672" y="312" type="curve" smooth="yes"/>
      <point x="733" y="312"/>
      <point x="776" y="288"/>
      <point x="802" y="241" type="curve" smooth="yes"/>
      <point x="819" y="210"/>
      <point x="827" y="169"/>
      <point x="827" y="132" type="curve" smooth="yes"/>
      <point x="827" y="109"/>
      <point x="824" y="72"/>
      <point x="820" y="44" type="curve" smooth="yes"/>
      <point x="801" y="-79"/>
      <point x="750" y="-184"/>
      <point x="674" y="-267" type="curve" smooth="yes"/>
      <point x="599" y="-348"/>
      <point x="492" y="-419"/>
      <point x="371" y="-460" type="curve"/>
    </contour>
  </outline>
</glyph>
<glyph name="question" format="1">
  <advance width="1233"/>
  <unicode hex="003F"/>
  <outline>
    <contour>
      <point x="546" y="583" type="line" smooth="yes" name="hr00"/>
      <point x="554" y="635"/>
      <point x="572" y="684"/>
      <point x="599" y="729" type="curve" smooth="yes"/>
      <point x="627" y="776"/>
      <point x="666" y="819" name="sh01"/>
      <point x="738" y="880" type="curve" smooth="yes" name="ah02"/>
      <point x="842" y="969" type="line" smooth="yes"/>
      <point x="898" y="1016" name="dv03"/>
      <point x="925" y="1045"/>
      <point x="944" y="1072" type="curve" smooth="yes"/>
      <point x="965" y="1102" name="sh03"/>
      <point x="978" y="1133"/>
      <point x="983" y="1165" type="curve" smooth="yes" name="dv04"/>
      <point x="985" y="1177"/>
      <point x="986" y="1188" name="sh04"/>
      <point x="986" y="1199" type="curve" smooth="yes" name="sh05"/>
      <point x="986" y="1242"/>
      <point x="971" y="1280" name="sh06"/>
      <point x="940" y="1309" type="curve" smooth="yes"/>
      <point x="904" y="1344"/>
      <point x="848" y="1364"/>
      <point x="775" y="1364" type="curve" smooth="yes" name="sh08"/>
      <point x="722" y="1364"/>
      <point x="664" y="1353"/>
      <point x="602" y="1330" type="curve" smooth="yes" name="dv01"/>
      <point x="538" y="1307"/>
      <point x="471" y="1272" name="sh02"/>
      <point x="398" y="1227" type="curve"/>
      <point x="428" y="1415" type="line" name="dv02"/>
      <point x="493" y="1451"/>
      <point x="563" y="1481" name="sh07"/>
      <point x="631" y="1500" type="curve" smooth="yes"/>
      <point x="699" y="1519"/>
      <point x="766" y="1528" name="ah01"/>
      <point x="833" y="1528" type="curve" smooth="yes" name="sh09"/>
      <point x="954" y="1528"/>
      <point x="1049" y="1499"/>
      <point x="1116" y="1432" type="curve" smooth="yes"/>
      <point x="1164" y="1384"/>
      <point x="1192" y="1318"/>
      <point x="1192" y="1250" type="curve" smooth="yes"/>
      <point x="1192" y="1227"/>
      <point x="1189" y="1196"/>
      <point x="1186" y="1175" type="curve" smooth="yes"/>
      <point x="1179" y="1126"/>
      <point x="1162" y="1081"/>
      <point x="1130" y="1034" type="curve" smooth="yes"/>
      <point x="1095" y="983"/>
      <point x="1043" y="932"/>
      <point x="978" y="876" type="curve" smooth="yes"/>
      <point x="876" y="790" type="line" smooth="yes"/>
      <point x="819" y="742"/>
      <point x="788" y="709"/>
      <point x="771" y="682" type="curve" smooth="yes"/>
      <point x="756" y="659"/>
      <point x="743" y="626"/>
      <point x="739" y="599" type="curve" smooth="yes"/>
      <point x="731" y="552" type="line"/>
      <point x="719" y="472" type="line"/>
      <point x="529" y="472" type="line"/>
    </contour>
    <contour>
      <point x="542" y="-40" type="curve" smooth="yes"/>
      <point x="507" y="-40"/>
      <point x="478" y="-30"/>
      <point x="454" y="-3" type="curve" smooth="yes"/>
      <point x="429" y="26"/>
      <point x="421" y="58"/>
      <point x="421" y="93" type="curve" smooth="yes"/>
      <point x="421" y="146"/>
      <point x="444" y="187"/>
      <point x="476" y="216" type="curve" smooth="yes"/>
      <point x="508" y="245"/>
      <point x="552" y="264"/>
      <point x="596" y="264" type="curve" smooth="yes"/>
      <point x="627" y="264"/>
      <point x="663" y="254"/>
      <point x="687" y="227" type="curve" smooth="yes"/>
      <point x="707" y="204"/>
      <point x="718" y="171"/>
      <point x="718" y="134" type="curve" smooth="yes"/>
      <point x="718" y="89"/>
      <point x="701" y="44"/>
      <point x="664" y="9" type="curve" smooth="yes"/>
      <point x="633" y="-19"/>
      <point x="590" y="-40"/>
    </contour>
  </outline>
</glyph>
<glyph name="B" format="1">
  <advance width="1233"/>
  <unicode hex="0042"/>
  <outline>
    <contour>
      <point x="313" y="1493" type="line" name="at01"/>
      <point x="756" y="1493" type="line" smooth="yes"/>
      <point x="892" y="1493"/>
      <point x="994" y="1467" name="sh01"/>
      <point x="1063" y="1414" type="curve" smooth="yes"/>
      <point x="1132" y="1361" name="iv01"/>
      <point x="1167" y="1285"/>
      <point x="1167" y="1178" type="curve" smooth="yes" name="dh02"/>
      <point x="1167" y="1077"/>
      <point x="1136" y="992" name="ab01"/>
      <point x="1075" y="923" type="curve" smooth="yes"/>
      <point x="1014" y="853" name="dv02"/>
      <point x="931" y="812"/>
      <point x="827" y="799" type="curve" name="ih01"/>
      <point x="910" y="784"/>
      <point x="974" y="750" name="sv01"/>
      <point x="1019" y="697" type="curve" smooth="yes"/>
      <point x="1064" y="644"/>
      <point x="1085" y="578" name="sv02"/>
      <point x="1085" y="486" type="curve" smooth="yes"/>
      <point x="1085" y="341" name="dh01"/>
      <point x="1033" y="218"/>
      <point x="926" y="130" type="curve" smooth="yes" name="dv01"/>
      <point x="820" y="43"/>
      <point x="670" y="0"/>
      <point x="475" y="0" type="curve" smooth="yes"/>
      <point x="23" y="0" type="line" name="sh02"/>
    </contour>
    <contour>
      <point x="639" y="877" type="line" smooth="yes" name="hr01"/>
      <point x="740" y="877"/>
      <point x="820" y="901"/>
      <point x="877" y="950" type="curve" smooth="yes"/>
      <point x="934" y="998"/>
      <point x="963" y="1064"/>
      <point x="963" y="1148" type="curve" smooth="yes"/>
      <point x="963" y="1211"/>
      <point x="945" y="1257"/>
      <point x="908" y="1285" type="curve" smooth="yes"/>
      <point x="871" y="1313"/>
      <point x="810" y="1327"/>
      <point x="727" y="1327" type="curve" smooth="yes"/>
      <point x="483" y="1327" type="line"/>
      <point x="395" y="877" type="line" name="hr02"/>
    </contour>
    <contour>
      <point x="506" y="166" type="line" smooth="yes"/>
      <point x="629" y="166"/>
      <point x="723" y="195"/>
      <point x="788" y="253" type="curve" smooth="yes"/>
      <point x="853" y="312"/>
      <point x="885" y="399"/>
      <point x="885" y="496" type="curve" smooth="yes"/>
      <point x="885" y="580"/>
      <point x="862" y="627"/>
      <point x="817" y="662" type="curve" smooth="yes" name="hr03"/>
      <point x="772" y="696"/>
      <point x="701" y="713"/>
      <point x="606" y="713" type="curve" smooth="yes"/>
      <point x="365" y="713" type="line"/>
      <point x="258" y="166" type="line"/>
    </contour>
  </outline>
</glyph>
<glyph name="F" format="1">
  <advance width="1233"/>
  <unicode hex="0046"/>
  <outline>
    <contour>
      <point x="383" y="1493" type="line" name="at01"/>
      <point x="1262" y="1493" type="line"/>
      <point x="1229" y="1323" type="line" name="sv01"/>
      <point x="553" y="1323" type="line"/>
      <point x="467" y="873" type="line"/>
      <point x="1079" y="873" type="line" name="dv02"/>
      <point x="1047" y="703" type="line" name="dv01"/>
      <point x="434" y="703" type="line"/>
      <point x="295" y="0" type="line" name="ab01"/>
      <point x="92" y="0" type="line"/>
    </contour>
  </outline>
</glyph>
<glyph name="G" format="1">
  <advance width="1233"/>
  <unicode hex="0047"/>
  <outline>
    <contour>
      <point x="564" y="-29" type="curve" smooth="yes" name="dv01"/>
      <point x="401" y="-29"/>
      <point x="283" y="18" name="dh01"/>
      <point x="202" y="106" type="curve" smooth="yes"/>
      <point x="118" y="198"/>
      <point x="78" y="327"/>
      <point x="78" y="488" type="curve" smooth="yes"/>
      <point x="78" y="551"/>
      <point x="84" y="613" name="at01"/>
      <point x="95" y="681" type="curve"/>
      <point x="106" y="742"/>
      <point x="123" y="825"/>
      <point x="143" y="893" type="curve" smooth="yes"/>
      <point x="166" y="969" name="sv01"/>
      <point x="194" y="1041"/>
      <point x="225" y="1105" type="curve" smooth="yes"/>
      <point x="258" y="1172"/>
      <point x="293" y="1223"/>
      <point x="328" y="1267" type="curve" smooth="yes"/>
      <point x="395" y="1350" name="dh02"/>
      <point x="475" y="1415"/>
      <point x="566" y="1458" type="curve" smooth="yes" name="dv02"/>
      <point x="653" y="1499"/>
      <point x="749" y="1520"/>
      <point x="854" y="1520" type="curve" smooth="yes"/>
      <point x="915" y="1520" name="dv03"/>
      <point x="967" y="1514" name="dv04"/>
      <point x="1020" y="1499" type="curve"/>
      <point x="1074" y="1485"/>
      <point x="1126" y="1465"/>
      <point x="1176" y="1438" type="curve"/>
      <point x="1135" y="1231" type="line"/>
      <point x="1088" y="1276"/>
      <point x="1040" y="1306"/>
      <point x="999" y="1325" type="curve" smooth="yes"/>
      <point x="952" y="1346"/>
      <point x="901" y="1356"/>
      <point x="846" y="1356" type="curve" smooth="yes"/>
      <point x="779" y="1356"/>
      <point x="717" y="1342"/>
      <point x="662" y="1315" type="curve" smooth="yes"/>
      <point x="606" y="1288"/>
      <point x="551" y="1244"/>
      <point x="508" y="1192" type="curve" smooth="yes"/>
      <point x="478" y="1156"/>
      <point x="450" y="1113"/>
      <point x="425" y="1062" type="curve" smooth="yes"/>
      <point x="397" y="1006"/>
      <point x="375" y="948"/>
      <point x="356" y="887" type="curve" smooth="yes"/>
      <point x="333" y="812"/>
      <point x="316" y="738"/>
      <point x="305" y="673" type="curve" smooth="yes"/>
      <point x="293" y="604"/>
      <point x="287" y="550"/>
      <point x="287" y="494" type="curve" smooth="yes"/>
      <point x="287" y="378"/>
      <point x="313" y="289"/>
      <point x="366" y="228" type="curve" smooth="yes"/>
      <point x="419" y="165"/>
      <point x="492" y="135"/>
      <point x="592" y="135" type="curve" smooth="yes"/>
      <point x="640" y="135"/>
      <point x="677" y="142"/>
      <point x="712" y="154" type="curve" smooth="yes"/>
      <point x="751" y="167"/>
      <point x="778" y="184"/>
      <point x="803" y="207" type="curve"/>
      <point x="879" y="600" type="line"/>
      <point x="662" y="600" type="line"/>
      <point x="692" y="766" type="line"/>
      <point x="1102" y="766" type="line"/>
      <point x="969" y="96" type="line"/>
      <point x="912" y="55"/>
      <point x="848" y="24"/>
      <point x="779" y="3" type="curve" smooth="yes"/>
      <point x="711" y="-18"/>
      <point x="643" y="-29"/>
    </contour>
  </outline>
</glyph>
<glyph name="I" format="1">
  <advance width="1233"/>
  <unicode hex="0049"/>
  <outline>
    <contour>
      <point x="90" y="170" type="line" name="sv01"/>
      <point x="403" y="170" type="line"/>
      <point x="627" y="1323" type="line" name="sv02"/>
      <point x="313" y="1323" type="line"/>
      <point x="346" y="1493" type="line" name="at01"/>
      <point x="1176" y="1493" type="line"/>
      <point x="1143" y="1323" type="line" name="sv03"/>
      <point x="829" y="1323" type="line" name="sv04"/>
      <point x="606" y="170" type="line" name="sv05"/>
      <point x="920" y="170" type="line" name="sv06"/>
      <point x="887" y="0" type="line" name="ab01"/>
      <point x="57" y="0" type="line"/>
    </contour>
  </outline>
</glyph>
<glyph name="L" format="1">
  <advance width="1233"/>
  <unicode hex="004C"/>
  <outline>
    <contour>
      <point x="369" y="1493" type="line" name="at01"/>
      <point x="571" y="1493" type="line"/>
      <point x="313" y="170" type="line" name="sv01"/>
      <point x="1034" y="170" type="line"/>
      <point x="1001" y="0" type="line" name="ab01"/>
      <point x="78" y="0" type="line"/>
    </contour>
  </outline>
</glyph>
<glyph name="N" format="1">
  <advance width="1233"/>
  <unicode hex="004E"/>
  <outline>
    <contour>
      <point x="285" y="1493" type="line" name="at01"/>
      <point x="541" y="1493" type="line"/>
      <point x="805" y="264" type="line" name="iv01"/>
      <point x="1044" y="1493" type="line" name="at02"/>
      <point x="1239" y="1493" type="line"/>
      <point x="948" y="0" type="line" name="ab01"/>
      <point x="692" y="0" type="line"/>
      <point x="428" y="1229" type="line" name="iv02"/>
      <point x="188" y="0" type="line" name="ab02"/>
      <point x="-6" y="0" type="line"/>
    </contour>
  </outline>
</glyph>
<glyph name="Q" format="1">
  <advance width="1233"/>
  <unicode hex="0051"/>
  <outline>
    <contour>
      <point x="504" y="-27" type="line" name="ab01"/>
      <point x="494" y="-27" type="line" smooth="yes"/>
      <point x="346" y="-27"/>
      <point x="248" y="13" name="sh01"/>
      <point x="181" y="93" type="curve" smooth="yes"/>
      <point x="114" y="173"/>
      <point x="82" y="293"/>
      <point x="82" y="472" type="curve" smooth="yes"/>
      <point x="82" y="560"/>
      <point x="89" y="628" name="at01"/>
      <point x="104" y="712" type="curve"/>
      <point x="117" y="794" name="sh02"/>
      <point x="134" y="866" name="sh03"/>
      <point x="168" y="975" type="curve" smooth="yes"/>
      <point x="189" y="1042"/>
      <point x="208" y="1090"/>
      <point x="231" y="1141" type="curve" smooth="yes"/>
      <point x="249" y="1180" name="ih01"/>
      <point x="279" y="1237" name="ih02"/>
      <point x="303" y="1272" type="curve" smooth="yes"/>
      <point x="354" y="1348" name="sv01"/>
      <point x="422" y="1417"/>
      <point x="501" y="1460" type="curve" smooth="yes"/>
      <point x="576" y="1501"/>
      <point x="657" y="1520" name="ah02"/>
      <point x="753" y="1520" type="curve" smooth="yes"/>
      <point x="889" y="1520" name="sv02"/>
      <point x="987" y="1481"/>
      <point x="1054" y="1397" type="curve" smooth="yes"/>
      <point x="1118" y="1317"/>
      <point x="1151" y="1196" name="sh04"/>
      <point x="1151" y="1029" type="curve" smooth="yes"/>
      <point x="1151" y="965"/>
      <point x="1146" y="902" name="ah01"/>
      <point x="1137" y="839" type="curve" smooth="yes" name="sh05"/>
      <point x="1128" y="776"/>
      <point x="1113" y="704"/>
      <point x="1094" y="629" type="curve" smooth="yes"/>
      <point x="1075" y="558"/>
      <point x="1052" y="482"/>
      <point x="1032" y="427" type="curve" smooth="yes"/>
      <point x="1011" y="370"/>
      <point x="986" y="315"/>
      <point x="963" y="274" type="curve" smooth="yes"/>
      <point x="934" y="222"/>
      <point x="894" y="163"/>
      <point x="839" y="111" type="curve" smooth="yes"/>
      <point x="798" y="71"/>
      <point x="747" y="33"/>
      <point x="690" y="10" type="curve"/>
      <point x="926" y="-270" type="line"/>
      <point x="690" y="-270" type="line"/>
    </contour>
    <contour>
      <point x="498" y="135" type="curve" smooth="yes"/>
      <point x="555" y="135"/>
      <point x="611" y="151"/>
      <point x="660" y="186" type="curve" smooth="yes"/>
      <point x="713" y="225"/>
      <point x="750" y="278"/>
      <point x="778" y="331" type="curve" smooth="yes"/>
      <point x="829" y="427"/>
      <point x="871" y="565"/>
      <point x="898" y="684" type="curve" smooth="yes"/>
      <point x="929" y="821"/>
      <point x="944" y="959"/>
      <point x="944" y="1067" type="curve" smooth="yes"/>
      <point x="944" y="1182"/>
      <point x="927" y="1245"/>
      <point x="892" y="1289" type="curve" smooth="yes"/>
      <point x="857" y="1332"/>
      <point x="805" y="1356"/>
      <point x="734" y="1356" type="curve" smooth="yes"/>
      <point x="675" y="1356"/>
      <point x="620" y="1340"/>
      <point x="572" y="1305" type="curve" smooth="yes"/>
      <point x="525" y="1270"/>
      <point x="486" y="1220"/>
      <point x="455" y="1160" type="curve" smooth="yes"/>
      <point x="408" y="1072"/>
      <point x="364" y="945"/>
      <point x="333" y="808" type="curve" smooth="yes"/>
      <point x="302" y="675"/>
      <point x="287" y="541"/>
      <point x="287" y="429" type="curve" smooth="yes"/>
      <point x="287" y="311"/>
      <point x="305" y="248"/>
      <point x="340" y="203" type="curve" smooth="yes"/>
      <point x="379" y="155"/>
      <point x="434" y="135"/>
    </contour>
  </outline>
</glyph>
<glyph name="R" format="1">
  <advance width="1233"/>
  <unicode hex="0052"/>
  <outline>
    <contour>
      <point x="281" y="1493" type="line" name="at01"/>
      <point x="697" y="1493" type="line" smooth="yes"/>
      <point x="834" y="1493"/>
      <point x="941" y="1463" name="dh02"/>
      <point x="1018" y="1404" type="curve" smooth="yes"/>
      <point x="1097" y="1343" name="iv01"/>
      <point x="1131" y="1257"/>
      <point x="1131" y="1144" type="curve" smooth="yes"/>
      <point x="1131" y="1032" name="ih01"/>
      <point x="1097" y="928"/>
      <point x="1028" y="848" type="curve" smooth="yes"/>
      <point x="960" y="769"/>
      <point x="867" y="720" name="dv01"/>
      <point x="746" y="705" type="curve"/>
      <point x="791" y="697" name="ab01"/>
      <point x="834" y="673"/>
      <point x="862" y="638" type="curve" smooth="yes" name="dv02"/>
      <point x="889" y="605"/>
      <point x="922" y="533" name="dh01"/>
      <point x="959" y="408" type="curve" smooth="yes"/>
      <point x="1080" y="0" type="line" name="sv01"/>
      <point x="879" y="0" type="line"/>
      <point x="773" y="377" type="line" smooth="yes"/>
      <point x="744" y="480"/>
      <point x="711" y="549" name="sh01"/>
      <point x="675" y="582" type="curve" smooth="yes"/>
      <point x="638" y="617"/>
      <point x="579" y="631"/>
      <point x="510" y="631" type="curve" smooth="yes"/>
      <point x="318" y="631" type="line"/>
      <point x="195" y="0" type="line"/>
      <point x="-8" y="0" type="line"/>
    </contour>
    <contour>
      <point x="570" y="797" type="line" smooth="yes"/>
      <point x="679" y="797"/>
      <point x="766" y="826"/>
      <point x="831" y="883" type="curve" smooth="yes"/>
      <point x="896" y="940"/>
      <point x="928" y="1015"/>
      <point x="928" y="1109" type="curve" smooth="yes"/>
      <point x="928" y="1184"/>
      <point x="907" y="1240"/>
      <point x="865" y="1275" type="curve" smooth="yes"/>
      <point x="824" y="1310"/>
      <point x="757" y="1327"/>
      <point x="666" y="1327" type="curve" smooth="yes"/>
      <point x="453" y="1327" type="line"/>
      <point x="351" y="797" type="line"/>
    </contour>
  </outline>
</glyph>
<glyph name="U" format="1">
  <advance width="1233"/>
  <unicode hex="0055"/>
  <outline>
    <contour>
      <point x="477" y="-29" type="curve" smooth="yes" name="dv01"/>
      <point x="350" y="-29"/>
      <point x="253" y="1" name="dh01"/>
      <point x="184" y="61" type="curve" smooth="yes"/>
      <point x="115" y="121"/>
      <point x="80" y="206" name="at01"/>
      <point x="80" y="315" type="curve" smooth="yes"/>
      <point x="80" y="347"/>
      <point x="82" y="372"/>
      <point x="89" y="417" type="curve" name="dh02"/>
      <point x="97" y="477"/>
      <point x="102" y="506" name="dv02"/>
      <point x="115" y="573" type="curve" smooth="yes"/>
      <point x="293" y="1493" type="line"/>
      <point x="496" y="1493" type="line"/>
      <point x="317" y="573" type="line"/>
      <point x="316" y="564" name="at02"/>
      <point x="313" y="551"/>
      <point x="309" y="532" type="curve" smooth="yes"/>
      <point x="289" y="433"/>
      <point x="279" y="353"/>
      <point x="279" y="313" type="curve" smooth="yes"/>
      <point x="279" y="256"/>
      <point x="299" y="210"/>
      <point x="334" y="181" type="curve"/>
      <point x="369" y="150"/>
      <point x="425" y="135"/>
      <point x="501" y="135" type="curve" smooth="yes"/>
      <point x="561" y="135"/>
      <point x="605" y="144"/>
      <point x="649" y="165" type="curve" smooth="yes"/>
      <point x="693" y="186"/>
      <point x="729" y="215"/>
      <point x="756" y="254" type="curve" smooth="yes"/>
      <point x="771" y="275"/>
      <point x="784" y="302"/>
      <point x="801" y="361" type="curve" smooth="yes"/>
      <point x="816" y="409"/>
      <point x="831" y="481"/>
      <point x="850" y="573" type="curve"/>
      <point x="1028" y="1493" type="line"/>
      <point x="1231" y="1493" type="line"/>
      <point x="1053" y="573" type="line"/>
      <point x="1021" y="402"/>
      <point x="991" y="314"/>
      <point x="964" y="253" type="curve" smooth="yes"/>
      <point x="931" y="181"/>
      <point x="890" y="129"/>
      <point x="838" y="86" type="curve" smooth="yes"/>
      <point x="791" y="47"/>
      <point x="733" y="20"/>
      <point x="676" y="1" type="curve" smooth="yes"/>
      <point x="615" y="-19"/>
      <point x="548" y="-29"/>
    </contour>
  </outline>
</glyph>
<glyph name="a" format="1">
  <advance width="1233"/>
  <unicode hex="0061"/>
  <outline>
    <contour>
      <point x="407" y="-29" type="curve" smooth="yes" name="dv01"/>
      <point x="308" y="-29"/>
      <point x="225" y="-2" name="dh01"/>
      <point x="164" y="54" type="curve" smooth="yes"/>
      <point x="100" y="111"/>
      <point x="72" y="188" name="dv04"/>
      <point x="72" y="280" type="curve" smooth="yes"/>
      <point x="72" y="403"/>
      <point x="125" y="513"/>
      <point x="226" y="590" type="curve" smooth="yes"/>
      <point x="327" y="667" name="sv01"/>
      <point x="470" y="707"/>
      <point x="645" y="707" type="curve" smooth="yes" name="sh01"/>
      <point x="891" y="707" type="line"/>
      <point x="903" y="768" type="line"/>
      <point x="906" y="787" type="line" smooth="yes" name="at01"/>
      <point x="907" y="794"/>
      <point x="907" y="801"/>
      <point x="907" y="804" type="curve" smooth="yes"/>
      <point x="907" y="880"/>
      <point x="880" y="919" name="ab01"/>
      <point x="844" y="946" type="curve" smooth="yes"/>
      <point x="805" y="974" name="iv01"/>
      <point x="748" y="991"/>
      <point x="665" y="991" type="curve" smooth="yes"/>
      <point x="608" y="991" name="dv02"/>
      <point x="546" y="983"/>
      <point x="479" y="966" type="curve" smooth="yes"/>
      <point x="411" y="949" name="dv03"/>
      <point x="343" y="924"/>
      <point x="268" y="889" type="curve"/>
      <point x="303" y="1069" type="line"/>
      <point x="375" y="1096"/>
      <point x="443" y="1115" name="dh02"/>
      <point x="508" y="1128" type="curve" smooth="yes" name="hr01"/>
      <point x="573" y="1141"/>
      <point x="636" y="1147"/>
      <point x="693" y="1147" type="curve" smooth="yes"/>
      <point x="816" y="1147"/>
      <point x="916" y="1121"/>
      <point x="985" y="1065" type="curve" smooth="yes"/>
      <point x="1050" y="1013"/>
      <point x="1087" y="935"/>
      <point x="1087" y="839" type="curve" smooth="yes"/>
      <point x="1087" y="817"/>
      <point x="1085" y="789"/>
      <point x="1081" y="754" type="curve" smooth="yes"/>
      <point x="1076" y="711"/>
      <point x="1070" y="676"/>
      <point x="1063" y="639" type="curve" smooth="yes"/>
      <point x="938" y="0" type="line"/>
      <point x="774" y="0" type="line"/>
      <point x="786" y="166" type="line"/>
      <point x="738" y="103"/>
      <point x="681" y="55"/>
      <point x="616" y="22" type="curve" smooth="yes"/>
      <point x="549" y="-13"/>
      <point x="483" y="-29"/>
    </contour>
    <contour>
      <point x="461" y="125" type="curve" smooth="yes"/>
      <point x="557" y="125"/>
      <point x="640" y="161"/>
      <point x="711" y="232" type="curve" smooth="yes"/>
      <point x="786" y="307"/>
      <point x="833" y="407"/>
      <point x="856" y="522" type="curve" smooth="yes"/>
      <point x="864" y="563" type="line"/>
      <point x="692" y="563" type="line" smooth="yes"/>
      <point x="612" y="563"/>
      <point x="554" y="561"/>
      <point x="515" y="556" type="curve" smooth="yes"/>
      <point x="476" y="551"/>
      <point x="441" y="541"/>
      <point x="414" y="530" type="curve" smooth="yes"/>
      <point x="379" y="515"/>
      <point x="338" y="493"/>
      <point x="305" y="442" type="curve" smooth="yes"/>
      <point x="278" y="401"/>
      <point x="264" y="356"/>
      <point x="264" y="307" type="curve" smooth="yes"/>
      <point x="264" y="243"/>
      <point x="288" y="201"/>
      <point x="316" y="174" type="curve" smooth="yes"/>
      <point x="348" y="143"/>
      <point x="394" y="125"/>
    </contour>
  </outline>
</glyph>
<glyph name="b" format="1">
  <advance width="1233"/>
  <unicode hex="0062"/>
  <outline>
    <contour>
      <point x="535" y="-29" type="curve" smooth="yes" name="dv01"/>
      <point x="470" y="-29" name="ab01"/>
      <point x="416" y="-15" name="iv01"/>
      <point x="371" y="14" type="curve" smooth="yes" name="ab02"/>
      <point x="327" y="43"/>
      <point x="293" y="85" name="at01"/>
      <point x="270" y="141" type="curve"/>
      <point x="224" y="0" type="line" name="iv02"/>
      <point x="59" y="0" type="line"/>
      <point x="362" y="1556" type="line" name="at02"/>
      <point x="547" y="1556" type="line"/>
      <point x="434" y="977" type="line" name="dh02"/>
      <point x="475" y="1032"/>
      <point x="523" y="1075"/>
      <point x="578" y="1104" type="curve" smooth="yes"/>
      <point x="633" y="1133"/>
      <point x="694" y="1147" name="dv02"/>
      <point x="763" y="1147" type="curve" smooth="yes"/>
      <point x="868" y="1147"/>
      <point x="957" y="1113"/>
      <point x="1018" y="1044" type="curve" smooth="yes" name="dh01"/>
      <point x="1078" y="976"/>
      <point x="1108" y="877" name="sv01"/>
      <point x="1108" y="748" type="curve" smooth="yes"/>
      <point x="1108" y="660"/>
      <point x="1094" y="561"/>
      <point x="1067" y="465" type="curve" smooth="yes"/>
      <point x="1042" y="376"/>
      <point x="1006" y="292"/>
      <point x="954" y="213" type="curve" smooth="yes"/>
      <point x="902" y="136" name="sh01"/>
      <point x="841" y="76"/>
      <point x="770" y="35" type="curve" smooth="yes"/>
      <point x="695" y="-8"/>
      <point x="616" y="-29"/>
    </contour>
    <contour>
      <point x="540" y="127" type="curve" smooth="yes"/>
      <point x="595" y="127"/>
      <point x="646" y="142"/>
      <point x="691" y="172" type="curve" smooth="yes"/>
      <point x="738" y="203"/>
      <point x="773" y="244"/>
      <point x="805" y="304" type="curve" smooth="yes"/>
      <point x="838" y="365"/>
      <point x="866" y="441"/>
      <point x="883" y="513" type="curve" smooth="yes"/>
      <point x="902" y="590"/>
      <point x="911" y="666"/>
      <point x="911" y="733" type="curve" smooth="yes"/>
      <point x="911" y="816"/>
      <point x="897" y="882"/>
      <point x="861" y="929" type="curve" smooth="yes"/>
      <point x="827" y="972"/>
      <point x="777" y="993"/>
      <point x="710" y="993" type="curve" smooth="yes"/>
      <point x="651" y="993"/>
      <point x="600" y="976"/>
      <point x="557" y="947" type="curve" smooth="yes"/>
      <point x="514" y="918"/>
      <point x="473" y="872"/>
      <point x="438" y="812" type="curve" smooth="yes" name="hr01"/>
      <point x="403" y="751"/>
      <point x="380" y="684"/>
      <point x="361" y="611" type="curve"/>
      <point x="342" y="532"/>
      <point x="332" y="454"/>
      <point x="332" y="389" type="curve" smooth="yes"/>
      <point x="332" y="305"/>
      <point x="348" y="241"/>
      <point x="385" y="194" type="curve" smooth="yes"/>
      <point x="425" y="143"/>
      <point x="481" y="127"/>
    </contour>
  </outline>
</glyph>
<glyph name="c" format="1">
  <advance width="1233"/>
  <unicode hex="0063"/>
  <outline>
    <contour>
      <point x="597" y="-29" type="curve" smooth="yes" name="dv01"/>
      <point x="444" y="-29"/>
      <point x="334" y="12" name="dh01"/>
      <point x="261" y="84" type="curve" smooth="yes"/>
      <point x="184" y="160"/>
      <point x="146" y="271"/>
      <point x="146" y="412" type="curve" smooth="yes" name="at01"/>
      <point x="146" y="512"/>
      <point x="164" y="617"/>
      <point x="199" y="709" type="curve" smooth="yes"/>
      <point x="234" y="801"/>
      <point x="284" y="883" name="sv01"/>
      <point x="344" y="950" type="curve" smooth="yes"/>
      <point x="408" y="1021"/>
      <point x="485" y="1070"/>
      <point x="549" y="1098" type="curve" smooth="yes" name="dh02"/>
      <point x="622" y="1131"/>
      <point x="704" y="1147" name="dv02"/>
      <point x="794" y="1147" type="curve" smooth="yes"/>
      <point x="853" y="1147"/>
      <point x="910" y="1140"/>
      <point x="965" y="1126" type="curve" smooth="yes"/>
      <point x="1016" y="1113"/>
      <point x="1074" y="1090"/>
      <point x="1127" y="1061" type="curve"/>
      <point x="1090" y="879" type="line"/>
      <point x="1047" y="918"/>
      <point x="1001" y="946"/>
      <point x="954" y="964" type="curve" smooth="yes"/>
      <point x="907" y="982"/>
      <point x="855" y="991"/>
      <point x="800" y="991" type="curve" smooth="yes"/>
      <point x="726" y="991"/>
      <point x="661" y="976"/>
      <point x="604" y="947" type="curve" smooth="yes"/>
      <point x="548" y="918"/>
      <point x="499" y="873"/>
      <point x="459" y="813" type="curve" smooth="yes"/>
      <point x="424" y="762"/>
      <point x="393" y="698"/>
      <point x="372" y="626" type="curve" smooth="yes"/>
      <point x="351" y="554"/>
      <point x="340" y="485"/>
      <point x="340" y="418" type="curve" smooth="yes"/>
      <point x="340" y="326"/>
      <point x="361" y="251"/>
      <point x="408" y="200" type="curve" smooth="yes"/>
      <point x="451" y="153"/>
      <point x="516" y="127"/>
      <point x="615" y="127" type="curve" smooth="yes"/>
      <point x="675" y="127"/>
      <point x="738" y="137"/>
      <point x="798" y="158" type="curve" smooth="yes"/>
      <point x="861" y="181"/>
      <point x="918" y="213"/>
      <point x="969" y="252" type="curve"/>
      <point x="930" y="51" type="line"/>
      <point x="873" y="20"/>
      <point x="825" y="4"/>
      <point x="774" y="-8" type="curve" smooth="yes"/>
      <point x="715" y="-23"/>
      <point x="661" y="-29"/>
    </contour>
  </outline>
</glyph>
<glyph name="g" format="1">
  <advance width="1233"/>
  <unicode hex="0067"/>
  <outline>
    <contour>
      <point x="376" y="-440" type="curve" smooth="yes" name="dv01"/>
      <point x="319" y="-440"/>
      <point x="267" y="-435"/>
      <point x="214" y="-426" type="curve" smooth="yes"/>
      <point x="162" y="-417"/>
      <point x="110" y="-404" name="dv02"/>
      <point x="59" y="-385" type="curve"/>
      <point x="96" y="-203" type="line"/>
      <point x="149" y="-234" name="iv01"/>
      <point x="195" y="-255"/>
      <point x="248" y="-270" type="curve" smooth="yes" name="ab01"/>
      <point x="301" y="-285"/>
      <point x="354" y="-293" name="dh01"/>
      <point x="406" y="-293" type="curve" smooth="yes"/>
      <point x="505" y="-293"/>
      <point x="582" y="-266"/>
      <point x="637" y="-213" type="curve" smooth="yes" name="at01"/>
      <point x="693" y="-160"/>
      <point x="729" y="-75" name="iv02"/>
      <point x="756" y="53" type="curve" smooth="yes"/>
      <point x="780" y="170" type="line"/>
      <point x="741" y="112"/>
      <point x="692" y="68"/>
      <point x="635" y="38" type="curve" smooth="yes"/>
      <point x="575" y="7" name="sv01"/>
      <point x="511" y="-8"/>
      <point x="443" y="-8" type="curve" smooth="yes"/>
      <point x="338" y="-8"/>
      <point x="252" y="28"/>
      <point x="192" y="99" type="curve" smooth="yes"/>
      <point x="131" y="171" name="sv02"/>
      <point x="102" y="273"/>
      <point x="102" y="398" type="curve" smooth="yes" name="dh02"/>
      <point x="102" y="482"/>
      <point x="115" y="576"/>
      <point x="142" y="668" type="curve" smooth="yes"/>
      <point x="168" y="758"/>
      <point x="205" y="839"/>
      <point x="254" y="911" type="curve" smooth="yes"/>
      <point x="307" y="991"/>
      <point x="363" y="1044"/>
      <point x="432" y="1085" type="curve" smooth="yes"/>
      <point x="501" y="1126"/>
      <point x="573" y="1147"/>
      <point x="648" y="1147" type="curve" smooth="yes"/>
      <point x="714" y="1147"/>
      <point x="773" y="1131"/>
      <point x="824" y="1099" type="curve" smooth="yes"/>
      <point x="871" y="1068"/>
      <point x="910" y="1025"/>
      <point x="934" y="965" type="curve"/>
      <point x="981" y="1116" type="line"/>
      <point x="1145" y="1116" type="line"/>
      <point x="942" y="72" type="line" smooth="yes"/>
      <point x="907" y="-109"/>
      <point x="845" y="-240"/>
      <point x="756" y="-320" type="curve" smooth="yes"/>
      <point x="667" y="-400"/>
      <point x="540" y="-440"/>
    </contour>
    <contour>
      <point x="513" y="145" type="curve" smooth="yes"/>
      <point x="564" y="145"/>
      <point x="611" y="159"/>
      <point x="658" y="190" type="curve" smooth="yes"/>
      <point x="701" y="219"/>
      <point x="739" y="262"/>
      <point x="770" y="319" type="curve"/>
      <point x="805" y="380"/>
      <point x="832" y="458"/>
      <point x="847" y="521" type="curve"/>
      <point x="866" y="594"/>
      <point x="874" y="673"/>
      <point x="874" y="733" type="curve" smooth="yes"/>
      <point x="874" y="817"/>
      <point x="855" y="881"/>
      <point x="818" y="925" type="curve" smooth="yes"/>
      <point x="781" y="969"/>
      <point x="728" y="991"/>
      <point x="664" y="991" type="curve" smooth="yes"/>
      <point x="552" y="991"/>
      <point x="465" y="924"/>
      <point x="402" y="823" type="curve" smooth="yes"/>
      <point x="335" y="715"/>
      <point x="297" y="565"/>
      <point x="297" y="421" type="curve" smooth="yes"/>
      <point x="297" y="310"/>
      <point x="320" y="251"/>
      <point x="353" y="212" type="curve"/>
      <point x="392" y="169"/>
      <point x="448" y="145"/>
    </contour>
  </outline>
</glyph>
<glyph name="j" format="1">
  <advance width="1233"/>
  <unicode hex="006A"/>
  <outline>
    <contour>
      <point x="811" y="1323" type="line" smooth="yes" name="sv01"/>
      <point x="791" y="1323"/>
      <point x="780" y="1336"/>
      <point x="784" y="1356" type="curve" smooth="yes" name="at01"/>
      <point x="818" y="1529" type="line" smooth="yes"/>
      <point x="821" y="1547"/>
      <point x="831" y="1556"/>
      <point x="850" y="1556" type="curve" smooth="yes"/>
      <point x="974" y="1556" type="line" smooth="yes"/>
      <point x="994" y="1556" name="dv02"/>
      <point x="1005" y="1543"/>
      <point x="1001" y="1523" type="curve" smooth="yes"/>
      <point x="967" y="1350" type="line" smooth="yes" name="sv02"/>
      <point x="964" y="1332"/>
      <point x="953" y="1323" name="at02"/>
      <point x="935" y="1323" type="curve" smooth="yes"/>
    </contour>
    <contour>
      <point x="55" y="-270" type="line"/>
      <point x="288" y="-270" type="line" smooth="yes"/>
      <point x="348" y="-270" name="dv01"/>
      <point x="401" y="-251"/>
      <point x="438" y="-211" type="curve" smooth="yes"/>
      <point x="474" y="-172"/>
      <point x="501" y="-109"/>
      <point x="518" y="-20" type="curve" smooth="yes"/>
      <point x="710" y="977" type="line"/>
      <point x="393" y="977" type="line"/>
      <point x="421" y="1120" type="line"/>
      <point x="923" y="1120" type="line"/>
      <point x="702" y="-20" type="line" smooth="yes"/>
      <point x="677" y="-149"/>
      <point x="633" y="-259"/>
      <point x="560" y="-330" type="curve" smooth="yes"/>
      <point x="493" y="-394"/>
      <point x="399" y="-426"/>
      <point x="278" y="-426" type="curve" smooth="yes"/>
      <point x="24" y="-426" type="line"/>
    </contour>
  </outline>
</glyph>
<glyph name="k" format="1">
  <advance width="1233"/>
  <unicode hex="006B"/>
  <outline>
    <contour>
      <point x="393" y="1556" type="line" name="at01"/>
      <point x="584" y="1556" type="line"/>
      <point x="414" y="682" type="line" name="iv01"/>
      <point x="963" y="1120" type="line" name="at02"/>
      <point x="1204" y="1120" type="line" name="iv02"/>
      <point x="684" y="698" type="line"/>
      <point x="1057" y="0" type="line" name="ab01"/>
      <point x="844" y="0" type="line"/>
      <point x="537" y="582" type="line"/>
      <point x="369" y="449" type="line"/>
      <point x="281" y="0" type="line" name="ab02"/>
      <point x="90" y="0" type="line"/>
    </contour>
  </outline>
</glyph>
<glyph name="o" format="1">
  <advance width="1233"/>
  <unicode hex="006F"/>
  <outline>
    <contour>
      <point x="510" y="-29" type="curve" smooth="yes" name="dv01"/>
      <point x="387" y="-29"/>
      <point x="287" y="4" name="sh01"/>
      <point x="218" y="80" type="curve" smooth="yes"/>
      <point x="155" y="148"/>
      <point x="117" y="251"/>
      <point x="117" y="396" type="curve" smooth="yes" name="at01"/>
      <point x="117" y="483"/>
      <point x="131" y="572" name="sh02"/>
      <point x="158" y="663" type="curve" smooth="yes"/>
      <point x="183" y="747"/>
      <point x="221" y="833"/>
      <point x="274" y="910" type="curve" smooth="yes"/>
      <point x="328" y="989" name="dv02"/>
      <point x="391" y="1048"/>
      <point x="464" y="1087" type="curve" smooth="yes" name="ah02"/>
      <point x="539" y="1127"/>
      <point x="623" y="1147" name="sv01"/>
      <point x="717" y="1147" type="curve" smooth="yes"/>
      <point x="838" y="1147" name="sh03"/>
      <point x="941" y="1113"/>
      <point x="1012" y="1040" type="curve" smooth="yes"/>
      <point x="1080" y="969" name="ah01"/>
      <point x="1114" y="864" name="sh04"/>
      <point x="1114" y="726" type="curve" smooth="yes"/>
      <point x="1114" y="636"/>
      <point x="1100" y="545"/>
      <point x="1073" y="453" type="curve"/>
      <point x="1042" y="353"/>
      <point x="1001" y="270"/>
      <point x="958" y="207" type="curve" smooth="yes"/>
      <point x="902" y="126"/>
      <point x="842" y="69"/>
      <point x="766" y="30" type="curve" smooth="yes"/>
      <point x="690" y="-9"/>
      <point x="603" y="-29"/>
    </contour>
    <contour>
      <point x="533" y="127" type="curve" smooth="yes"/>
      <point x="649" y="127"/>
      <point x="744" y="190"/>
      <point x="812" y="298" type="curve"/>
      <point x="884" y="409"/>
      <point x="920" y="567"/>
      <point x="920" y="718" type="curve" smooth="yes"/>
      <point x="920" y="814"/>
      <point x="905" y="880"/>
      <point x="864" y="927" type="curve" smooth="yes"/>
      <point x="824" y="972"/>
      <point x="767" y="991"/>
      <point x="702" y="991" type="curve" smooth="yes"/>
      <point x="582" y="991"/>
      <point x="490" y="928"/>
      <point x="422" y="820" type="curve" smooth="yes"/>
      <point x="355" y="715"/>
      <point x="313" y="563"/>
      <point x="313" y="402" type="curve" smooth="yes"/>
      <point x="313" y="306"/>
      <point x="328" y="238"/>
      <point x="369" y="191" type="curve" smooth="yes"/>
      <point x="408" y="148"/>
      <point x="466" y="127"/>
    </contour>
  </outline>
</glyph>
<glyph name="q" format="1">
  <advance width="1233"/>
  <unicode hex="0071"/>
  <outline>
    <contour>
      <point x="774" y="141" type="line" name="iv01"/>
      <point x="733" y="85"/>
      <point x="685" y="43" name="dv01"/>
      <point x="631" y="14" type="curve" smooth="yes"/>
      <point x="576" y="-15" name="dh01"/>
      <point x="515" y="-29"/>
      <point x="446" y="-29" type="curve" smooth="yes"/>
      <point x="338" y="-29"/>
      <point x="251" y="5" name="at02"/>
      <point x="190" y="73" type="curve" smooth="yes"/>
      <point x="131" y="138" name="iv02"/>
      <point x="98" y="236" name="at01"/>
      <point x="98" y="372" type="curve" smooth="yes"/>
      <point x="98" y="459" name="av01"/>
      <point x="112" y="555"/>
      <point x="139" y="652" type="curve" smooth="yes" name="dv02"/>
      <point x="166" y="745"/>
      <point x="203" y="833"/>
      <point x="252" y="909" type="curve" smooth="yes"/>
      <point x="304" y="990"/>
      <point x="361" y="1047"/>
      <point x="432" y="1087" type="curve" smooth="yes" name="sv01"/>
      <point x="502" y="1127"/>
      <point x="579" y="1147"/>
      <point x="663" y="1147" type="curve" smooth="yes"/>
      <point x="739" y="1147" name="dh02"/>
      <point x="793" y="1132"/>
      <point x="834" y="1105" type="curve" smooth="yes"/>
      <point x="879" y="1076"/>
      <point x="913" y="1034"/>
      <point x="936" y="977" type="curve"/>
      <point x="983" y="1120" type="line"/>
      <point x="1147" y="1120" type="line"/>
      <point x="848" y="-426" type="line"/>
      <point x="664" y="-426" type="line"/>
    </contour>
    <contour>
      <point x="496" y="127" type="curve" smooth="yes" name="hr01"/>
      <point x="553" y="127"/>
      <point x="604" y="142"/>
      <point x="650" y="173" type="curve" smooth="yes"/>
      <point x="698" y="205"/>
      <point x="739" y="254"/>
      <point x="768" y="305" type="curve" smooth="yes"/>
      <point x="800" y="361"/>
      <point x="826" y="429"/>
      <point x="845" y="508" type="curve" smooth="yes"/>
      <point x="864" y="587"/>
      <point x="874" y="664"/>
      <point x="874" y="731" type="curve" smooth="yes" name="hr02"/>
      <point x="874" y="815"/>
      <point x="858" y="881"/>
      <point x="821" y="926" type="curve" smooth="yes"/>
      <point x="786" y="969"/>
      <point x="734" y="991"/>
      <point x="667" y="991" type="curve" smooth="yes"/>
      <point x="611" y="991"/>
      <point x="560" y="976"/>
      <point x="515" y="947" type="curve" smooth="yes"/>
      <point x="468" y="916"/>
      <point x="432" y="875"/>
      <point x="401" y="816" type="curve" smooth="yes"/>
      <point x="368" y="755"/>
      <point x="343" y="682"/>
      <point x="324" y="607" type="curve" smooth="yes"/>
      <point x="305" y="528"/>
      <point x="295" y="455"/>
      <point x="295" y="386" type="curve" smooth="yes"/>
      <point x="295" y="299"/>
      <point x="312" y="234"/>
      <point x="346" y="191" type="curve" smooth="yes"/>
      <point x="380" y="148"/>
      <point x="430" y="127"/>
    </contour>
  </outline>
</glyph>
<glyph name="r" format="1">
  <advance width="1233"/>
  <unicode hex="0072"/>
  <outline>
    <contour>
      <point x="404" y="1120" type="line" name="at01"/>
      <point x="568" y="1120" type="line"/>
      <point x="548" y="901" type="line" name="iv01"/>
      <point x="593" y="981"/>
      <point x="651" y="1042" name="at03"/>
      <point x="722" y="1084" type="curve" smooth="yes" name="at02"/>
      <point x="793" y="1126"/>
      <point x="872" y="1147" name="iv02"/>
      <point x="961" y="1147" type="curve" smooth="yes"/>
      <point x="1008" y="1147" name="sv01"/>
      <point x="1055" y="1141"/>
      <point x="1092" y="1129" type="curve" smooth="yes"/>
      <point x="1125" y="1118" name="ab01"/>
      <point x="1161" y="1099"/>
      <point x="1189" y="1075" type="curve"/>
      <point x="1154" y="889" type="line"/>
      <point x="1123" y="918"/>
      <point x="1087" y="940"/>
      <point x="1050" y="955" type="curve" smooth="yes"/>
      <point x="1010" y="970"/>
      <point x="964" y="977"/>
      <point x="917" y="977" type="curve" smooth="yes"/>
      <point x="808" y="977"/>
      <point x="710" y="940"/>
      <point x="633" y="864" type="curve" smooth="yes"/>
      <point x="556" y="788"/>
      <point x="503" y="680"/>
      <point x="478" y="549" type="curve" smooth="yes"/>
      <point x="371" y="0" type="line" name="hr01"/>
      <point x="187" y="0" type="line"/>
    </contour>
  </outline>
</glyph>
<glyph name="s" format="1">
  <advance width="1233"/>
  <unicode hex="0073"/>
  <outline>
    <contour>
      <point x="477" y="-29" type="curve" smooth="yes" name="dv01"/>
      <point x="413" y="-29"/>
      <point x="353" y="-23"/>
      <point x="302" y="-12" type="curve" smooth="yes"/>
      <point x="242" y="0"/>
      <point x="179" y="18" name="dv02"/>
      <point x="115" y="41" type="curve"/>
      <point x="152" y="231" type="line" name="ah02"/>
      <point x="216" y="196"/>
      <point x="275" y="169"/>
      <point x="335" y="152" type="curve"/>
      <point x="395" y="133"/>
      <point x="448" y="125" name="sh01"/>
      <point x="507" y="125" type="curve" smooth="yes"/>
      <point x="595" y="125" name="at01"/>
      <point x="667" y="145"/>
      <point x="723" y="185" type="curve" smooth="yes"/>
      <point x="779" y="225"/>
      <point x="807" y="277"/>
      <point x="807" y="329" type="curve" smooth="yes" name="sv01"/>
      <point x="807" y="399"/>
      <point x="758" y="447" name="sh02"/>
      <point x="611" y="487" type="curve" smooth="yes"/>
      <point x="583" y="494" type="line"/>
      <point x="516" y="512" type="line" smooth="yes"/>
      <point x="429" y="535"/>
      <point x="368" y="565" name="sh03"/>
      <point x="327" y="608" type="curve" smooth="yes"/>
      <point x="286" y="651"/>
      <point x="266" y="708" name="ah01"/>
      <point x="266" y="780" type="curve" smooth="yes" name="sh04"/>
      <point x="266" y="885"/>
      <point x="309" y="979"/>
      <point x="397" y="1047" type="curve" smooth="yes"/>
      <point x="480" y="1111"/>
      <point x="599" y="1147"/>
      <point x="755" y="1147" type="curve" smooth="yes"/>
      <point x="812" y="1147"/>
      <point x="868" y="1142"/>
      <point x="923" y="1131" type="curve" smooth="yes"/>
      <point x="978" y="1120"/>
      <point x="1028" y="1104"/>
      <point x="1077" y="1081" type="curve"/>
      <point x="1042" y="901" type="line"/>
      <point x="995" y="932"/>
      <point x="940" y="955"/>
      <point x="893" y="970" type="curve" smooth="yes"/>
      <point x="842" y="985"/>
      <point x="788" y="993"/>
      <point x="731" y="993" type="curve" smooth="yes"/>
      <point x="648" y="993"/>
      <point x="576" y="977"/>
      <point x="525" y="942" type="curve" smooth="yes"/>
      <point x="472" y="906"/>
      <point x="449" y="855"/>
      <point x="449" y="808" type="curve" smooth="yes"/>
      <point x="449" y="713"/>
      <point x="548" y="679"/>
      <point x="670" y="645" type="curve"/>
      <point x="690" y="638"/>
      <point x="685" y="642"/>
      <point x="692" y="639" type="curve"/>
      <point x="764" y="621" type="line" smooth="yes"/>
      <point x="832" y="604"/>
      <point x="896" y="573"/>
      <point x="939" y="529" type="curve" smooth="yes"/>
      <point x="978" y="488"/>
      <point x="997" y="440"/>
      <point x="997" y="369" type="curve" smooth="yes"/>
      <point x="997" y="256"/>
      <point x="946" y="154"/>
      <point x="853" y="82" type="curve" smooth="yes"/>
      <point x="757" y="7"/>
      <point x="624" y="-29"/>
    </contour>
  </outline>
</glyph>
<glyph name="y" format="1">
  <advance width="1233"/>
  <unicode hex="0079"/>
  <outline>
    <contour>
      <point x="-9" y="-426" type="line" name="hr00"/>
      <point x="139" y="-426" type="line" smooth="yes" name="dv01"/>
      <point x="204" y="-426"/>
      <point x="261" y="-414"/>
      <point x="310" y="-389" type="curve" smooth="yes"/>
      <point x="366" y="-362"/>
      <point x="406" y="-322"/>
      <point x="442" y="-275" type="curve" smooth="yes" name="at02"/>
      <point x="482" y="-221"/>
      <point x="515" y="-168"/>
      <point x="651" y="72" type="curve" smooth="yes" name="at01"/>
      <point x="744" y="237"/>
      <point x="684" y="128"/>
      <point x="816" y="360" type="curve"/>
      <point x="1255" y="1120" type="line" name="dv02"/>
      <point x="1050" y="1120" type="line"/>
      <point x="567" y="258" type="line"/>
      <point x="395" y="1120" type="line"/>
      <point x="212" y="1120" type="line"/>
      <point x="429" y="18" type="line"/>
      <point x="386" y="-66" type="line" smooth="yes"/>
      <point x="349" y="-139"/>
      <point x="309" y="-192"/>
      <point x="268" y="-225" type="curve" smooth="yes"/>
      <point x="230" y="-256"/>
      <point x="183" y="-272"/>
      <point x="128" y="-272" type="curve" smooth="yes"/>
      <point x="20" y="-272" type="line"/>
    </contour>
  </outline>
</glyph>
<glyph name="z" format="1">
  <advance width="1233"/>
  <unicode hex="007A"/>
  <outline>
    <contour>
      <point x="111" y="168" type="line" name="hr00"/>
      <point x="895" y="973" type="line" name="sv01"/>
      <point x="291" y="973" type="line"/>
      <point x="319" y="1120" type="line" name="at01"/>
      <point x="1133" y="1120" type="line"/>
      <point x="1100" y="952" type="line"/>
      <point x="315" y="147" type="line" name="sv02"/>
      <point x="944" y="147" type="line"/>
      <point x="915" y="0" type="line" name="ab01"/>
      <point x="78" y="0" type="line"/>
    </contour>
  </outline>
</glyph>
<glyph name="braceright" format="1">
  <advance width="1233"/>
  <unicode hex="007D"/>
  <outline>
    <contour>
      <point x="64" y="-190" type="line"/>
      <point x="142" y="-190" type="line" smooth="yes" name="dv02"/>
      <point x="233" y="-190"/>
      <point x="294" y="-177"/>
      <point x="325" y="-150" type="curve" smooth="yes"/>
      <point x="354" y="-125"/>
      <point x="379" y="-70" name="ih01"/>
      <point x="402" y="39" type="curve"/>
      <point x="453" y="291" type="line" smooth="yes" name="dh01"/>
      <point x="473" y="391" name="sh01"/>
      <point x="501" y="469"/>
      <point x="546" y="524" type="curve" smooth="yes" name="sh02"/>
      <point x="587" y="573" name="sh03"/>
      <point x="644" y="603" name="ih02"/>
      <point x="718" y="616" type="curve"/>
      <point x="669" y="629" name="sv01"/>
      <point x="631" y="653"/>
      <point x="604" y="686" type="curve" smooth="yes" name="at01"/>
      <point x="577" y="721"/>
      <point x="564" y="757"/>
      <point x="564" y="813" type="curve" smooth="yes" name="sh04"/>
      <point x="564" y="829" name="sh05"/>
      <point x="565" y="846"/>
      <point x="568" y="870" type="curve" smooth="yes"/>
      <point x="571" y="898"/>
      <point x="571" y="909" name="dh02"/>
      <point x="578" y="940" type="curve"/>
      <point x="625" y="1183" type="line"/>
      <point x="625" y="1188" name="dv04"/>
      <point x="634" y="1239" name="dv03"/>
      <point x="634" y="1243" type="curve" smooth="yes"/>
      <point x="635" y="1259"/>
      <point x="636" y="1278"/>
      <point x="636" y="1290" type="curve" smooth="yes"/>
      <point x="636" y="1334"/>
      <point x="622" y="1366"/>
      <point x="594" y="1385" type="curve" smooth="yes"/>
      <point x="565" y="1404" name="dv01"/>
      <point x="518" y="1413"/>
      <point x="453" y="1413" type="curve" smooth="yes"/>
      <point x="376" y="1413" type="line"/>
      <point x="402" y="1556" type="line"/>
      <point x="476" y="1556" type="line" smooth="yes" name="hr01"/>
      <point x="609" y="1556"/>
      <point x="693" y="1537"/>
      <point x="745" y="1502" type="curve" smooth="yes"/>
      <point x="797" y="1467"/>
      <point x="826" y="1417"/>
      <point x="826" y="1320" type="curve" smooth="yes"/>
      <point x="826" y="1301"/>
      <point x="825" y="1288"/>
      <point x="822" y="1259" type="curve" smooth="yes"/>
      <point x="819" y="1234"/>
      <point x="819" y="1223"/>
      <point x="812" y="1188" type="curve" smooth="yes"/>
      <point x="767" y="952" type="line"/>
      <point x="765" y="940" type="line" smooth="yes"/>
      <point x="758" y="907"/>
      <point x="755" y="876"/>
      <point x="755" y="849" type="curve" smooth="yes"/>
      <point x="755" y="790"/>
      <point x="771" y="748"/>
      <point x="804" y="723" type="curve" smooth="yes"/>
      <point x="837" y="698"/>
      <point x="890" y="686"/>
      <point x="965" y="686" type="curve" smooth="yes"/>
      <point x="1057" y="686" type="line"/>
      <point x="1028" y="539" type="line"/>
      <point x="937" y="539" type="line" smooth="yes" name="hr02"/>
      <point x="842" y="539"/>
      <point x="773" y="521"/>
      <point x="730" y="484" type="curve" smooth="yes"/>
      <point x="687" y="448"/>
      <point x="654" y="383"/>
      <point x="634" y="279" type="curve" smooth="yes"/>
      <point x="587" y="35" type="line" smooth="yes"/>
      <point x="571" y="-49"/>
      <point x="549" y="-113"/>
      <point x="525" y="-160" type="curve" smooth="yes"/>
      <point x="501" y="-207"/>
      <point x="471" y="-244"/>
      <point x="435" y="-270" type="curve" smooth="yes"/>
      <point x="402" y="-294"/>
      <point x="366" y="-308"/>
      <point x="319" y="-319" type="curve" smooth="yes"/>
      <point x="273" y="-329"/>
      <point x="206" y="-334"/>
      <point x="118" y="-334" type="curve" smooth="yes"/>
      <point x="36" y="-334" type="line"/>
    </contour>
  </outline>
</glyph>
<glyph name="cent" format="1">
  <advance width="1233"/>
  <unicode hex="00A2"/>
  <outline>
    <contour>
      <point x="510" y="-27" type="line" name="hr00"/>
      <point x="393" y="-15"/>
      <point x="293" y="33" name="dh01"/>
      <point x="225" y="113" type="curve" smooth="yes"/>
      <point x="157" y="193"/>
      <point x="123" y="301"/>
      <point x="123" y="434" type="curve" smooth="yes"/>
      <point x="123" y="551" name="av01"/>
      <point x="149" y="670"/>
      <point x="204" y="778" type="curve" smooth="yes"/>
      <point x="263" y="895"/>
      <point x="341" y="979"/>
      <point x="425" y="1036" type="curve" smooth="yes" name="iv01"/>
      <point x="476" y="1071"/>
      <point x="526" y="1095"/>
      <point x="574" y="1112" type="curve" smooth="yes" name="iv02"/>
      <point x="625" y="1130"/>
      <point x="679" y="1141" name="iv03"/>
      <point x="737" y="1145" type="curve"/>
      <point x="793" y="1432" type="line"/>
      <point x="895" y="1432" type="line"/>
      <point x="840" y="1145" type="line" name="av02"/>
      <point x="879" y="1143"/>
      <point x="920" y="1136" name="iv04"/>
      <point x="963" y="1125" type="curve" smooth="yes"/>
      <point x="1006" y="1114" name="dh02"/>
      <point x="1047" y="1098"/>
      <point x="1087" y="1077" type="curve"/>
      <point x="1055" y="905" type="line"/>
      <point x="1022" y="930"/>
      <point x="985" y="950"/>
      <point x="945" y="965" type="curve" smooth="yes"/>
      <point x="905" y="980"/>
      <point x="860" y="989"/>
      <point x="811" y="993" type="curve"/>
      <point x="641" y="123" type="line"/>
      <point x="684" y="126"/>
      <point x="729" y="136"/>
      <point x="776" y="151" type="curve" smooth="yes"/>
      <point x="823" y="166"/>
      <point x="869" y="186"/>
      <point x="920" y="213" type="curve"/>
      <point x="887" y="41" type="line"/>
      <point x="834" y="17"/>
      <point x="770" y="1"/>
      <point x="744" y="-7" type="curve" smooth="yes"/>
      <point x="704" y="-18"/>
      <point x="655" y="-24"/>
      <point x="612" y="-27" type="curve"/>
      <point x="557" y="-313" type="line"/>
      <point x="455" y="-313" type="line"/>
    </contour>
    <contour>
      <point x="709" y="991" type="line"/>
      <point x="599" y="981"/>
      <point x="506" y="921"/>
      <point x="430" y="812" type="curve" smooth="yes"/>
      <point x="353" y="700"/>
      <point x="315" y="570"/>
      <point x="315" y="431" type="curve" smooth="yes"/>
      <point x="315" y="331"/>
      <point x="335" y="267"/>
      <point x="374" y="216" type="curve" smooth="yes"/>
      <point x="411" y="168"/>
      <point x="461" y="136"/>
      <point x="541" y="127" type="curve"/>
    </contour>
  </outline>
</glyph>
<glyph name="sterling" format="1">
  <advance width="1233"/>
  <unicode hex="00A3"/>
  <outline>
    <contour>
      <point x="25" y="170" type="line" name="sv01"/>
      <point x="262" y="170" type="line"/>
      <point x="352" y="635" type="line" name="dv01"/>
      <point x="154" y="635" type="line"/>
      <point x="180" y="778" type="line"/>
      <point x="379" y="778" type="line" name="dv02"/>
      <point x="426" y="1016" type="line" smooth="yes"/>
      <point x="462" y="1199"/>
      <point x="521" y="1317" name="at01"/>
      <point x="608" y="1397" type="curve" smooth="yes" name="at02"/>
      <point x="692" y="1476"/>
      <point x="808" y="1520" name="iv01"/>
      <point x="957" y="1520" type="curve" smooth="yes"/>
      <point x="1006" y="1520" name="sv02"/>
      <point x="1051" y="1515"/>
      <point x="1092" y="1506" type="curve"/>
      <point x="1119" y="1499" name="sv03"/>
      <point x="1176" y="1483"/>
      <point x="1229" y="1462" type="curve" name="sv04"/>
      <point x="1192" y="1278" type="line"/>
      <point x="1156" y="1307" name="sv05"/>
      <point x="1118" y="1329" name="sv06"/>
      <point x="1078" y="1344" type="curve" smooth="yes" name="ab01"/>
      <point x="1038" y="1359"/>
      <point x="996" y="1366"/>
      <point x="952" y="1366" type="curve" smooth="yes"/>
      <point x="857" y="1366"/>
      <point x="789" y="1337"/>
      <point x="738" y="1281" type="curve" smooth="yes"/>
      <point x="687" y="1225"/>
      <point x="651" y="1138"/>
      <point x="623" y="995" type="curve" smooth="yes"/>
      <point x="580" y="778" type="line"/>
      <point x="950" y="778" type="line"/>
      <point x="922" y="635" type="line"/>
      <point x="551" y="635" type="line"/>
      <point x="461" y="170" type="line"/>
      <point x="997" y="170" type="line"/>
      <point x="965" y="0" type="line"/>
      <point x="-8" y="0" type="line"/>
    </contour>
  </outline>
</glyph>
<glyph name="section" format="1">
  <advance width="1233"/>
  <unicode hex="00A7"/>
  <outline>
    <contour>
      <point x="411" y="-201" type="curve" smooth="yes" name="dv01"/>
      <point x="358" y="-201"/>
      <point x="303" y="-195"/>
      <point x="260" y="-187" type="curve" smooth="yes"/>
      <point x="212" y="-178"/>
      <point x="152" y="-162" name="dv02"/>
      <point x="100" y="-143" type="curve"/>
      <point x="133" y="18" type="line" name="dh03"/>
      <point x="182" y="-6"/>
      <point x="231" y="-24"/>
      <point x="279" y="-37" type="curve" smooth="yes"/>
      <point x="327" y="-50" name="dh01"/>
      <point x="368" y="-57"/>
      <point x="415" y="-57" type="curve" smooth="yes" name="ih01"/>
      <point x="484" y="-57"/>
      <point x="547" y="-41" name="sh02"/>
      <point x="591" y="-10" type="curve" smooth="yes"/>
      <point x="635" y="21" name="at01"/>
      <point x="657" y="65" name="at02"/>
      <point x="657" y="110" type="curve" smooth="yes"/>
      <point x="657" y="182"/>
      <point x="602" y="249"/>
      <point x="474" y="337" type="curve" smooth="yes" name="sv01"/>
      <point x="387" y="397" type="line" smooth="yes"/>
      <point x="304" y="454" name="sh01"/>
      <point x="249" y="501"/>
      <point x="222" y="538" type="curve" smooth="yes"/>
      <point x="194" y="577"/>
      <point x="182" y="619"/>
      <point x="182" y="667" type="curve" smooth="yes" name="sh03"/>
      <point x="182" y="727"/>
      <point x="201" y="788" name="ih02"/>
      <point x="246" y="848" type="curve" smooth="yes"/>
      <point x="289" y="904" name="dh04"/>
      <point x="348" y="954"/>
      <point x="428" y="997" type="curve"/>
      <point x="400" y="1023"/>
      <point x="380" y="1049"/>
      <point x="369" y="1074" type="curve" smooth="yes" name="sh04"/>
      <point x="356" y="1102"/>
      <point x="350" y="1130"/>
      <point x="350" y="1167" type="curve" smooth="yes"/>
      <point x="350" y="1266"/>
      <point x="391" y="1351" name="dh02"/>
      <point x="470" y="1415" type="curve" smooth="yes"/>
      <point x="550" y="1479"/>
      <point x="658" y="1511"/>
      <point x="779" y="1511" type="curve" smooth="yes"/>
      <point x="826" y="1511"/>
      <point x="872" y="1506"/>
      <point x="921" y="1497" type="curve"/>
      <point x="973" y="1486"/>
      <point x="1018" y="1473"/>
      <point x="1069" y="1454" type="curve"/>
      <point x="1036" y="1290" type="line"/>
      <point x="991" y="1314"/>
      <point x="945" y="1333"/>
      <point x="897" y="1348" type="curve" smooth="yes"/>
      <point x="849" y="1363"/>
      <point x="806" y="1368"/>
      <point x="767" y="1368" type="curve" smooth="yes"/>
      <point x="703" y="1368"/>
      <point x="645" y="1352"/>
      <point x="601" y="1319" type="curve" smooth="yes"/>
      <point x="557" y="1286"/>
      <point x="535" y="1244"/>
      <point x="535" y="1203" type="curve" smooth="yes"/>
      <point x="535" y="1146"/>
      <point x="577" y="1089"/>
      <point x="669" y="1029" type="curve" smooth="yes"/>
      <point x="717" y="997" type="line"/>
      <point x="803" y="938" type="line" smooth="yes"/>
      <point x="887" y="881"/>
      <point x="941" y="833"/>
      <point x="970" y="794" type="curve" smooth="yes"/>
      <point x="999" y="755"/>
      <point x="1012" y="710"/>
      <point x="1012" y="663" type="curve" smooth="yes"/>
      <point x="1012" y="600"/>
      <point x="990" y="535"/>
      <point x="946" y="475" type="curve" smooth="yes"/>
      <point x="899" y="411"/>
      <point x="838" y="365"/>
      <point x="766" y="332" type="curve"/>
      <point x="793" y="309"/>
      <point x="814" y="282"/>
      <point x="828" y="252" type="curve" smooth="yes"/>
      <point x="840" y="225"/>
      <point x="848" y="191"/>
      <point x="848" y="148" type="curve" smooth="yes"/>
      <point x="848" y="51"/>
      <point x="808" y="-38"/>
      <point x="728" y="-103" type="curve" smooth="yes"/>
      <point x="647" y="-168"/>
      <point x="535" y="-201"/>
    </contour>
    <contour>
      <point x="678" y="401" type="line"/>
      <point x="734" y="435"/>
      <point x="777" y="471"/>
      <point x="806" y="508" type="curve" smooth="yes"/>
      <point x="835" y="545"/>
      <point x="850" y="581"/>
      <point x="850" y="616" type="curve" smooth="yes"/>
      <point x="850" y="656"/>
      <point x="829" y="694"/>
      <point x="797" y="727" type="curve" smooth="yes"/>
      <point x="761" y="764"/>
      <point x="688" y="818"/>
      <point x="596" y="877" type="curve" smooth="yes"/>
      <point x="516" y="928" type="line"/>
      <point x="462" y="893"/>
      <point x="420" y="857"/>
      <point x="391" y="820" type="curve" smooth="yes"/>
      <point x="362" y="783"/>
      <point x="348" y="747"/>
      <point x="348" y="711" type="curve" smooth="yes"/>
      <point x="348" y="675"/>
      <point x="362" y="641"/>
      <point x="391" y="610" type="curve" smooth="yes"/>
      <point x="418" y="581"/>
      <point x="467" y="539"/>
      <point x="559" y="479" type="curve" smooth="yes"/>
    </contour>
  </outline>
</glyph>
<glyph name="degree" format="1">
  <advance width="1233"/>
  <unicode hex="00B0"/>
  <outline>
    <contour>
      <point x="612" y="885" type="curve" smooth="yes" name="dv01"/>
      <point x="528" y="885"/>
      <point x="448" y="915" name="sh01"/>
      <point x="388" y="975" type="curve" smooth="yes"/>
      <point x="335" y="1028" name="at01"/>
      <point x="299" y="1106"/>
      <point x="299" y="1199" type="curve" smooth="yes"/>
      <point x="299" y="1288"/>
      <point x="331" y="1367" name="sh02"/>
      <point x="390" y="1427" type="curve" smooth="yes"/>
      <point x="447" y="1486"/>
      <point x="526" y="1520" name="dv02"/>
      <point x="615" y="1520" type="curve" smooth="yes"/>
      <point x="655" y="1520" name="ah02"/>
      <point x="700" y="1513"/>
      <point x="740" y="1496" type="curve" smooth="yes" name="sv01"/>
      <point x="779" y="1480"/>
      <point x="816" y="1452" name="sh03"/>
      <point x="843" y="1425" type="curve" smooth="yes"/>
      <point x="875" y="1392"/>
      <point x="899" y="1351" name="ah01"/>
      <point x="911" y="1322" type="curve" smooth="yes" name="sh04"/>
      <point x="926" y="1285"/>
      <point x="934" y="1245"/>
      <point x="934" y="1202" type="curve" smooth="yes"/>
      <point x="934" y="1114"/>
      <point x="901" y="1033"/>
      <point x="842" y="976" type="curve" smooth="yes"/>
      <point x="785" y="920"/>
      <point x="703" y="885"/>
    </contour>
    <contour>
      <point x="614" y="1012" type="curve" smooth="yes"/>
      <point x="669" y="1012"/>
      <point x="719" y="1034"/>
      <point x="752" y="1067" type="curve" smooth="yes"/>
      <point x="791" y="1106"/>
      <point x="807" y="1154"/>
      <point x="807" y="1201" type="curve" smooth="yes"/>
      <point x="807" y="1252"/>
      <point x="787" y="1300"/>
      <point x="751" y="1336" type="curve" smooth="yes"/>
      <point x="720" y="1367"/>
      <point x="672" y="1391"/>
      <point x="616" y="1391" type="curve" smooth="yes"/>
      <point x="563" y="1391"/>
      <point x="515" y="1370"/>
      <point x="482" y="1337" type="curve" smooth="yes"/>
      <point x="446" y="1301"/>
      <point x="426" y="1251"/>
      <point x="426" y="1199" type="curve" smooth="yes"/>
      <point x="426" y="1144"/>
      <point x="446" y="1100"/>
      <point x="481" y="1065" type="curve" smooth="yes"/>
      <point x="517" y="1030"/>
      <point x="563" y="1012"/>
    </contour>
  </outline>
</glyph>
<glyph name="mu" format="1">
  <advance width="1233"/>
  <unicode hex="00B5"/>
  <outline>
    <contour>
      <point x="252" y="1120" type="line" name="at01"/>
      <point x="439" y="1120" type="line"/>
      <point x="303" y="424" type="line" smooth="yes"/>
      <point x="300" y="409"/>
      <point x="297" y="385"/>
      <point x="294" y="366" type="curve" smooth="yes"/>
      <point x="292" y="348" name="dv02"/>
      <point x="291" y="332"/>
      <point x="291" y="319" type="curve" smooth="yes"/>
      <point x="291" y="266" name="at02"/>
      <point x="306" y="215"/>
      <point x="345" y="180" type="curve" smooth="yes"/>
      <point x="385" y="144"/>
      <point x="443" y="131"/>
      <point x="503" y="131" type="curve" smooth="yes"/>
      <point x="593" y="131" name="sv01"/>
      <point x="666" y="159"/>
      <point x="721" y="214" type="curve" smooth="yes" name="iv01"/>
      <point x="773" y="266"/>
      <point x="813" y="347"/>
      <point x="836" y="467" type="curve" smooth="yes" name="sv02"/>
      <point x="963" y="1120" type="line"/>
      <point x="1149" y="1120" type="line" name="iv02"/>
      <point x="981" y="258" type="line" smooth="yes"/>
      <point x="980" y="253" name="dv01"/>
      <point x="977" y="230"/>
      <point x="977" y="227" type="curve" smooth="yes" name="iv03"/>
      <point x="976" y="218" name="av01"/>
      <point x="975" y="211"/>
      <point x="975" y="202" type="curve" smooth="yes"/>
      <point x="975" y="183"/>
      <point x="979" y="168"/>
      <point x="988" y="157" type="curve" smooth="yes"/>
      <point x="995" y="148"/>
      <point x="1006" y="141"/>
      <point x="1022" y="141" type="curve" smooth="yes"/>
      <point x="1029" y="141"/>
      <point x="1038" y="143"/>
      <point x="1049" y="146" type="curve"/>
      <point x="1056" y="149"/>
      <point x="1076" y="155"/>
      <point x="1096" y="164" type="curve"/>
      <point x="1067" y="16" type="line"/>
      <point x="1042" y="1"/>
      <point x="1009" y="-13"/>
      <point x="990" y="-18" type="curve" smooth="yes"/>
      <point x="966" y="-25"/>
      <point x="942" y="-29"/>
      <point x="917" y="-29" type="curve" smooth="yes"/>
      <point x="876" y="-29"/>
      <point x="842" y="-17"/>
      <point x="814" y="14" type="curve" smooth="yes"/>
      <point x="789" y="41"/>
      <point x="774" y="74"/>
      <point x="774" y="129" type="curve"/>
      <point x="739" y="74"/>
      <point x="699" y="34"/>
      <point x="652" y="9" type="curve" smooth="yes"/>
      <point x="605" y="-16"/>
      <point x="549" y="-29"/>
      <point x="486" y="-29" type="curve" smooth="yes"/>
      <point x="423" y="-29"/>
      <point x="371" y="-15"/>
      <point x="330" y="13" type="curve" smooth="yes"/>
      <point x="288" y="41"/>
      <point x="257" y="82"/>
      <point x="236" y="137" type="curve"/>
      <point x="127" y="-426" type="line"/>
      <point x="-49" y="-426" type="line"/>
    </contour>
  </outline>
</glyph>
<glyph name="onesuperior" format="1">
  <advance width="1233"/>
  <unicode hex="00B9"/>
  <outline>
    <contour>
      <point x="369" y="1230" type="line" name="sv01"/>
      <point x="575" y="1230" type="line"/>
      <point x="692" y="1841" type="line"/>
      <point x="461" y="1800" type="line"/>
      <point x="483" y="1916" type="line"/>
      <point x="721" y="1955" type="line" name="av01"/>
      <point x="858" y="1955" type="line"/>
      <point x="717" y="1230" type="line"/>
      <point x="922" y="1230" type="line" name="dv02"/>
      <point x="901" y="1120" type="line" name="dv01"/>
      <point x="348" y="1120" type="line"/>
    </contour>
  </outline>
</glyph>
<glyph name="ordmasculine" format="1">
  <advance width="1233"/>
  <unicode hex="00BA"/>
  <outline>
    <contour>
      <point x="630" y="698" type="curve" smooth="yes" name="dv01"/>
      <point x="526" y="698"/>
      <point x="450" y="732" name="sh01"/>
      <point x="394" y="789" type="curve" smooth="yes"/>
      <point x="335" y="849"/>
      <point x="307" y="934"/>
      <point x="307" y="1030" type="curve" smooth="yes" name="at01"/>
      <point x="307" y="1091"/>
      <point x="319" y="1156" name="sh02"/>
      <point x="339" y="1212" type="curve" smooth="yes"/>
      <point x="363" y="1279"/>
      <point x="401" y="1336"/>
      <point x="428" y="1368" type="curve" smooth="yes"/>
      <point x="467" y="1416" name="dv02"/>
      <point x="517" y="1454"/>
      <point x="570" y="1481" type="curve" smooth="yes" name="ah02"/>
      <point x="625" y="1508"/>
      <point x="680" y="1520" name="sv01"/>
      <point x="744" y="1520" type="curve" smooth="yes"/>
      <point x="843" y="1520" name="sh03"/>
      <point x="921" y="1490"/>
      <point x="979" y="1429" type="curve" smooth="yes"/>
      <point x="1034" y="1372"/>
      <point x="1065" y="1288" name="sh04"/>
      <point x="1065" y="1184" type="curve" smooth="yes" name="sh05"/>
      <point x="1065" y="1128"/>
      <point x="1056" y="1067" name="ah01"/>
      <point x="1033" y="1003" type="curve" smooth="yes" name="sh06"/>
      <point x="1012" y="944"/>
      <point x="982" y="893"/>
      <point x="946" y="850" type="curve" smooth="yes"/>
      <point x="906" y="802"/>
      <point x="858" y="764"/>
      <point x="805" y="737" type="curve" smooth="yes"/>
      <point x="752" y="711"/>
      <point x="693" y="698"/>
    </contour>
    <contour>
      <point x="645" y="813" type="curve" smooth="yes"/>
      <point x="716" y="813"/>
      <point x="783" y="848"/>
      <point x="834" y="920" type="curve" smooth="yes"/>
      <point x="885" y="991"/>
      <point x="911" y="1086"/>
      <point x="911" y="1179" type="curve" smooth="yes"/>
      <point x="911" y="1250"/>
      <point x="895" y="1306"/>
      <point x="862" y="1345" type="curve" smooth="yes"/>
      <point x="827" y="1388"/>
      <point x="779" y="1405"/>
      <point x="728" y="1405" type="curve" smooth="yes"/>
      <point x="652" y="1405"/>
      <point x="588" y="1366"/>
      <point x="540" y="1298" type="curve" smooth="yes"/>
      <point x="489" y="1226"/>
      <point x="463" y="1134"/>
      <point x="463" y="1041" type="curve" smooth="yes"/>
      <point x="463" y="965"/>
      <point x="480" y="913"/>
      <point x="513" y="873" type="curve" smooth="yes"/>
      <point x="546" y="833"/>
      <point x="593" y="813"/>
    </contour>
    <contour>
      <point x="246" y="592" type="line"/>
      <point x="922" y="592" type="line"/>
      <point x="899" y="469" type="line"/>
      <point x="223" y="469" type="line"/>
    </contour>
  </outline>
</glyph>
<glyph name="onehalf" format="1">
  <advance width="1233"/>
  <unicode hex="00BD"/>
  <outline>
    <contour>
      <point x="111" y="934" type="line" name="sv01"/>
      <point x="317" y="934" type="line"/>
      <point x="434" y="1545" type="line"/>
      <point x="203" y="1504" type="line"/>
      <point x="225" y="1620" type="line"/>
      <point x="463" y="1659" type="line" name="av01"/>
      <point x="600" y="1659" type="line"/>
      <point x="459" y="934" type="line"/>
      <point x="664" y="934" type="line" name="dv06"/>
      <point x="643" y="824" type="line" name="dv05"/>
      <point x="90" y="824" type="line"/>
    </contour>
    <contour>
      <point x="47" y="612" type="line"/>
      <point x="1106" y="870" type="line"/>
      <point x="1133" y="762" type="line"/>
      <point x="70" y="504" type="line"/>
    </contour>
    <contour>
      <point x="482" y="-160" type="line"/>
      <point x="685" y="7" type="line" smooth="yes"/>
      <point x="889" y="174" name="dh01"/>
      <point x="998" y="287"/>
      <point x="998" y="370" type="curve" smooth="yes" name="dv03"/>
      <point x="998" y="397"/>
      <point x="986" y="426"/>
      <point x="961" y="447" type="curve" smooth="yes"/>
      <point x="937" y="467"/>
      <point x="904" y="477" name="dv04"/>
      <point x="861" y="477" type="curve" smooth="yes"/>
      <point x="830" y="477" name="dh02"/>
      <point x="788" y="471"/>
      <point x="749" y="459" type="curve" smooth="yes"/>
      <point x="713" y="448"/>
      <point x="661" y="426" name="dv02"/>
      <point x="605" y="399" type="curve" name="dv01"/>
      <point x="629" y="526" type="line"/>
      <point x="685" y="545"/>
      <point x="733" y="560" name="sh01"/>
      <point x="776" y="569" type="curve" smooth="yes"/>
      <point x="817" y="578"/>
      <point x="856" y="582"/>
      <point x="892" y="582" type="curve" smooth="yes"/>
      <point x="975" y="582"/>
      <point x="1034" y="562"/>
      <point x="1077" y="527" type="curve" smooth="yes"/>
      <point x="1122" y="490"/>
      <point x="1145" y="434"/>
      <point x="1145" y="387" type="curve" smooth="yes"/>
      <point x="1145" y="282"/>
      <point x="1028" y="139"/>
      <point x="836" y="-5" type="curve" smooth="yes"/>
      <point x="816" y="-20" type="line"/>
      <point x="646" y="-156" type="line"/>
      <point x="1041" y="-156" type="line"/>
      <point x="1018" y="-270" type="line"/>
      <point x="461" y="-270" type="line"/>
    </contour>
  </outline>
</glyph>
<glyph name="threequarters" format="1">
  <advance width="1233"/>
  <unicode hex="00BE"/>
  <outline>
    <contour>
      <point x="313" y="809" type="curve" smooth="yes"/>
      <point x="430" y="809"/>
      <point x="522" y="835" name="dh02"/>
      <point x="591" y="888" type="curve" smooth="yes"/>
      <point x="660" y="941" name="iv01"/>
      <point x="695" y="1010"/>
      <point x="695" y="1095" type="curve" smooth="yes" name="sh01"/>
      <point x="695" y="1147"/>
      <point x="681" y="1186" name="dv04"/>
      <point x="656" y="1215" type="curve" smooth="yes" name="sv01"/>
      <point x="630" y="1245"/>
      <point x="593" y="1264"/>
      <point x="545" y="1272" type="curve"/>
      <point x="613" y="1284" name="dv03"/>
      <point x="663" y="1311"/>
      <point x="699" y="1348" type="curve" smooth="yes" name="ih01"/>
      <point x="737" y="1387"/>
      <point x="756" y="1433" name="dv06"/>
      <point x="756" y="1486" type="curve" smooth="yes" name="hr01"/>
      <point x="756" y="1546"/>
      <point x="734" y="1593" name="dv05"/>
      <point x="691" y="1626" type="curve" smooth="yes"/>
      <point x="644" y="1661" name="dh01"/>
      <point x="580" y="1676"/>
      <point x="503" y="1676" type="curve" smooth="yes" name="dv08"/>
      <point x="467" y="1676"/>
      <point x="429" y="1673"/>
      <point x="388" y="1667" type="curve" smooth="yes"/>
      <point x="347" y="1660"/>
      <point x="303" y="1652" name="dv07"/>
      <point x="256" y="1641" type="curve"/>
      <point x="234" y="1526" type="line"/>
      <point x="274" y="1541"/>
      <point x="311" y="1552"/>
      <point x="345" y="1559" type="curve" smooth="yes" name="sh02"/>
      <point x="376" y="1566" name="dv01"/>
      <point x="408" y="1569"/>
      <point x="440" y="1569" type="curve" smooth="yes" name="sv04"/>
      <point x="493" y="1569"/>
      <point x="537" y="1561" name="dv02"/>
      <point x="566" y="1544" type="curve" smooth="yes"/>
      <point x="595" y="1527"/>
      <point x="609" y="1501"/>
      <point x="609" y="1466" type="curve" smooth="yes"/>
      <point x="609" y="1425" name="sv03"/>
      <point x="589" y="1390" name="ih02"/>
      <point x="550" y="1363" type="curve" smooth="yes"/>
      <point x="511" y="1336" name="sv02"/>
      <point x="459" y="1323"/>
      <point x="394" y="1323" type="curve" smooth="yes"/>
      <point x="322" y="1323" type="line"/>
      <point x="301" y="1217" type="line"/>
      <point x="373" y="1217" type="line" smooth="yes"/>
      <point x="432" y="1217"/>
      <point x="476" y="1206"/>
      <point x="505" y="1185" type="curve" smooth="yes"/>
      <point x="533" y="1164"/>
      <point x="547" y="1131"/>
      <point x="547" y="1087" type="curve" smooth="yes" name="hr02"/>
      <point x="547" y="1036"/>
      <point x="527" y="994"/>
      <point x="482" y="962" type="curve" smooth="yes"/>
      <point x="439" y="931"/>
      <point x="380" y="916"/>
      <point x="308" y="916" type="curve" smooth="yes"/>
      <point x="272" y="916"/>
      <point x="237" y="920"/>
      <point x="203" y="929" type="curve" smooth="yes"/>
      <point x="170" y="938"/>
      <point x="130" y="952"/>
      <point x="84" y="971" type="curve"/>
      <point x="60" y="850" type="line"/>
      <point x="103" y="835"/>
      <point x="140" y="827"/>
      <point x="183" y="820" type="curve" smooth="yes"/>
      <point x="226" y="813"/>
      <point x="268" y="809"/>
    </contour>
    <contour>
      <point x="70" y="504" type="line"/>
      <point x="1133" y="762" type="line"/>
      <point x="1106" y="870" type="line"/>
      <point x="47" y="612" type="line"/>
    </contour>
    <contour>
      <point x="764" y="-270" type="line"/>
      <point x="903" y="-270" type="line"/>
      <point x="936" y="-86" type="line" name="hr03"/>
      <point x="1055" y="-86" type="line"/>
      <point x="1075" y="25" type="line"/>
      <point x="958" y="25" type="line"/>
      <point x="1063" y="565" type="line"/>
      <point x="901" y="565" type="line"/>
      <point x="436" y="35" type="line"/>
      <point x="413" y="-86" type="line" name="hr04"/>
      <point x="799" y="-86" type="line"/>
    </contour>
    <contour>
      <point x="555" y="25" type="line"/>
      <point x="897" y="416" type="line"/>
      <point x="821" y="25" type="line"/>
    </contour>
  </outline>
</glyph>
<glyph name="questiondown" format="1">
  <advance width="1233"/>
  <unicode hex="00BF"/>
  <outline>
    <contour>
      <point x="752" y="1252" type="curve" smooth="yes" name="sv01"/>
      <point x="717" y="1252"/>
      <point x="688" y="1262" name="ah02"/>
      <point x="664" y="1289" type="curve" smooth="yes"/>
      <point x="639" y="1318" name="at01"/>
      <point x="631" y="1350"/>
      <point x="631" y="1385" type="curve" smooth="yes" name="sh01"/>
      <point x="631" y="1438"/>
      <point x="654" y="1479"/>
      <point x="686" y="1508" type="curve" smooth="yes" name="ab01"/>
      <point x="718" y="1537"/>
      <point x="762" y="1556" name="sh02"/>
      <point x="806" y="1556" type="curve" smooth="yes"/>
      <point x="837" y="1556"/>
      <point x="873" y="1546"/>
      <point x="897" y="1519" type="curve" smooth="yes"/>
      <point x="917" y="1496" name="sh03"/>
      <point x="928" y="1463"/>
      <point x="928" y="1426" type="curve" smooth="yes"/>
      <point x="928" y="1381"/>
      <point x="911" y="1336"/>
      <point x="874" y="1301" type="curve" smooth="yes"/>
      <point x="843" y="1273"/>
      <point x="800" y="1252"/>
    </contour>
    <contour>
      <point x="495" y="-27" type="curve" smooth="yes"/>
      <point x="399" y="-27" name="sv02"/>
      <point x="307" y="-3"/>
      <point x="239" y="54" type="curve" smooth="yes" name="sh05"/>
      <point x="175" y="109"/>
      <point x="143" y="182"/>
      <point x="143" y="267" type="curve" smooth="yes"/>
      <point x="143" y="326" name="ah01"/>
      <point x="159" y="383" name="sh06"/>
      <point x="192" y="436" type="curve" smooth="yes"/>
      <point x="227" y="493"/>
      <point x="283" y="553"/>
      <point x="371" y="625" type="curve" smooth="yes"/>
      <point x="475" y="711" type="line" smooth="yes"/>
      <point x="527" y="754"/>
      <point x="569" y="797"/>
      <point x="590" y="832" type="curve" smooth="yes"/>
      <point x="610" y="865"/>
      <point x="627" y="920"/>
      <point x="635" y="969" type="curve" smooth="yes"/>
      <point x="655" y="1092" type="line"/>
      <point x="846" y="1092" type="line"/>
      <point x="817" y="938" type="line" smooth="yes"/>
      <point x="805" y="874"/>
      <point x="783" y="819"/>
      <point x="759" y="780" type="curve" smooth="yes"/>
      <point x="731" y="735"/>
      <point x="683" y="684"/>
      <point x="608" y="621" type="curve" smooth="yes"/>
      <point x="502" y="532" type="line" smooth="yes"/>
      <point x="445" y="485"/>
      <point x="405" y="442"/>
      <point x="382" y="405" type="curve" smooth="yes"/>
      <point x="358" y="368"/>
      <point x="346" y="330"/>
      <point x="346" y="292" type="curve" smooth="yes"/>
      <point x="346" y="243"/>
      <point x="365" y="205"/>
      <point x="402" y="178" type="curve" smooth="yes"/>
      <point x="439" y="151"/>
      <point x="490" y="137"/>
      <point x="555" y="137" type="curve" smooth="yes"/>
      <point x="611" y="137"/>
      <point x="665" y="148"/>
      <point x="734" y="173" type="curve" smooth="yes"/>
      <point x="801" y="197"/>
      <point x="862" y="227"/>
      <point x="938" y="274" type="curve"/>
      <point x="901" y="86" type="line"/>
      <point x="822" y="45"/>
      <point x="749" y="17"/>
      <point x="692" y="1" type="curve" smooth="yes"/>
      <point x="624" y="-18"/>
      <point x="554" y="-27"/>
    </contour>
  </outline>
</glyph>
<glyph name="Atilde" format="1">
  <advance width="1233"/>
  <unicode hex="00C3"/>
  <outline>
    <contour>
      <point x="442" y="1627" type="line" name="hr00"/>
      <point x="465" y="1698"/>
      <point x="497" y="1753" name="dv02"/>
      <point x="539" y="1791" type="curve" smooth="yes"/>
      <point x="580" y="1828"/>
      <point x="629" y="1846"/>
      <point x="684" y="1846" type="curve" smooth="yes"/>
      <point x="711" y="1846"/>
      <point x="730" y="1842"/>
      <point x="751" y="1835" type="curve" smooth="yes" name="sv01"/>
      <point x="773" y="1828"/>
      <point x="795" y="1816"/>
      <point x="817" y="1799" type="curve" smooth="yes" name="sv02"/>
      <point x="852" y="1773" type="line" smooth="yes"/>
      <point x="865" y="1764"/>
      <point x="877" y="1757"/>
      <point x="888" y="1753" type="curve" smooth="yes"/>
      <point x="899" y="1749"/>
      <point x="908" y="1746"/>
      <point x="924" y="1746" type="curve" smooth="yes" name="dv01"/>
      <point x="955" y="1746" name="at01"/>
      <point x="974" y="1756"/>
      <point x="993" y="1773" type="curve" smooth="yes" name="ab01"/>
      <point x="1012" y="1791"/>
      <point x="1025" y="1815" name="dv03"/>
      <point x="1032" y="1846" type="curve"/>
      <point x="1157" y="1846" type="line" name="ab02"/>
      <point x="1136" y="1774"/>
      <point x="1105" y="1719" name="dv04"/>
      <point x="1062" y="1682" type="curve" smooth="yes"/>
      <point x="1023" y="1647"/>
      <point x="972" y="1627"/>
      <point x="911" y="1627" type="curve" smooth="yes"/>
      <point x="884" y="1627"/>
      <point x="868" y="1631"/>
      <point x="849" y="1638" type="curve" smooth="yes"/>
      <point x="828" y="1646"/>
      <point x="811" y="1655"/>
      <point x="790" y="1670" type="curve" smooth="yes"/>
      <point x="756" y="1695" type="line"/>
      <point x="754" y="1696" type="line" smooth="yes"/>
      <point x="725" y="1717"/>
      <point x="698" y="1728"/>
      <point x="673" y="1728" type="curve" smooth="yes"/>
      <point x="650" y="1728"/>
      <point x="630" y="1720"/>
      <point x="613" y="1703" type="curve" smooth="yes"/>
      <point x="596" y="1687"/>
      <point x="580" y="1662"/>
      <point x="567" y="1627" type="curve"/>
    </contour>
    <contour>
      <point x="639" y="1493" type="line"/>
      <point x="885" y="1493" type="line"/>
      <point x="1051" y="0" type="line"/>
      <point x="850" y="0" type="line"/>
      <point x="815" y="389" type="line"/>
      <point x="295" y="389" type="line"/>
      <point x="111" y="0" type="line"/>
      <point x="-106" y="0" type="line"/>
    </contour>
    <contour>
      <point x="801" y="551" type="line"/>
      <point x="735" y="1325" type="line"/>
      <point x="371" y="551" type="line"/>
    </contour>
  </outline>
</glyph>
<glyph name="Adieresis" format="1">
  <advance width="1233"/>
  <unicode hex="00C4"/>
  <outline>
    <contour>
      <point x="500" y="1620" type="line" smooth="yes" name="dv01"/>
      <point x="480" y="1620"/>
      <point x="469" y="1633"/>
      <point x="473" y="1653" type="curve" smooth="yes" name="dv02"/>
      <point x="501" y="1796" type="line" smooth="yes"/>
      <point x="504" y="1814"/>
      <point x="514" y="1823"/>
      <point x="533" y="1823" type="curve" smooth="yes"/>
      <point x="677" y="1823" type="line" smooth="yes"/>
      <point x="695" y="1823" name="sv01"/>
      <point x="704" y="1815"/>
      <point x="704" y="1799" type="curve" smooth="yes"/>
      <point x="704" y="1795" name="sv02"/>
      <point x="704" y="1792"/>
      <point x="703" y="1790" type="curve" smooth="yes"/>
      <point x="674" y="1647" type="line" smooth="yes"/>
      <point x="670" y="1629"/>
      <point x="659" y="1620" name="at01"/>
      <point x="642" y="1620" type="curve" smooth="yes"/>
    </contour>
    <contour>
      <point x="891" y="1620" type="line" smooth="yes" name="ab01"/>
      <point x="871" y="1620"/>
      <point x="860" y="1633" name="dv03"/>
      <point x="864" y="1653" type="curve" smooth="yes"/>
      <point x="892" y="1796" type="line" smooth="yes" name="ab02"/>
      <point x="895" y="1814"/>
      <point x="905" y="1823" name="dv04"/>
      <point x="924" y="1823" type="curve" smooth="yes"/>
      <point x="1067" y="1823" type="line" smooth="yes"/>
      <point x="1087" y="1823"/>
      <point x="1098" y="1810"/>
      <point x="1094" y="1790" type="curve" smooth="yes"/>
      <point x="1066" y="1647" type="line" smooth="yes"/>
      <point x="1063" y="1629"/>
      <point x="1052" y="1620"/>
      <point x="1034" y="1620" type="curve" smooth="yes"/>
    </contour>
    <contour>
      <point x="639" y="1493" type="line"/>
      <point x="885" y="1493" type="line"/>
      <point x="1051" y="0" type="line"/>
      <point x="850" y="0" type="line"/>
      <point x="815" y="389" type="line"/>
      <point x="295" y="389" type="line"/>
      <point x="111" y="0" type="line"/>
      <point x="-106" y="0" type="line"/>
    </contour>
    <contour>
      <point x="801" y="551" type="line"/>
      <point x="735" y="1325" type="line"/>
      <point x="371" y="551" type="line"/>
    </contour>
  </outline>
</glyph>
<glyph name="Aring" format="1">
  <advance width="1233"/>
  <unicode hex="00C5"/>
  <outline>
    <contour>
      <point x="600" y="1415" type="line" name="hr00"/>
      <point x="567" y="1438"/>
      <point x="541" y="1467" name="sh01"/>
      <point x="524" y="1504" type="curve" smooth="yes"/>
      <point x="507" y="1541" name="dv02"/>
      <point x="498" y="1581"/>
      <point x="498" y="1624" type="curve" smooth="yes" name="sh02"/>
      <point x="498" y="1703"/>
      <point x="526" y="1770"/>
      <point x="577" y="1821" type="curve" name="sh03"/>
      <point x="626" y="1872"/>
      <point x="694" y="1901" name="dv03"/>
      <point x="773" y="1901" type="curve" smooth="yes"/>
      <point x="850" y="1901" name="ab01"/>
      <point x="916" y="1872"/>
      <point x="967" y="1821" type="curve" smooth="yes"/>
      <point x="1016" y="1772"/>
      <point x="1047" y="1708" name="ah02"/>
      <point x="1047" y="1624" type="curve" smooth="yes"/>
      <point x="1047" y="1567" name="dv01"/>
      <point x="1032" y="1522"/>
      <point x="1007" y="1482" type="curve" smooth="yes" name="sh04"/>
      <point x="980" y="1439"/>
      <point x="943" y="1407"/>
      <point x="897" y="1386" type="curve" name="dv04"/>
      <point x="1051" y="0" type="line" name="ih01"/>
      <point x="850" y="0" type="line"/>
      <point x="815" y="389" type="line" name="ah01"/>
      <point x="295" y="389" type="line" name="sh05"/>
      <point x="111" y="0" type="line"/>
      <point x="-106" y="0" type="line"/>
    </contour>
    <contour>
      <point x="772" y="1475" type="curve" smooth="yes"/>
      <point x="816" y="1475"/>
      <point x="853" y="1492"/>
      <point x="880" y="1519" type="curve" smooth="yes"/>
      <point x="909" y="1548"/>
      <point x="924" y="1584"/>
      <point x="924" y="1626" type="curve" smooth="yes"/>
      <point x="924" y="1671"/>
      <point x="907" y="1707"/>
      <point x="880" y="1734" type="curve" smooth="yes"/>
      <point x="849" y="1765"/>
      <point x="810" y="1778"/>
      <point x="771" y="1778" type="curve" smooth="yes"/>
      <point x="729" y="1778"/>
      <point x="694" y="1764"/>
      <point x="665" y="1735" type="curve" smooth="yes"/>
      <point x="636" y="1706"/>
      <point x="621" y="1670"/>
      <point x="621" y="1627" type="curve" smooth="yes"/>
      <point x="621" y="1584"/>
      <point x="636" y="1547"/>
      <point x="665" y="1518" type="curve" smooth="yes"/>
      <point x="690" y="1493"/>
      <point x="728" y="1475"/>
    </contour>
    <contour>
      <point x="801" y="551" type="line"/>
      <point x="735" y="1325" type="line"/>
      <point x="371" y="551" type="line"/>
    </contour>
  </outline>
</glyph>
<glyph name="Ccedilla" format="1">
  <advance width="1233"/>
  <unicode hex="00C7"/>
  <outline>
    <contour>
      <point x="1058" y="1499" type="curve" smooth="yes" name="hr00"/>
      <point x="1111" y="1485"/>
      <point x="1163" y="1465"/>
      <point x="1212" y="1438" type="curve"/>
      <point x="1171" y="1231" type="line" name="sv01"/>
      <point x="1128" y="1272"/>
      <point x="1083" y="1304"/>
      <point x="1036" y="1325" type="curve" smooth="yes"/>
      <point x="990" y="1346" name="dh02"/>
      <point x="939" y="1356"/>
      <point x="884" y="1356" type="curve" smooth="yes" name="dv04"/>
      <point x="821" y="1356"/>
      <point x="762" y="1343"/>
      <point x="709" y="1316" type="curve" smooth="yes"/>
      <point x="656" y="1289"/>
      <point x="605" y="1248" name="ih01"/>
      <point x="557" y="1192" type="curve" smooth="yes"/>
      <point x="489" y="1112" name="dh04"/>
      <point x="431" y="1003"/>
      <point x="390" y="878" type="curve" smooth="yes" name="dv01"/>
      <point x="346" y="745"/>
      <point x="326" y="614"/>
      <point x="326" y="503" type="curve" smooth="yes" name="ih02"/>
      <point x="326" y="378"/>
      <point x="352" y="286" name="dv02"/>
      <point x="404" y="226" type="curve" smooth="yes"/>
      <point x="449" y="174" name="dh03"/>
      <point x="521" y="135"/>
      <point x="628" y="135" type="curve" smooth="yes" name="dv03"/>
      <point x="685" y="135"/>
      <point x="744" y="146" name="dh01"/>
      <point x="805" y="167" type="curve" smooth="yes"/>
      <point x="864" y="188"/>
      <point x="924" y="219"/>
      <point x="983" y="260" type="curve" name="at01"/>
      <point x="944" y="53" type="line"/>
      <point x="888" y="26"/>
      <point x="832" y="6"/>
      <point x="775" y="-9" type="curve"/>
      <point x="744" y="-16"/>
      <point x="710" y="-22"/>
      <point x="673" y="-25" type="curve"/>
      <point x="692" y="-58"/>
      <point x="703" y="-86"/>
      <point x="714" y="-111" type="curve"/>
      <point x="725" y="-141"/>
      <point x="731" y="-170"/>
      <point x="731" y="-198" type="curve" smooth="yes"/>
      <point x="731" y="-254"/>
      <point x="708" y="-304"/>
      <point x="661" y="-341" type="curve" smooth="yes"/>
      <point x="615" y="-377"/>
      <point x="551" y="-395"/>
      <point x="470" y="-395" type="curve" smooth="yes"/>
      <point x="443" y="-395"/>
      <point x="411" y="-393"/>
      <point x="380" y="-388" type="curve" smooth="yes"/>
      <point x="350" y="-383"/>
      <point x="319" y="-376"/>
      <point x="286" y="-365" type="curve"/>
      <point x="311" y="-236" type="line"/>
      <point x="338" y="-249"/>
      <point x="369" y="-260"/>
      <point x="388" y="-265" type="curve" smooth="yes"/>
      <point x="411" y="-271"/>
      <point x="434" y="-274"/>
      <point x="457" y="-274" type="curve" smooth="yes"/>
      <point x="498" y="-274"/>
      <point x="536" y="-264"/>
      <point x="561" y="-244" type="curve" smooth="yes"/>
      <point x="586" y="-224"/>
      <point x="598" y="-195"/>
      <point x="598" y="-163" type="curve" smooth="yes"/>
      <point x="598" y="-140"/>
      <point x="592" y="-114"/>
      <point x="584" y="-93" type="curve" smooth="yes"/>
      <point x="579" y="-81"/>
      <point x="569" y="-55"/>
      <point x="554" y="-28" type="curve"/>
      <point x="417" y="-19"/>
      <point x="313" y="28"/>
      <point x="241" y="103" type="curve" smooth="yes"/>
      <point x="158" y="188"/>
      <point x="115" y="313"/>
      <point x="115" y="492" type="curve" smooth="yes"/>
      <point x="115" y="624"/>
      <point x="138" y="769"/>
      <point x="185" y="913" type="curve" smooth="yes"/>
      <point x="232" y="1060"/>
      <point x="292" y="1170"/>
      <point x="369" y="1266" type="curve" smooth="yes"/>
      <point x="444" y="1358"/>
      <point x="519" y="1417"/>
      <point x="606" y="1458" type="curve" smooth="yes"/>
      <point x="693" y="1499"/>
      <point x="788" y="1520"/>
      <point x="893" y="1520" type="curve" smooth="yes"/>
      <point x="954" y="1520"/>
      <point x="1005" y="1514"/>
    </contour>
  </outline>
</glyph>
<glyph name="Ecircumflex" format="1">
  <advance width="1233"/>
  <unicode hex="00CA"/>
  <outline>
    <contour>
      <point x="749" y="1861" type="line" name="av01"/>
      <point x="962" y="1861" type="line"/>
      <point x="1120" y="1595" type="line" name="iv01"/>
      <point x="987" y="1595" type="line"/>
      <point x="848" y="1773" type="line"/>
      <point x="639" y="1595" type="line"/>
      <point x="487" y="1595" type="line" name="iv02"/>
    </contour>
    <contour>
      <point x="344" y="1493" type="line" name="at01"/>
      <point x="1229" y="1493" type="line"/>
      <point x="1196" y="1323" type="line" name="sv01"/>
      <point x="512" y="1323" type="line"/>
      <point x="426" y="881" type="line"/>
      <point x="1079" y="881" type="line" name="dv02"/>
      <point x="1047" y="711" type="line" name="dv01"/>
      <point x="393" y="711" type="line"/>
      <point x="289" y="170" type="line" name="sv02"/>
      <point x="991" y="170" type="line"/>
      <point x="958" y="0" type="line" name="ab01"/>
      <point x="53" y="0" type="line"/>
    </contour>
  </outline>
</glyph>
<glyph name="Edieresis" format="1">
  <advance width="1233"/>
  <unicode hex="00CB"/>
  <outline>
    <contour>
      <point x="545" y="1627" type="line" smooth="yes" name="dv01"/>
      <point x="525" y="1627"/>
      <point x="514" y="1640"/>
      <point x="518" y="1660" type="curve" smooth="yes" name="dv02"/>
      <point x="546" y="1803" type="line" smooth="yes"/>
      <point x="549" y="1821"/>
      <point x="559" y="1830"/>
      <point x="578" y="1830" type="curve" smooth="yes"/>
      <point x="722" y="1830" type="line" smooth="yes"/>
      <point x="740" y="1830" name="sv01"/>
      <point x="749" y="1822"/>
      <point x="749" y="1806" type="curve" smooth="yes"/>
      <point x="749" y="1802" name="sv02"/>
      <point x="749" y="1799"/>
      <point x="748" y="1797" type="curve" smooth="yes"/>
      <point x="719" y="1654" type="line" smooth="yes"/>
      <point x="715" y="1636"/>
      <point x="704" y="1627" name="at01"/>
      <point x="687" y="1627" type="curve" smooth="yes"/>
    </contour>
    <contour>
      <point x="936" y="1627" type="line" smooth="yes" name="sv03"/>
      <point x="916" y="1627"/>
      <point x="905" y="1640"/>
      <point x="909" y="1660" type="curve" smooth="yes" name="dv04"/>
      <point x="937" y="1803" type="line" smooth="yes" name="dv03"/>
      <point x="940" y="1821"/>
      <point x="950" y="1830" name="sv04"/>
      <point x="969" y="1830" type="curve" smooth="yes"/>
      <point x="1112" y="1830" type="line" smooth="yes" name="ab01"/>
      <point x="1132" y="1830"/>
      <point x="1143" y="1817"/>
      <point x="1139" y="1797" type="curve" smooth="yes"/>
      <point x="1111" y="1654" type="line" smooth="yes"/>
      <point x="1108" y="1636"/>
      <point x="1097" y="1627"/>
      <point x="1079" y="1627" type="curve" smooth="yes"/>
    </contour>
    <contour>
      <point x="344" y="1493" type="line"/>
      <point x="1229" y="1493" type="line"/>
      <point x="1196" y="1323" type="line"/>
      <point x="512" y="1323" type="line"/>
      <point x="426" y="881" type="line"/>
      <point x="1079" y="881" type="line"/>
      <point x="1047" y="711" type="line"/>
      <point x="393" y="711" type="line"/>
      <point x="289" y="170" type="line"/>
      <point x="991" y="170" type="line"/>
      <point x="958" y="0" type="line"/>
      <point x="53" y="0" type="line"/>
    </contour>
  </outline>
</glyph>
<glyph name="Ntilde" format="1">
  <advance width="1233"/>
  <unicode hex="00D1"/>
  <outline>
    <contour>
      <point x="438" y="1627" type="line" name="hr00"/>
      <point x="461" y="1698"/>
      <point x="493" y="1753" name="dv02"/>
      <point x="535" y="1791" type="curve" smooth="yes"/>
      <point x="576" y="1828"/>
      <point x="625" y="1846"/>
      <point x="680" y="1846" type="curve" smooth="yes"/>
      <point x="707" y="1846"/>
      <point x="726" y="1842"/>
      <point x="747" y="1835" type="curve" smooth="yes" name="sv01"/>
      <point x="769" y="1828"/>
      <point x="791" y="1816"/>
      <point x="813" y="1799" type="curve" smooth="yes" name="sv02"/>
      <point x="848" y="1773" type="line" smooth="yes"/>
      <point x="861" y="1764"/>
      <point x="873" y="1757"/>
      <point x="884" y="1753" type="curve" smooth="yes"/>
      <point x="895" y="1749"/>
      <point x="904" y="1746"/>
      <point x="920" y="1746" type="curve" smooth="yes" name="dv01"/>
      <point x="951" y="1746" name="at01"/>
      <point x="970" y="1756"/>
      <point x="989" y="1773" type="curve" smooth="yes" name="iv01"/>
      <point x="1008" y="1791" name="at02"/>
      <point x="1021" y="1815"/>
      <point x="1028" y="1846" type="curve" name="ab01"/>
      <point x="1153" y="1846" type="line"/>
      <point x="1132" y="1774" name="iv02"/>
      <point x="1101" y="1719" name="ab02"/>
      <point x="1058" y="1682" type="curve" smooth="yes"/>
      <point x="1019" y="1647"/>
      <point x="968" y="1627"/>
      <point x="907" y="1627" type="curve" smooth="yes"/>
      <point x="880" y="1627"/>
      <point x="864" y="1631"/>
      <point x="845" y="1638" type="curve" smooth="yes"/>
      <point x="824" y="1646"/>
      <point x="807" y="1655"/>
      <point x="786" y="1670" type="curve" smooth="yes"/>
      <point x="752" y="1695" type="line"/>
      <point x="750" y="1696" type="line" smooth="yes"/>
      <point x="721" y="1717"/>
      <point x="694" y="1728"/>
      <point x="669" y="1728" type="curve" smooth="yes"/>
      <point x="646" y="1728"/>
      <point x="626" y="1720"/>
      <point x="609" y="1703" type="curve" smooth="yes"/>
      <point x="592" y="1687"/>
      <point x="576" y="1662"/>
      <point x="563" y="1627" type="curve"/>
    </contour>
    <contour>
      <point x="285" y="1493" type="line"/>
      <point x="541" y="1493" type="line"/>
      <point x="805" y="264" type="line"/>
      <point x="1044" y="1493" type="line"/>
      <point x="1239" y="1493" type="line"/>
      <point x="948" y="0" type="line"/>
      <point x="692" y="0" type="line"/>
      <point x="428" y="1229" type="line"/>
      <point x="188" y="0" type="line"/>
      <point x="-6" y="0" type="line"/>
    </contour>
  </outline>
</glyph>
<glyph name="Ograve" format="1">
  <advance width="1233"/>
  <unicode hex="00D2"/>
  <outline>
    <contour>
      <point x="543" y="1859" type="line" name="ih01"/>
      <point x="725" y="1859" type="line" name="sv02"/>
      <point x="872" y="1595" type="line" name="ih02"/>
      <point x="733" y="1595" type="line"/>
    </contour>
    <contour>
      <point x="478" y="-29" type="curve" smooth="yes" name="dv01"/>
      <point x="343" y="-29"/>
      <point x="244" y="12" name="sh01"/>
      <point x="179" y="94" type="curve" smooth="yes"/>
      <point x="114" y="175"/>
      <point x="82" y="302"/>
      <point x="82" y="473" type="curve" smooth="yes"/>
      <point x="82" y="558"/>
      <point x="89" y="628" name="at01"/>
      <point x="104" y="712" type="curve" smooth="yes"/>
      <point x="120" y="805" name="sh02"/>
      <point x="137" y="880"/>
      <point x="168" y="975" type="curve" smooth="yes"/>
      <point x="189" y="1042"/>
      <point x="208" y="1090"/>
      <point x="231" y="1141" type="curve" smooth="yes"/>
      <point x="258" y="1198"/>
      <point x="280" y="1236" name="dv02"/>
      <point x="303" y="1271" type="curve" smooth="yes"/>
      <point x="360" y="1356"/>
      <point x="426" y="1419"/>
      <point x="501" y="1460" type="curve" smooth="yes" name="ah02"/>
      <point x="569" y="1497"/>
      <point x="648" y="1520" name="sv01"/>
      <point x="753" y="1520" type="curve" smooth="yes"/>
      <point x="886" y="1520"/>
      <point x="986" y="1484"/>
      <point x="1054" y="1397" type="curve" smooth="yes" name="sh03"/>
      <point x="1119" y="1316"/>
      <point x="1151" y="1191"/>
      <point x="1151" y="1024" type="curve" smooth="yes" name="ah01"/>
      <point x="1151" y="944" name="sh04"/>
      <point x="1144" y="868"/>
      <point x="1129" y="781" type="curve" smooth="yes"/>
      <point x="1114" y="696"/>
      <point x="1092" y="607"/>
      <point x="1063" y="516" type="curve" smooth="yes"/>
      <point x="1042" y="449"/>
      <point x="1024" y="402"/>
      <point x="1001" y="351" type="curve"/>
      <point x="982" y="312"/>
      <point x="956" y="262"/>
      <point x="928" y="219" type="curve" smooth="yes"/>
      <point x="876" y="140"/>
      <point x="807" y="75"/>
      <point x="731" y="32" type="curve" smooth="yes"/>
      <point x="658" y="-9"/>
      <point x="574" y="-29"/>
    </contour>
    <contour>
      <point x="498" y="135" type="curve" smooth="yes"/>
      <point x="555" y="135"/>
      <point x="611" y="151"/>
      <point x="660" y="186" type="curve" smooth="yes"/>
      <point x="713" y="225"/>
      <point x="750" y="278"/>
      <point x="778" y="331" type="curve" smooth="yes"/>
      <point x="829" y="427"/>
      <point x="871" y="565"/>
      <point x="898" y="684" type="curve" smooth="yes"/>
      <point x="929" y="821"/>
      <point x="944" y="959"/>
      <point x="944" y="1067" type="curve" smooth="yes"/>
      <point x="944" y="1182"/>
      <point x="927" y="1245"/>
      <point x="892" y="1289" type="curve" smooth="yes"/>
      <point x="857" y="1332"/>
      <point x="805" y="1356"/>
      <point x="734" y="1356" type="curve" smooth="yes"/>
      <point x="675" y="1356"/>
      <point x="620" y="1340"/>
      <point x="572" y="1305" type="curve" smooth="yes"/>
      <point x="525" y="1270"/>
      <point x="486" y="1220"/>
      <point x="455" y="1160" type="curve" smooth="yes"/>
      <point x="408" y="1072"/>
      <point x="364" y="945"/>
      <point x="333" y="808" type="curve" smooth="yes"/>
      <point x="302" y="675"/>
      <point x="287" y="541"/>
      <point x="287" y="429" type="curve" smooth="yes"/>
      <point x="287" y="311"/>
      <point x="305" y="248"/>
      <point x="340" y="203" type="curve" smooth="yes" name="hr01"/>
      <point x="379" y="155"/>
      <point x="434" y="135"/>
    </contour>
  </outline>
</glyph>
<glyph name="Otilde" format="1">
  <advance width="1233"/>
  <unicode hex="00D5"/>
  <outline>
    <contour>
      <point x="434" y="1627" type="line" name="ih01"/>
      <point x="457" y="1698"/>
      <point x="489" y="1753" name="dv04"/>
      <point x="531" y="1791" type="curve" smooth="yes"/>
      <point x="572" y="1828"/>
      <point x="621" y="1846"/>
      <point x="676" y="1846" type="curve" smooth="yes"/>
      <point x="703" y="1846"/>
      <point x="722" y="1842"/>
      <point x="743" y="1835" type="curve" smooth="yes" name="sv01"/>
      <point x="765" y="1828" name="sh03"/>
      <point x="787" y="1816"/>
      <point x="809" y="1799" type="curve" smooth="yes" name="sv02"/>
      <point x="844" y="1773" type="line" smooth="yes"/>
      <point x="857" y="1764"/>
      <point x="869" y="1757"/>
      <point x="880" y="1753" type="curve" smooth="yes"/>
      <point x="891" y="1749"/>
      <point x="900" y="1746"/>
      <point x="916" y="1746" type="curve" smooth="yes" name="dv03"/>
      <point x="947" y="1746" name="dv01"/>
      <point x="966" y="1756"/>
      <point x="985" y="1773" type="curve" smooth="yes" name="sh01"/>
      <point x="1004" y="1791"/>
      <point x="1017" y="1815"/>
      <point x="1024" y="1846" type="curve"/>
      <point x="1149" y="1846" type="line"/>
      <point x="1128" y="1774"/>
      <point x="1097" y="1719" name="at01"/>
      <point x="1054" y="1682" type="curve" smooth="yes"/>
      <point x="1015" y="1647" name="sh02"/>
      <point x="964" y="1627"/>
      <point x="903" y="1627" type="curve" smooth="yes"/>
      <point x="876" y="1627"/>
      <point x="860" y="1631"/>
      <point x="841" y="1638" type="curve" smooth="yes"/>
      <point x="820" y="1646"/>
      <point x="803" y="1655" name="dv02"/>
      <point x="782" y="1670" type="curve" smooth="yes"/>
      <point x="748" y="1695" type="line"/>
      <point x="746" y="1696" type="line" smooth="yes"/>
      <point x="717" y="1717" name="ah02"/>
      <point x="690" y="1728"/>
      <point x="665" y="1728" type="curve" smooth="yes" name="sv03"/>
      <point x="642" y="1728"/>
      <point x="622" y="1720"/>
      <point x="605" y="1703" type="curve" smooth="yes"/>
      <point x="588" y="1687" name="sh04"/>
      <point x="572" y="1662"/>
      <point x="559" y="1627" type="curve"/>
    </contour>
    <contour>
      <point x="478" y="-29" type="curve" smooth="yes" name="ah01"/>
      <point x="343" y="-29" name="sh05"/>
      <point x="244" y="12"/>
      <point x="179" y="94" type="curve" smooth="yes"/>
      <point x="114" y="175"/>
      <point x="82" y="302"/>
      <point x="82" y="473" type="curve" smooth="yes"/>
      <point x="82" y="558"/>
      <point x="89" y="628"/>
      <point x="104" y="712" type="curve" smooth="yes"/>
      <point x="120" y="805"/>
      <point x="137" y="880"/>
      <point x="168" y="975" type="curve" smooth="yes"/>
      <point x="189" y="1042"/>
      <point x="208" y="1090"/>
      <point x="231" y="1141" type="curve" smooth="yes"/>
      <point x="258" y="1198"/>
      <point x="280" y="1236"/>
      <point x="303" y="1271" type="curve" smooth="yes"/>
      <point x="360" y="1356"/>
      <point x="426" y="1419"/>
      <point x="501" y="1460" type="curve" smooth="yes"/>
      <point x="569" y="1497"/>
      <point x="648" y="1520"/>
      <point x="753" y="1520" type="curve" smooth="yes"/>
      <point x="886" y="1520"/>
      <point x="986" y="1484"/>
      <point x="1054" y="1397" type="curve" smooth="yes"/>
      <point x="1119" y="1316"/>
      <point x="1151" y="1191"/>
      <point x="1151" y="1024" type="curve" smooth="yes"/>
      <point x="1151" y="944"/>
      <point x="1144" y="868"/>
      <point x="1129" y="781" type="curve" smooth="yes"/>
      <point x="1114" y="696"/>
      <point x="1092" y="607"/>
      <point x="1063" y="516" type="curve" smooth="yes"/>
      <point x="1042" y="449"/>
      <point x="1024" y="402"/>
      <point x="1001" y="351" type="curve"/>
      <point x="982" y="312"/>
      <point x="956" y="262"/>
      <point x="928" y="219" type="curve" smooth="yes"/>
      <point x="876" y="140"/>
      <point x="807" y="75"/>
      <point x="731" y="32" type="curve" smooth="yes"/>
      <point x="658" y="-9"/>
      <point x="574" y="-29"/>
    </contour>
    <contour>
      <point x="498" y="135" type="curve" smooth="yes"/>
      <point x="555" y="135"/>
      <point x="611" y="151"/>
      <point x="660" y="186" type="curve" smooth="yes"/>
      <point x="713" y="225"/>
      <point x="750" y="278"/>
      <point x="778" y="331" type="curve" smooth="yes"/>
      <point x="829" y="427"/>
      <point x="871" y="565"/>
      <point x="898" y="684" type="curve" smooth="yes"/>
      <point x="929" y="821"/>
      <point x="944" y="959"/>
      <point x="944" y="1067" type="curve" smooth="yes"/>
      <point x="944" y="1182"/>
      <point x="927" y="1245"/>
      <point x="892" y="1289" type="curve" smooth="yes"/>
      <point x="857" y="1332"/>
      <point x="805" y="1356"/>
      <point x="734" y="1356" type="curve" smooth="yes"/>
      <point x="675" y="1356"/>
      <point x="620" y="1340"/>
      <point x="572" y="1305" type="curve" smooth="yes"/>
      <point x="525" y="1270"/>
      <point x="486" y="1220"/>
      <point x="455" y="1160" type="curve" smooth="yes"/>
      <point x="408" y="1072"/>
      <point x="364" y="945"/>
      <point x="333" y="808" type="curve" smooth="yes"/>
      <point x="302" y="675"/>
      <point x="287" y="541"/>
      <point x="287" y="429" type="curve" smooth="yes"/>
      <point x="287" y="311"/>
      <point x="305" y="248"/>
      <point x="340" y="203" type="curve" smooth="yes"/>
      <point x="379" y="155"/>
      <point x="434" y="135"/>
    </contour>
  </outline>
</glyph>
<glyph name="Ucircumflex" format="1">
  <advance width="1233"/>
  <unicode hex="00DB"/>
  <outline>
    <contour>
      <point x="708" y="1861" type="line" name="av01"/>
      <point x="921" y="1861" type="line"/>
      <point x="1079" y="1595" type="line" name="iv01"/>
      <point x="946" y="1595" type="line"/>
      <point x="807" y="1773" type="line"/>
      <point x="598" y="1595" type="line"/>
      <point x="446" y="1595" type="line" name="iv02"/>
    </contour>
    <contour>
      <point x="477" y="-29" type="curve" smooth="yes" name="dv01"/>
      <point x="350" y="-29"/>
      <point x="253" y="1" name="dh01"/>
      <point x="184" y="61" type="curve" smooth="yes"/>
      <point x="115" y="121"/>
      <point x="80" y="206" name="at01"/>
      <point x="80" y="315" type="curve" smooth="yes"/>
      <point x="80" y="347"/>
      <point x="82" y="372"/>
      <point x="89" y="417" type="curve" name="dh02"/>
      <point x="97" y="477"/>
      <point x="102" y="506" name="dv02"/>
      <point x="115" y="573" type="curve" smooth="yes"/>
      <point x="293" y="1493" type="line"/>
      <point x="496" y="1493" type="line"/>
      <point x="317" y="573" type="line"/>
      <point x="316" y="564" name="at02"/>
      <point x="313" y="551"/>
      <point x="309" y="532" type="curve" smooth="yes"/>
      <point x="289" y="433"/>
      <point x="279" y="353"/>
      <point x="279" y="313" type="curve" smooth="yes"/>
      <point x="279" y="256"/>
      <point x="299" y="210"/>
      <point x="334" y="181" type="curve"/>
      <point x="369" y="150"/>
      <point x="425" y="135"/>
      <point x="501" y="135" type="curve" smooth="yes"/>
      <point x="561" y="135"/>
      <point x="605" y="144"/>
      <point x="649" y="165" type="curve" smooth="yes"/>
      <point x="693" y="186"/>
      <point x="729" y="215"/>
      <point x="756" y="254" type="curve" smooth="yes"/>
      <point x="771" y="275"/>
      <point x="784" y="302"/>
      <point x="801" y="361" type="curve" smooth="yes"/>
      <point x="816" y="409"/>
      <point x="831" y="481"/>
      <point x="850" y="573" type="curve"/>
      <point x="1028" y="1493" type="line"/>
      <point x="1231" y="1493" type="line"/>
      <point x="1053" y="573" type="line"/>
      <point x="1021" y="402"/>
      <point x="991" y="314"/>
      <point x="964" y="253" type="curve" smooth="yes"/>
      <point x="931" y="181"/>
      <point x="890" y="129"/>
      <point x="838" y="86" type="curve" smooth="yes"/>
      <point x="791" y="47"/>
      <point x="733" y="20"/>
      <point x="676" y="1" type="curve" smooth="yes"/>
      <point x="615" y="-19"/>
      <point x="548" y="-29"/>
    </contour>
  </outline>
</glyph>
<glyph name="Udieresis" format="1">
  <advance width="1233"/>
  <unicode hex="00DC"/>
  <outline>
    <contour>
      <point x="504" y="1627" type="line" smooth="yes" name="dv03"/>
      <point x="484" y="1627"/>
      <point x="473" y="1640"/>
      <point x="477" y="1660" type="curve" smooth="yes" name="dv04"/>
      <point x="505" y="1803" type="line" smooth="yes"/>
      <point x="508" y="1821"/>
      <point x="518" y="1830"/>
      <point x="537" y="1830" type="curve" smooth="yes"/>
      <point x="681" y="1830" type="line" smooth="yes"/>
      <point x="699" y="1830" name="sv01"/>
      <point x="708" y="1822"/>
      <point x="708" y="1806" type="curve" smooth="yes"/>
      <point x="708" y="1802" name="sv02"/>
      <point x="708" y="1799"/>
      <point x="707" y="1797" type="curve" smooth="yes"/>
      <point x="678" y="1654" type="line" smooth="yes"/>
      <point x="674" y="1636"/>
      <point x="663" y="1627" name="dv01"/>
      <point x="646" y="1627" type="curve" smooth="yes"/>
    </contour>
    <contour>
      <point x="895" y="1627" type="line" smooth="yes" name="dh01"/>
      <point x="875" y="1627"/>
      <point x="864" y="1640"/>
      <point x="868" y="1660" type="curve" smooth="yes" name="at01"/>
      <point x="896" y="1803" type="line" smooth="yes"/>
      <point x="899" y="1821"/>
      <point x="909" y="1830"/>
      <point x="928" y="1830" type="curve" smooth="yes" name="dh02"/>
      <point x="1071" y="1830" type="line" smooth="yes"/>
      <point x="1091" y="1830" name="dv02"/>
      <point x="1102" y="1817"/>
      <point x="1098" y="1797" type="curve" smooth="yes"/>
      <point x="1070" y="1654" type="line" smooth="yes"/>
      <point x="1067" y="1636"/>
      <point x="1056" y="1627" name="at02"/>
      <point x="1038" y="1627" type="curve" smooth="yes"/>
    </contour>
    <contour>
      <point x="477" y="-29" type="curve" smooth="yes"/>
      <point x="350" y="-29"/>
      <point x="253" y="1"/>
      <point x="184" y="61" type="curve" smooth="yes"/>
      <point x="115" y="121"/>
      <point x="80" y="206"/>
      <point x="80" y="315" type="curve" smooth="yes"/>
      <point x="80" y="347"/>
      <point x="82" y="372"/>
      <point x="89" y="417" type="curve"/>
      <point x="97" y="477"/>
      <point x="102" y="506"/>
      <point x="115" y="573" type="curve" smooth="yes"/>
      <point x="293" y="1493" type="line"/>
      <point x="496" y="1493" type="line"/>
      <point x="317" y="573" type="line"/>
      <point x="316" y="564"/>
      <point x="313" y="551"/>
      <point x="309" y="532" type="curve" smooth="yes"/>
      <point x="289" y="433"/>
      <point x="279" y="353"/>
      <point x="279" y="313" type="curve" smooth="yes"/>
      <point x="279" y="256"/>
      <point x="299" y="210"/>
      <point x="334" y="181" type="curve"/>
      <point x="369" y="150"/>
      <point x="425" y="135"/>
      <point x="501" y="135" type="curve" smooth="yes"/>
      <point x="561" y="135"/>
      <point x="605" y="144"/>
      <point x="649" y="165" type="curve" smooth="yes"/>
      <point x="693" y="186"/>
      <point x="729" y="215"/>
      <point x="756" y="254" type="curve" smooth="yes"/>
      <point x="771" y="275"/>
      <point x="784" y="302"/>
      <point x="801" y="361" type="curve" smooth="yes"/>
      <point x="816" y="409"/>
      <point x="831" y="481"/>
      <point x="850" y="573" type="curve"/>
      <point x="1028" y="1493" type="line"/>
      <point x="1231" y="1493" type="line"/>
      <point x="1053" y="573" type="line"/>
      <point x="1021" y="402"/>
      <point x="991" y="314"/>
      <point x="964" y="253" type="curve" smooth="yes"/>
      <point x="931" y="181"/>
      <point x="890" y="129"/>
      <point x="838" y="86" type="curve" smooth="yes"/>
      <point x="791" y="47"/>
      <point x="733" y="20"/>
      <point x="676" y="1" type="curve" smooth="yes"/>
      <point x="615" y="-19"/>
      <point x="548" y="-29"/>
    </contour>
  </outline>
</glyph>
<glyph name="Thorn" format="1">
  <advance width="1233"/>
  <unicode hex="00DE"/>
  <outline>
    <contour>
      <point x="51" y="0" type="line" name="hr00"/>
      <point x="254" y="0" type="line" name="ab01"/>
      <point x="326" y="365" type="line"/>
      <point x="557" y="365" type="line" smooth="yes" name="dv01"/>
      <point x="744" y="365"/>
      <point x="891" y="411" name="dh02"/>
      <point x="998" y="502" type="curve" smooth="yes"/>
      <point x="1106" y="594" name="sv02"/>
      <point x="1159" y="719"/>
      <point x="1159" y="867" type="curve" smooth="yes"/>
      <point x="1159" y="988" name="at01"/>
      <point x="1123" y="1070"/>
      <point x="1051" y="1129" type="curve" smooth="yes"/>
      <point x="978" y="1188" name="sv01"/>
      <point x="873" y="1217"/>
      <point x="735" y="1217" type="curve" smooth="yes" name="dh01"/>
      <point x="494" y="1217" type="line"/>
      <point x="545" y="1491" type="line" name="dv02"/>
      <point x="342" y="1493" type="line"/>
    </contour>
    <contour>
      <point x="356" y="522" type="line" name="sh01"/>
      <point x="461" y="1059" type="line"/>
      <point x="698" y="1059" type="line" smooth="yes"/>
      <point x="785" y="1059"/>
      <point x="849" y="1043"/>
      <point x="890" y="1010" type="curve" smooth="yes"/>
      <point x="929" y="979"/>
      <point x="952" y="933"/>
      <point x="952" y="853" type="curve" smooth="yes"/>
      <point x="952" y="758"/>
      <point x="920" y="675"/>
      <point x="853" y="614" type="curve" smooth="yes"/>
      <point x="786" y="553"/>
      <point x="699" y="522"/>
      <point x="590" y="522" type="curve" smooth="yes"/>
    </contour>
  </outline>
</glyph>
<glyph name="germandbls" format="1">
  <advance width="1233"/>
  <unicode hex="00DF"/>
  <outline>
    <contour>
      <point x="599" y="-29" type="curve" smooth="yes" name="dv01"/>
      <point x="548" y="-29"/>
      <point x="510" y="-25"/>
      <point x="462" y="-16" type="curve" name="iv01"/>
      <point x="407" y="-7"/>
      <point x="374" y="4" name="dv02"/>
      <point x="330" y="20" type="curve"/>
      <point x="360" y="184" type="line" name="ah02"/>
      <point x="399" y="163"/>
      <point x="441" y="147"/>
      <point x="486" y="136" type="curve" smooth="yes"/>
      <point x="531" y="125"/>
      <point x="577" y="119" name="sh01"/>
      <point x="623" y="119" type="curve" smooth="yes"/>
      <point x="710" y="119"/>
      <point x="779" y="140"/>
      <point x="830" y="182" type="curve" smooth="yes"/>
      <point x="878" y="222" name="sh02"/>
      <point x="905" y="277" name="sh04"/>
      <point x="905" y="348" type="curve" smooth="yes" name="sh05"/>
      <point x="905" y="389"/>
      <point x="897" y="418" name="ab01"/>
      <point x="878" y="445" type="curve" smooth="yes"/>
      <point x="855" y="478"/>
      <point x="822" y="506"/>
      <point x="766" y="549" type="curve" smooth="yes" name="at01"/>
      <point x="705" y="596" type="line" smooth="yes"/>
      <point x="648" y="640"/>
      <point x="611" y="671"/>
      <point x="587" y="710" type="curve" smooth="yes"/>
      <point x="568" y="741"/>
      <point x="559" y="777" name="sh03"/>
      <point x="559" y="820" type="curve" smooth="yes"/>
      <point x="559" y="907"/>
      <point x="593" y="982"/>
      <point x="661" y="1046" type="curve" smooth="yes"/>
      <point x="724" y="1106" name="sh06"/>
      <point x="812" y="1153"/>
      <point x="940" y="1178" type="curve"/>
      <point x="943" y="1189" name="ah01"/>
      <point x="944" y="1197" name="sh07"/>
      <point x="945" y="1208" type="curve" smooth="yes"/>
      <point x="946" y="1217"/>
      <point x="946" y="1224"/>
      <point x="946" y="1227" type="curve" smooth="yes" name="hr01"/>
      <point x="946" y="1280"/>
      <point x="934" y="1328"/>
      <point x="895" y="1361" type="curve" smooth="yes"/>
      <point x="863" y="1388"/>
      <point x="814" y="1405"/>
      <point x="747" y="1405" type="curve" smooth="yes"/>
      <point x="671" y="1405"/>
      <point x="605" y="1383"/>
      <point x="558" y="1338" type="curve" smooth="yes"/>
      <point x="515" y="1297"/>
      <point x="480" y="1232"/>
      <point x="461" y="1133" type="curve" smooth="yes"/>
      <point x="242" y="0" type="line"/>
      <point x="55" y="0" type="line"/>
      <point x="276" y="1137" type="line" smooth="yes"/>
      <point x="303" y="1277"/>
      <point x="358" y="1384"/>
      <point x="438" y="1453" type="curve" smooth="yes"/>
      <point x="522" y="1525"/>
      <point x="631" y="1556"/>
      <point x="758" y="1556" type="curve" smooth="yes"/>
      <point x="879" y="1556"/>
      <point x="972" y="1527"/>
      <point x="1032" y="1476" type="curve" smooth="yes"/>
      <point x="1095" y="1423"/>
      <point x="1126" y="1345"/>
      <point x="1126" y="1244" type="curve" smooth="yes"/>
      <point x="1126" y="1225"/>
      <point x="1125" y="1202"/>
      <point x="1122" y="1179" type="curve" smooth="yes"/>
      <point x="1119" y="1156"/>
      <point x="1115" y="1132"/>
      <point x="1108" y="1108" type="curve"/>
      <point x="992" y="1094"/>
      <point x="901" y="1065"/>
      <point x="834" y="1020" type="curve" smooth="yes"/>
      <point x="767" y="975"/>
      <point x="733" y="920"/>
      <point x="733" y="857" type="curve" smooth="yes"/>
      <point x="733" y="829"/>
      <point x="739" y="809"/>
      <point x="754" y="788" type="curve" smooth="yes"/>
      <point x="773" y="761"/>
      <point x="794" y="744"/>
      <point x="834" y="713" type="curve" smooth="yes" name="hr02"/>
      <point x="885" y="674" type="line" smooth="yes"/>
      <point x="957" y="618"/>
      <point x="1010" y="574"/>
      <point x="1041" y="523" type="curve" smooth="yes"/>
      <point x="1068" y="480"/>
      <point x="1081" y="427"/>
      <point x="1081" y="364" type="curve" smooth="yes"/>
      <point x="1081" y="252"/>
      <point x="1041" y="154"/>
      <point x="952" y="79" type="curve" smooth="yes"/>
      <point x="868" y="8"/>
      <point x="752" y="-29"/>
    </contour>
  </outline>
</glyph>
<glyph name="atilde" format="1">
  <advance width="1233"/>
  <unicode hex="00E3"/>
  <outline>
    <contour>
      <point x="894" y="1297" type="curve" smooth="yes" name="sv01"/>
      <point x="865" y="1297"/>
      <point x="840" y="1302"/>
      <point x="818" y="1312" type="curve" smooth="yes"/>
      <point x="798" y="1321"/>
      <point x="773" y="1337"/>
      <point x="745" y="1366" type="curve" smooth="yes"/>
      <point x="698" y="1415" type="line" smooth="yes" name="dv03"/>
      <point x="691" y="1422"/>
      <point x="675" y="1436"/>
      <point x="662" y="1443" type="curve" smooth="yes" name="dv04"/>
      <point x="651" y="1449"/>
      <point x="638" y="1452"/>
      <point x="625" y="1452" type="curve" smooth="yes"/>
      <point x="605" y="1452"/>
      <point x="581" y="1446"/>
      <point x="562" y="1415" type="curve"/>
      <point x="545" y="1390" name="sv02"/>
      <point x="535" y="1351"/>
      <point x="530" y="1299" type="curve"/>
      <point x="405" y="1299" type="line"/>
      <point x="416" y="1389" name="dv01"/>
      <point x="440" y="1459"/>
      <point x="479" y="1508" type="curve" smooth="yes" name="dh01"/>
      <point x="517" y="1557"/>
      <point x="566" y="1581"/>
      <point x="626" y="1581" type="curve" smooth="yes" name="dv06"/>
      <point x="655" y="1581"/>
      <point x="680" y="1576"/>
      <point x="702" y="1566" type="curve" smooth="yes"/>
      <point x="725" y="1555"/>
      <point x="750" y="1536" name="sv03"/>
      <point x="774" y="1512" type="curve" smooth="yes"/>
      <point x="821" y="1465" type="line" smooth="yes" name="sh01"/>
      <point x="840" y="1446"/>
      <point x="843" y="1443"/>
      <point x="858" y="1435" type="curve" smooth="yes" name="at01"/>
      <point x="869" y="1429"/>
      <point x="880" y="1426"/>
      <point x="892" y="1426" type="curve" smooth="yes"/>
      <point x="919" y="1426"/>
      <point x="942" y="1441" name="ab01"/>
      <point x="957" y="1465" type="curve" smooth="yes"/>
      <point x="972" y="1489" name="iv01"/>
      <point x="984" y="1529"/>
      <point x="989" y="1581" type="curve"/>
      <point x="1114" y="1581" type="line" name="dv02"/>
      <point x="1103" y="1497"/>
      <point x="1080" y="1422"/>
      <point x="1041" y="1371" type="curve" smooth="yes" name="dv05"/>
      <point x="1002" y="1320"/>
      <point x="953" y="1297"/>
    </contour>
    <contour>
      <point x="407" y="-29" type="curve" smooth="yes"/>
      <point x="308" y="-29" name="dh02"/>
      <point x="225" y="-2"/>
      <point x="164" y="54" type="curve" smooth="yes"/>
      <point x="100" y="111"/>
      <point x="72" y="188"/>
      <point x="72" y="280" type="curve" smooth="yes"/>
      <point x="72" y="403"/>
      <point x="125" y="513"/>
      <point x="226" y="590" type="curve" smooth="yes"/>
      <point x="327" y="667"/>
      <point x="470" y="707"/>
      <point x="645" y="707" type="curve" smooth="yes"/>
      <point x="891" y="707" type="line"/>
      <point x="903" y="768" type="line"/>
      <point x="906" y="787" type="line" smooth="yes"/>
      <point x="907" y="794"/>
      <point x="907" y="801"/>
      <point x="907" y="804" type="curve" smooth="yes"/>
      <point x="907" y="880"/>
      <point x="880" y="919"/>
      <point x="844" y="946" type="curve" smooth="yes"/>
      <point x="805" y="974"/>
      <point x="748" y="991"/>
      <point x="665" y="991" type="curve" smooth="yes"/>
      <point x="608" y="991"/>
      <point x="546" y="983"/>
      <point x="479" y="966" type="curve" smooth="yes"/>
      <point x="411" y="949"/>
      <point x="343" y="924"/>
      <point x="268" y="889" type="curve"/>
      <point x="303" y="1069" type="line"/>
      <point x="375" y="1096"/>
      <point x="443" y="1115"/>
      <point x="508" y="1128" type="curve" smooth="yes" name="hr02"/>
      <point x="573" y="1141"/>
      <point x="636" y="1147"/>
      <point x="693" y="1147" type="curve" smooth="yes"/>
      <point x="816" y="1147"/>
      <point x="916" y="1121"/>
      <point x="985" y="1065" type="curve" smooth="yes"/>
      <point x="1050" y="1013"/>
      <point x="1087" y="935"/>
      <point x="1087" y="839" type="curve" smooth="yes"/>
      <point x="1087" y="817"/>
      <point x="1085" y="789"/>
      <point x="1081" y="754" type="curve" smooth="yes"/>
      <point x="1076" y="711"/>
      <point x="1070" y="676"/>
      <point x="1063" y="639" type="curve" smooth="yes"/>
      <point x="938" y="0" type="line"/>
      <point x="774" y="0" type="line"/>
      <point x="786" y="166" type="line"/>
      <point x="738" y="103"/>
      <point x="681" y="55"/>
      <point x="616" y="22" type="curve" smooth="yes"/>
      <point x="549" y="-13"/>
      <point x="483" y="-29"/>
    </contour>
    <contour>
      <point x="461" y="125" type="curve" smooth="yes"/>
      <point x="557" y="125"/>
      <point x="640" y="161"/>
      <point x="711" y="232" type="curve" smooth="yes"/>
      <point x="786" y="307"/>
      <point x="833" y="407"/>
      <point x="856" y="522" type="curve" smooth="yes"/>
      <point x="864" y="563" type="line"/>
      <point x="692" y="563" type="line" smooth="yes"/>
      <point x="612" y="563"/>
      <point x="554" y="561"/>
      <point x="515" y="556" type="curve" smooth="yes"/>
      <point x="476" y="551"/>
      <point x="441" y="541"/>
      <point x="414" y="530" type="curve" smooth="yes"/>
      <point x="379" y="515"/>
      <point x="338" y="493"/>
      <point x="305" y="442" type="curve" smooth="yes"/>
      <point x="278" y="401"/>
      <point x="264" y="356"/>
      <point x="264" y="307" type="curve" smooth="yes"/>
      <point x="264" y="243"/>
      <point x="288" y="201"/>
      <point x="316" y="174" type="curve" smooth="yes"/>
      <point x="348" y="143"/>
      <point x="394" y="125"/>
    </contour>
  </outline>
</glyph>
<glyph name="adieresis" format="1">
  <advance width="1233"/>
  <unicode hex="00E4"/>
  <outline>
    <contour>
      <point x="473" y="1350" type="line" smooth="yes" name="dv03"/>
      <point x="453" y="1350"/>
      <point x="442" y="1363"/>
      <point x="446" y="1383" type="curve" smooth="yes" name="dv04"/>
      <point x="474" y="1525" type="line" smooth="yes"/>
      <point x="477" y="1543"/>
      <point x="487" y="1552"/>
      <point x="506" y="1552" type="curve" smooth="yes"/>
      <point x="649" y="1552" type="line" smooth="yes" name="sv01"/>
      <point x="669" y="1552"/>
      <point x="680" y="1539"/>
      <point x="676" y="1519" type="curve" smooth="yes" name="sv02"/>
      <point x="648" y="1377" type="line" smooth="yes"/>
      <point x="645" y="1359"/>
      <point x="634" y="1350"/>
      <point x="616" y="1350" type="curve" smooth="yes"/>
    </contour>
    <contour>
      <point x="864" y="1350" type="line" smooth="yes" name="dv01"/>
      <point x="844" y="1350"/>
      <point x="833" y="1363" name="dh01"/>
      <point x="837" y="1383" type="curve" smooth="yes"/>
      <point x="865" y="1525" type="line" smooth="yes"/>
      <point x="868" y="1543" name="dv06"/>
      <point x="878" y="1552"/>
      <point x="897" y="1552" type="curve" smooth="yes"/>
      <point x="1040" y="1552" type="line" smooth="yes"/>
      <point x="1060" y="1552"/>
      <point x="1071" y="1539" name="sv03"/>
      <point x="1067" y="1519" type="curve" smooth="yes"/>
      <point x="1039" y="1377" type="line" smooth="yes" name="sh01"/>
      <point x="1036" y="1359"/>
      <point x="1025" y="1350"/>
      <point x="1007" y="1350" type="curve" smooth="yes" name="at01"/>
    </contour>
    <contour>
      <point x="407" y="-29" type="curve" smooth="yes"/>
      <point x="308" y="-29"/>
      <point x="225" y="-2"/>
      <point x="164" y="54" type="curve" smooth="yes"/>
      <point x="100" y="111" name="ab01"/>
      <point x="72" y="188"/>
      <point x="72" y="280" type="curve" smooth="yes" name="iv01"/>
      <point x="72" y="403"/>
      <point x="125" y="513"/>
      <point x="226" y="590" type="curve" smooth="yes" name="dv02"/>
      <point x="327" y="667"/>
      <point x="470" y="707"/>
      <point x="645" y="707" type="curve" smooth="yes" name="dv05"/>
      <point x="891" y="707" type="line"/>
      <point x="903" y="768" type="line"/>
      <point x="906" y="787" type="line" smooth="yes"/>
      <point x="907" y="794"/>
      <point x="907" y="803" name="dh02"/>
      <point x="907" y="806" type="curve" smooth="yes"/>
      <point x="907" y="870"/>
      <point x="886" y="917"/>
      <point x="845" y="946" type="curve" smooth="yes"/>
      <point x="806" y="974"/>
      <point x="744" y="991"/>
      <point x="663" y="991" type="curve" smooth="yes"/>
      <point x="607" y="991"/>
      <point x="546" y="983"/>
      <point x="479" y="966" type="curve" smooth="yes"/>
      <point x="411" y="949"/>
      <point x="343" y="924"/>
      <point x="268" y="889" type="curve"/>
      <point x="303" y="1069" type="line"/>
      <point x="375" y="1096"/>
      <point x="443" y="1115"/>
      <point x="508" y="1128" type="curve" smooth="yes"/>
      <point x="573" y="1141"/>
      <point x="636" y="1147"/>
      <point x="693" y="1147" type="curve" smooth="yes"/>
      <point x="816" y="1147"/>
      <point x="916" y="1121"/>
      <point x="985" y="1065" type="curve" smooth="yes"/>
      <point x="1050" y="1013"/>
      <point x="1087" y="935"/>
      <point x="1087" y="839" type="curve" smooth="yes"/>
      <point x="1087" y="817"/>
      <point x="1085" y="789"/>
      <point x="1081" y="754" type="curve" smooth="yes"/>
      <point x="1076" y="711"/>
      <point x="1070" y="676"/>
      <point x="1063" y="639" type="curve" smooth="yes" name="hr02"/>
      <point x="938" y="0" type="line"/>
      <point x="774" y="0" type="line"/>
      <point x="786" y="166" type="line"/>
      <point x="738" y="103"/>
      <point x="681" y="55"/>
      <point x="616" y="22" type="curve" smooth="yes"/>
      <point x="549" y="-13"/>
      <point x="483" y="-29"/>
    </contour>
    <contour>
      <point x="461" y="125" type="curve" smooth="yes"/>
      <point x="557" y="125"/>
      <point x="640" y="161"/>
      <point x="711" y="232" type="curve" smooth="yes"/>
      <point x="786" y="307"/>
      <point x="833" y="407"/>
      <point x="856" y="522" type="curve" smooth="yes"/>
      <point x="864" y="563" type="line"/>
      <point x="692" y="563" type="line" smooth="yes"/>
      <point x="612" y="563"/>
      <point x="554" y="561"/>
      <point x="515" y="556" type="curve" smooth="yes"/>
      <point x="476" y="551"/>
      <point x="441" y="541"/>
      <point x="414" y="530" type="curve" smooth="yes"/>
      <point x="379" y="515"/>
      <point x="338" y="493"/>
      <point x="305" y="442" type="curve" smooth="yes"/>
      <point x="278" y="401"/>
      <point x="264" y="356"/>
      <point x="264" y="307" type="curve" smooth="yes"/>
      <point x="264" y="243"/>
      <point x="288" y="201"/>
      <point x="316" y="174" type="curve" smooth="yes"/>
      <point x="348" y="143"/>
      <point x="394" y="125"/>
    </contour>
  </outline>
</glyph>
<glyph name="aring" format="1">
  <advance width="1233"/>
  <unicode hex="00E5"/>
  <outline>
    <contour>
      <point x="782" y="1321" type="curve" smooth="yes" name="dv05"/>
      <point x="706" y="1321"/>
      <point x="641" y="1348" name="dh03"/>
      <point x="588" y="1401" type="curve" smooth="yes"/>
      <point x="535" y="1454" name="dv04"/>
      <point x="508" y="1519"/>
      <point x="508" y="1595" type="curve" smooth="yes"/>
      <point x="508" y="1672"/>
      <point x="535" y="1738"/>
      <point x="588" y="1791" type="curve" smooth="yes" name="dv06"/>
      <point x="641" y="1844"/>
      <point x="705" y="1870"/>
      <point x="782" y="1870" type="curve" smooth="yes"/>
      <point x="859" y="1870" name="dv03"/>
      <point x="924" y="1844"/>
      <point x="977" y="1791" type="curve" smooth="yes" name="dh04"/>
      <point x="1030" y="1738"/>
      <point x="1057" y="1672"/>
      <point x="1057" y="1595" type="curve" smooth="yes" name="dv01"/>
      <point x="1057" y="1519"/>
      <point x="1030" y="1454" name="dh01"/>
      <point x="977" y="1401" type="curve" smooth="yes"/>
      <point x="924" y="1348"/>
      <point x="859" y="1321" name="dv08"/>
    </contour>
    <contour>
      <point x="782" y="1444" type="curve" smooth="yes"/>
      <point x="825" y="1444"/>
      <point x="861" y="1459"/>
      <point x="890" y="1488" type="curve" smooth="yes" name="sv01"/>
      <point x="919" y="1517"/>
      <point x="934" y="1553" name="sh01"/>
      <point x="934" y="1595" type="curve" smooth="yes"/>
      <point x="934" y="1638"/>
      <point x="919" y="1674" name="at01"/>
      <point x="890" y="1703" type="curve" smooth="yes"/>
      <point x="861" y="1732"/>
      <point x="825" y="1747"/>
      <point x="782" y="1747" type="curve" smooth="yes"/>
      <point x="739" y="1747" name="ab01"/>
      <point x="704" y="1733"/>
      <point x="675" y="1704" type="curve" smooth="yes" name="iv01"/>
      <point x="646" y="1675"/>
      <point x="631" y="1638"/>
      <point x="631" y="1595" type="curve" smooth="yes" name="dv02"/>
      <point x="631" y="1553"/>
      <point x="646" y="1517"/>
      <point x="675" y="1488" type="curve" smooth="yes" name="dv07"/>
      <point x="704" y="1459"/>
      <point x="740" y="1444"/>
    </contour>
    <contour>
      <point x="407" y="-29" type="curve" smooth="yes"/>
      <point x="308" y="-29" name="dh02"/>
      <point x="225" y="-2"/>
      <point x="164" y="54" type="curve" smooth="yes"/>
      <point x="100" y="111"/>
      <point x="72" y="188"/>
      <point x="72" y="280" type="curve" smooth="yes"/>
      <point x="72" y="403"/>
      <point x="125" y="513"/>
      <point x="226" y="590" type="curve" smooth="yes"/>
      <point x="327" y="667"/>
      <point x="470" y="707"/>
      <point x="645" y="707" type="curve" smooth="yes"/>
      <point x="891" y="707" type="line"/>
      <point x="903" y="768" type="line"/>
      <point x="906" y="787" type="line" smooth="yes"/>
      <point x="907" y="794"/>
      <point x="907" y="801"/>
      <point x="907" y="804" type="curve" smooth="yes"/>
      <point x="907" y="880"/>
      <point x="880" y="919"/>
      <point x="844" y="946" type="curve" smooth="yes"/>
      <point x="805" y="974"/>
      <point x="748" y="991"/>
      <point x="665" y="991" type="curve" smooth="yes"/>
      <point x="608" y="991"/>
      <point x="546" y="983"/>
      <point x="479" y="966" type="curve" smooth="yes"/>
      <point x="411" y="949"/>
      <point x="343" y="924"/>
      <point x="268" y="889" type="curve"/>
      <point x="303" y="1069" type="line"/>
      <point x="375" y="1096"/>
      <point x="443" y="1115"/>
      <point x="508" y="1128" type="curve" smooth="yes"/>
      <point x="573" y="1141"/>
      <point x="636" y="1147"/>
      <point x="693" y="1147" type="curve" smooth="yes"/>
      <point x="816" y="1147"/>
      <point x="916" y="1121"/>
      <point x="985" y="1065" type="curve" smooth="yes"/>
      <point x="1050" y="1013"/>
      <point x="1087" y="935"/>
      <point x="1087" y="839" type="curve" smooth="yes" name="hr02"/>
      <point x="1087" y="817"/>
      <point x="1085" y="789"/>
      <point x="1081" y="754" type="curve" smooth="yes"/>
      <point x="1076" y="711"/>
      <point x="1070" y="676"/>
      <point x="1063" y="639" type="curve" smooth="yes"/>
      <point x="938" y="0" type="line"/>
      <point x="774" y="0" type="line"/>
      <point x="786" y="166" type="line"/>
      <point x="738" y="103"/>
      <point x="681" y="55"/>
      <point x="616" y="22" type="curve" smooth="yes"/>
      <point x="549" y="-13"/>
      <point x="483" y="-29"/>
    </contour>
    <contour>
      <point x="461" y="125" type="curve" smooth="yes"/>
      <point x="557" y="125"/>
      <point x="640" y="161"/>
      <point x="711" y="232" type="curve" smooth="yes"/>
      <point x="786" y="307"/>
      <point x="833" y="407"/>
      <point x="856" y="522" type="curve" smooth="yes"/>
      <point x="864" y="563" type="line"/>
      <point x="692" y="563" type="line" smooth="yes"/>
      <point x="612" y="563"/>
      <point x="554" y="561"/>
      <point x="515" y="556" type="curve" smooth="yes"/>
      <point x="476" y="551"/>
      <point x="441" y="541"/>
      <point x="414" y="530" type="curve" smooth="yes"/>
      <point x="379" y="515"/>
      <point x="338" y="493"/>
      <point x="305" y="442" type="curve" smooth="yes"/>
      <point x="278" y="401"/>
      <point x="264" y="356"/>
      <point x="264" y="307" type="curve" smooth="yes"/>
      <point x="264" y="243"/>
      <point x="288" y="201"/>
      <point x="316" y="174" type="curve" smooth="yes"/>
      <point x="348" y="143"/>
      <point x="394" y="125"/>
    </contour>
  </outline>
</glyph>
<glyph name="ccedilla" format="1">
  <advance width="1233"/>
  <unicode hex="00E7"/>
  <outline>
    <contour>
      <point x="469" y="813" type="curve" smooth="yes" name="hr00"/>
      <point x="434" y="762"/>
      <point x="403" y="698" name="sh02"/>
      <point x="382" y="626" type="curve" smooth="yes"/>
      <point x="361" y="554" name="sh03"/>
      <point x="350" y="485"/>
      <point x="350" y="418" type="curve" smooth="yes"/>
      <point x="350" y="326"/>
      <point x="371" y="251"/>
      <point x="418" y="200" type="curve" smooth="yes" name="ih01"/>
      <point x="461" y="153"/>
      <point x="526" y="127" name="sh04"/>
      <point x="625" y="127" type="curve" smooth="yes"/>
      <point x="685" y="127" name="dv01"/>
      <point x="748" y="137"/>
      <point x="808" y="158" type="curve" smooth="yes"/>
      <point x="871" y="181" name="ih02"/>
      <point x="928" y="213"/>
      <point x="979" y="252" type="curve" name="dv02"/>
      <point x="940" y="51" type="line"/>
      <point x="883" y="20" name="ah02"/>
      <point x="835" y="4" name="sh05"/>
      <point x="784" y="-8" type="curve" smooth="yes" name="dv03"/>
      <point x="752" y="-16"/>
      <point x="720" y="-21" name="sh01"/>
      <point x="688" y="-25" type="curve"/>
      <point x="707" y="-57" name="sh06"/>
      <point x="718" y="-86"/>
      <point x="729" y="-111" type="curve" name="at01"/>
      <point x="740" y="-141"/>
      <point x="746" y="-170"/>
      <point x="746" y="-198" type="curve" smooth="yes"/>
      <point x="746" y="-254"/>
      <point x="723" y="-304" name="sv01"/>
      <point x="676" y="-341" type="curve" smooth="yes" name="sh07"/>
      <point x="630" y="-377"/>
      <point x="566" y="-395" name="ah01"/>
      <point x="485" y="-395" type="curve" smooth="yes"/>
      <point x="458" y="-395"/>
      <point x="426" y="-393"/>
      <point x="395" y="-388" type="curve" smooth="yes"/>
      <point x="365" y="-383"/>
      <point x="334" y="-376"/>
      <point x="301" y="-365" type="curve"/>
      <point x="326" y="-236" type="line"/>
      <point x="353" y="-249"/>
      <point x="384" y="-260"/>
      <point x="403" y="-265" type="curve" smooth="yes"/>
      <point x="426" y="-271"/>
      <point x="449" y="-274"/>
      <point x="472" y="-274" type="curve" smooth="yes"/>
      <point x="513" y="-274"/>
      <point x="551" y="-264"/>
      <point x="576" y="-244" type="curve" smooth="yes"/>
      <point x="601" y="-224"/>
      <point x="613" y="-195"/>
      <point x="613" y="-163" type="curve" smooth="yes"/>
      <point x="613" y="-140"/>
      <point x="607" y="-114"/>
      <point x="599" y="-93" type="curve" smooth="yes"/>
      <point x="595" y="-81"/>
      <point x="583" y="-56"/>
      <point x="570" y="-28" type="curve"/>
      <point x="435" y="-21"/>
      <point x="339" y="17"/>
      <point x="271" y="84" type="curve" smooth="yes"/>
      <point x="194" y="160"/>
      <point x="156" y="271"/>
      <point x="156" y="412" type="curve" smooth="yes"/>
      <point x="156" y="512"/>
      <point x="174" y="617"/>
      <point x="209" y="709" type="curve" smooth="yes"/>
      <point x="244" y="801"/>
      <point x="294" y="883"/>
      <point x="354" y="950" type="curve" smooth="yes"/>
      <point x="418" y="1021"/>
      <point x="495" y="1070"/>
      <point x="559" y="1098" type="curve" smooth="yes"/>
      <point x="632" y="1131"/>
      <point x="714" y="1147"/>
      <point x="804" y="1147" type="curve" smooth="yes"/>
      <point x="863" y="1147"/>
      <point x="920" y="1140"/>
      <point x="975" y="1126" type="curve" smooth="yes"/>
      <point x="1026" y="1113"/>
      <point x="1084" y="1090"/>
      <point x="1137" y="1061" type="curve"/>
      <point x="1100" y="879" type="line"/>
      <point x="1057" y="918"/>
      <point x="1011" y="946"/>
      <point x="964" y="964" type="curve" smooth="yes"/>
      <point x="917" y="982"/>
      <point x="865" y="991"/>
      <point x="810" y="991" type="curve" smooth="yes"/>
      <point x="736" y="991"/>
      <point x="671" y="976"/>
      <point x="614" y="947" type="curve" smooth="yes"/>
      <point x="558" y="918"/>
      <point x="509" y="873"/>
    </contour>
  </outline>
</glyph>
<glyph name="edieresis" format="1">
  <advance width="1233"/>
  <unicode hex="00EB"/>
  <outline>
    <contour>
      <point x="469" y="1350" type="line" smooth="yes" name="dv03"/>
      <point x="449" y="1350"/>
      <point x="438" y="1363"/>
      <point x="442" y="1383" type="curve" smooth="yes" name="dv04"/>
      <point x="470" y="1525" type="line" smooth="yes"/>
      <point x="473" y="1543"/>
      <point x="483" y="1552"/>
      <point x="502" y="1552" type="curve" smooth="yes"/>
      <point x="645" y="1552" type="line" smooth="yes" name="sv01"/>
      <point x="665" y="1552"/>
      <point x="676" y="1539"/>
      <point x="672" y="1519" type="curve" smooth="yes" name="sv02"/>
      <point x="644" y="1377" type="line" smooth="yes"/>
      <point x="641" y="1359"/>
      <point x="630" y="1350"/>
      <point x="612" y="1350" type="curve" smooth="yes"/>
    </contour>
    <contour>
      <point x="860" y="1350" type="line" smooth="yes" name="dv01"/>
      <point x="840" y="1350"/>
      <point x="829" y="1363" name="sh01"/>
      <point x="833" y="1383" type="curve" smooth="yes"/>
      <point x="861" y="1525" type="line" smooth="yes"/>
      <point x="864" y="1543"/>
      <point x="874" y="1552" name="dv07"/>
      <point x="893" y="1552" type="curve" smooth="yes"/>
      <point x="1036" y="1552" type="line" smooth="yes" name="sh02"/>
      <point x="1056" y="1552" name="sh03"/>
      <point x="1067" y="1539" name="dv05"/>
      <point x="1063" y="1519" type="curve" smooth="yes" name="sh05"/>
      <point x="1035" y="1377" type="line" smooth="yes" name="sh06"/>
      <point x="1032" y="1359" name="sh04"/>
      <point x="1021" y="1350"/>
      <point x="1003" y="1350" type="curve" smooth="yes" name="dv02"/>
    </contour>
    <contour>
      <point x="558" y="-29" type="curve" smooth="yes"/>
      <point x="398" y="-29" name="ih01"/>
      <point x="288" y="11" name="sh07"/>
      <point x="213" y="83" type="curve" smooth="yes"/>
      <point x="136" y="158"/>
      <point x="98" y="267" name="sh08"/>
      <point x="98" y="410" type="curve" smooth="yes" name="sh09"/>
      <point x="98" y="513" name="ah02"/>
      <point x="118" y="614"/>
      <point x="158" y="714" type="curve" smooth="yes" name="dv06"/>
      <point x="198" y="814"/>
      <point x="253" y="900"/>
      <point x="324" y="973" type="curve" smooth="yes" name="ah01"/>
      <point x="384" y="1036" name="sh10"/>
      <point x="443" y="1075"/>
      <point x="508" y="1104" type="curve" smooth="yes"/>
      <point x="576" y="1135"/>
      <point x="643" y="1149"/>
      <point x="719" y="1149" type="curve" smooth="yes"/>
      <point x="846" y="1149"/>
      <point x="944" y="1107"/>
      <point x="1015" y="1035" type="curve" smooth="yes"/>
      <point x="1088" y="959"/>
      <point x="1126" y="852"/>
      <point x="1126" y="729" type="curve" smooth="yes"/>
      <point x="1126" y="701"/>
      <point x="1124" y="678"/>
      <point x="1121" y="645" type="curve"/>
      <point x="1118" y="624"/>
      <point x="1115" y="580"/>
      <point x="1104" y="516" type="curve"/>
      <point x="297" y="516" type="line"/>
      <point x="293" y="496"/>
      <point x="290" y="477"/>
      <point x="288" y="458" type="curve" smooth="yes"/>
      <point x="286" y="441"/>
      <point x="285" y="424"/>
      <point x="285" y="409" type="curve" smooth="yes"/>
      <point x="285" y="319"/>
      <point x="311" y="249"/>
      <point x="362" y="200" type="curve" smooth="yes"/>
      <point x="413" y="151"/>
      <point x="488" y="127"/>
      <point x="584" y="127" type="curve" smooth="yes"/>
      <point x="647" y="127"/>
      <point x="708" y="137"/>
      <point x="779" y="156" type="curve" smooth="yes"/>
      <point x="849" y="175"/>
      <point x="922" y="203"/>
      <point x="997" y="240" type="curve"/>
      <point x="961" y="57" type="line"/>
      <point x="885" y="26"/>
      <point x="825" y="8"/>
      <point x="756" y="-7" type="curve" smooth="yes"/>
      <point x="689" y="-22"/>
      <point x="630" y="-29"/>
    </contour>
    <contour>
      <point x="938" y="659" type="line"/>
      <point x="942" y="678"/>
      <point x="945" y="692"/>
      <point x="946" y="704" type="curve" smooth="yes"/>
      <point x="947" y="715"/>
      <point x="948" y="725"/>
      <point x="948" y="741" type="curve" smooth="yes"/>
      <point x="948" y="818"/>
      <point x="926" y="879"/>
      <point x="883" y="924" type="curve" smooth="yes"/>
      <point x="840" y="969"/>
      <point x="778" y="991"/>
      <point x="706" y="991" type="curve" smooth="yes"/>
      <point x="626" y="991"/>
      <point x="548" y="965"/>
      <point x="477" y="901" type="curve" smooth="yes"/>
      <point x="416" y="845"/>
      <point x="361" y="763"/>
      <point x="332" y="659" type="curve"/>
    </contour>
  </outline>
</glyph>
<glyph name="igrave" format="1">
  <advance width="1233"/>
  <unicode hex="00EC"/>
  <outline>
    <contour>
      <point x="383" y="1646" type="line" name="av01"/>
      <point x="581" y="1646" type="line"/>
      <point x="778" y="1270" type="line" name="iv01"/>
      <point x="635" y="1270" type="line"/>
    </contour>
    <contour>
      <point x="749" y="-4" type="line" smooth="yes" name="ab01"/>
      <point x="633" y="-4"/>
      <point x="547" y="17" name="dh01"/>
      <point x="492" y="60" type="curve" smooth="yes" name="sh01"/>
      <point x="435" y="103"/>
      <point x="407" y="167" name="sv01"/>
      <point x="407" y="252" type="curve" smooth="yes"/>
      <point x="407" y="275" name="at01"/>
      <point x="409" y="295"/>
      <point x="412" y="322" type="curve" smooth="yes"/>
      <point x="415" y="349"/>
      <point x="419" y="379" name="dh02"/>
      <point x="426" y="408" type="curve" smooth="yes"/>
      <point x="559" y="976" type="line" name="sv02"/>
      <point x="313" y="976" type="line"/>
      <point x="342" y="1120" type="line"/>
      <point x="772" y="1120" type="line"/>
      <point x="610" y="404" type="line" smooth="yes"/>
      <point x="605" y="383"/>
      <point x="601" y="353"/>
      <point x="600" y="342" type="curve" smooth="yes"/>
      <point x="597" y="321"/>
      <point x="596" y="310"/>
      <point x="596" y="297" type="curve" smooth="yes"/>
      <point x="596" y="248"/>
      <point x="611" y="211"/>
      <point x="640" y="188" type="curve" smooth="yes"/>
      <point x="670" y="164"/>
      <point x="715" y="152"/>
      <point x="776" y="152" type="curve" smooth="yes"/>
      <point x="987" y="152" type="line"/>
      <point x="956" y="-4" type="line"/>
    </contour>
  </outline>
</glyph>
<glyph name="iacute" format="1">
  <advance width="1233"/>
  <unicode hex="00ED"/>
  <outline>
    <contour>
      <point x="828" y="1673" type="line" name="av01"/>
      <point x="1047" y="1673" type="line"/>
      <point x="652" y="1297" type="line"/>
      <point x="496" y="1297" type="line" name="ih01"/>
    </contour>
    <contour>
      <point x="749" y="-4" type="line" smooth="yes" name="ab01"/>
      <point x="633" y="-4"/>
      <point x="547" y="17" name="dh01"/>
      <point x="492" y="60" type="curve" smooth="yes" name="sh01"/>
      <point x="435" y="103"/>
      <point x="407" y="167" name="sv01"/>
      <point x="407" y="252" type="curve" smooth="yes"/>
      <point x="407" y="275" name="at01"/>
      <point x="409" y="295"/>
      <point x="412" y="322" type="curve" smooth="yes"/>
      <point x="415" y="349"/>
      <point x="419" y="379" name="dh02"/>
      <point x="426" y="408" type="curve" smooth="yes"/>
      <point x="559" y="976" type="line" name="sv02"/>
      <point x="313" y="976" type="line"/>
      <point x="342" y="1120" type="line"/>
      <point x="772" y="1120" type="line"/>
      <point x="610" y="404" type="line" smooth="yes"/>
      <point x="605" y="383"/>
      <point x="601" y="353"/>
      <point x="600" y="342" type="curve" smooth="yes"/>
      <point x="597" y="321"/>
      <point x="596" y="310"/>
      <point x="596" y="297" type="curve" smooth="yes"/>
      <point x="596" y="248"/>
      <point x="611" y="211"/>
      <point x="640" y="188" type="curve" smooth="yes"/>
      <point x="670" y="164"/>
      <point x="715" y="152"/>
      <point x="776" y="152" type="curve" smooth="yes"/>
      <point x="987" y="152" type="line"/>
      <point x="956" y="-4" type="line"/>
    </contour>
  </outline>
</glyph>
<glyph name="idieresis" format="1">
  <advance width="1233"/>
  <unicode hex="00EF"/>
  <outline>
    <contour>
      <point x="380" y="1350" type="line" smooth="yes" name="dv01"/>
      <point x="360" y="1350"/>
      <point x="349" y="1363"/>
      <point x="353" y="1383" type="curve" smooth="yes" name="dv02"/>
      <point x="381" y="1525" type="line" smooth="yes"/>
      <point x="384" y="1543"/>
      <point x="394" y="1552"/>
      <point x="413" y="1552" type="curve" smooth="yes"/>
      <point x="556" y="1552" type="line" smooth="yes" name="sv01"/>
      <point x="576" y="1552"/>
      <point x="587" y="1539"/>
      <point x="583" y="1519" type="curve" smooth="yes" name="sv02"/>
      <point x="555" y="1377" type="line" smooth="yes"/>
      <point x="552" y="1359"/>
      <point x="541" y="1350"/>
      <point x="523" y="1350" type="curve" smooth="yes"/>
    </contour>
    <contour>
      <point x="771" y="1350" type="line" smooth="yes" name="ab01"/>
      <point x="751" y="1350"/>
      <point x="740" y="1363" name="dh01"/>
      <point x="744" y="1383" type="curve" smooth="yes" name="sh01"/>
      <point x="772" y="1525" type="line" smooth="yes"/>
      <point x="775" y="1543" name="sv03"/>
      <point x="785" y="1552"/>
      <point x="804" y="1552" type="curve" smooth="yes" name="at01"/>
      <point x="947" y="1552" type="line" smooth="yes"/>
      <point x="967" y="1552"/>
      <point x="978" y="1539"/>
      <point x="974" y="1519" type="curve" smooth="yes" name="dh02"/>
      <point x="946" y="1377" type="line" smooth="yes"/>
      <point x="943" y="1359" name="sv04"/>
      <point x="932" y="1350"/>
      <point x="914" y="1350" type="curve" smooth="yes"/>
    </contour>
    <contour>
      <point x="749" y="-4" type="line" smooth="yes"/>
      <point x="633" y="-4"/>
      <point x="547" y="17"/>
      <point x="492" y="60" type="curve" smooth="yes"/>
      <point x="435" y="103"/>
      <point x="407" y="167"/>
      <point x="407" y="252" type="curve" smooth="yes"/>
      <point x="407" y="275"/>
      <point x="409" y="295"/>
      <point x="412" y="322" type="curve" smooth="yes"/>
      <point x="415" y="349"/>
      <point x="419" y="379"/>
      <point x="426" y="408" type="curve" smooth="yes"/>
      <point x="559" y="976" type="line"/>
      <point x="313" y="976" type="line"/>
      <point x="342" y="1120" type="line"/>
      <point x="772" y="1120" type="line"/>
      <point x="610" y="404" type="line" smooth="yes"/>
      <point x="605" y="383"/>
      <point x="601" y="353"/>
      <point x="600" y="342" type="curve" smooth="yes"/>
      <point x="597" y="321"/>
      <point x="596" y="310"/>
      <point x="596" y="297" type="curve" smooth="yes"/>
      <point x="596" y="248"/>
      <point x="611" y="211"/>
      <point x="640" y="188" type="curve" smooth="yes"/>
      <point x="670" y="164"/>
      <point x="715" y="152"/>
      <point x="776" y="152" type="curve" smooth="yes"/>
      <point x="987" y="152" type="line"/>
      <point x="956" y="-4" type="line"/>
    </contour>
  </outline>
</glyph>
<glyph name="oslash" format="1">
  <advance width="1233"/>
  <unicode hex="00F8"/>
  <outline>
    <contour>
      <point x="47" y="-20" type="line" name="hr00"/>
      <point x="176" y="133" type="line"/>
      <point x="157" y="165" name="sh02"/>
      <point x="142" y="202" name="sh01"/>
      <point x="133" y="245" type="curve" smooth="yes"/>
      <point x="124" y="288"/>
      <point x="119" y="334"/>
      <point x="119" y="391" type="curve" smooth="yes" name="at01"/>
      <point x="119" y="483"/>
      <point x="132" y="575"/>
      <point x="159" y="666" type="curve" smooth="yes" name="av02"/>
      <point x="184" y="750" name="at02"/>
      <point x="223" y="839"/>
      <point x="274" y="912" type="curve" smooth="yes"/>
      <point x="325" y="985" name="sh03"/>
      <point x="391" y="1050"/>
      <point x="467" y="1089" type="curve" smooth="yes"/>
      <point x="542" y="1128"/>
      <point x="628" y="1147" name="dv01"/>
      <point x="724" y="1147" type="curve" smooth="yes"/>
      <point x="777" y="1147"/>
      <point x="823" y="1141" name="av01"/>
      <point x="863" y="1129" type="curve" smooth="yes"/>
      <point x="902" y="1117"/>
      <point x="938" y="1099" name="sv01"/>
      <point x="969" y="1075" type="curve"/>
      <point x="1081" y="1212" type="line" name="sh04"/>
      <point x="1174" y="1135" type="line" name="sh05"/>
      <point x="1051" y="989" type="line" name="sh06"/>
      <point x="1074" y="954" name="dv02"/>
      <point x="1090" y="912"/>
      <point x="1099" y="875" type="curve" smooth="yes" name="ah02"/>
      <point x="1110" y="834" name="sh07"/>
      <point x="1114" y="781" name="sh08"/>
      <point x="1114" y="726" type="curve" smooth="yes"/>
      <point x="1114" y="636"/>
      <point x="1100" y="545"/>
      <point x="1073" y="453" type="curve" smooth="yes" name="ah01"/>
      <point x="1045" y="360" name="sh09"/>
      <point x="1005" y="276"/>
      <point x="958" y="207" type="curve" smooth="yes"/>
      <point x="902" y="126"/>
      <point x="842" y="69"/>
      <point x="766" y="30" type="curve" smooth="yes"/>
      <point x="691" y="-9"/>
      <point x="604" y="-29"/>
      <point x="507" y="-29" type="curve" smooth="yes"/>
      <point x="454" y="-29"/>
      <point x="414" y="-23"/>
      <point x="371" y="-10" type="curve" smooth="yes"/>
      <point x="334" y="1"/>
      <point x="297" y="17"/>
      <point x="258" y="45" type="curve"/>
      <point x="139" y="-96" type="line"/>
    </contour>
    <contour>
      <point x="852" y="938" type="line"/>
      <point x="833" y="955"/>
      <point x="809" y="971"/>
      <point x="784" y="979" type="curve" smooth="yes"/>
      <point x="760" y="987"/>
      <point x="730" y="991"/>
      <point x="701" y="991" type="curve" smooth="yes"/>
      <point x="584" y="991"/>
      <point x="490" y="928"/>
      <point x="422" y="820" type="curve" smooth="yes"/>
      <point x="354" y="712"/>
      <point x="313" y="559"/>
      <point x="313" y="388" type="curve" smooth="yes"/>
      <point x="313" y="361"/>
      <point x="314" y="353"/>
      <point x="315" y="340" type="curve" smooth="yes"/>
      <point x="319" y="302" type="line"/>
    </contour>
    <contour>
      <point x="534" y="127" type="curve" smooth="yes"/>
      <point x="645" y="127"/>
      <point x="739" y="184"/>
      <point x="811" y="299" type="curve" smooth="yes"/>
      <point x="878" y="404"/>
      <point x="920" y="550"/>
      <point x="920" y="725" type="curve" smooth="yes"/>
      <point x="920" y="752"/>
      <point x="919" y="770"/>
      <point x="918" y="782" type="curve" smooth="yes"/>
      <point x="917" y="795"/>
      <point x="915" y="810"/>
      <point x="911" y="825" type="curve"/>
      <point x="377" y="186" type="line"/>
      <point x="397" y="166"/>
      <point x="418" y="153"/>
      <point x="446" y="142" type="curve" smooth="yes"/>
      <point x="471" y="133"/>
      <point x="498" y="127"/>
    </contour>
  </outline>
</glyph>
